<?xml version="1.0" standalone="no"?>
<!DOCTYPE svg PUBLIC "-//W3C//DTD SVG 1.1//EN" "http://www.w3.org/Graphics/SVG/1.1/DTD/svg11.dtd" >
<svg xmlns="http://www.w3.org/2000/svg" xmlns:xlink="http://www.w3.org/1999/xlink" version="1.1">
<metadata></metadata>
<defs>
<font id="quicksandregular" horiz-adv-x="1351" >
<font-face units-per-em="2048" ascent="1638" descent="-410" />
<missing-glyph horiz-adv-x="614" />
<glyph unicode="&#xd;" horiz-adv-x="681" />
<glyph unicode=" "  horiz-adv-x="614" />
<glyph unicode="&#x09;" horiz-adv-x="614" />
<glyph unicode="&#xa0;" horiz-adv-x="614" />
<glyph unicode="0" horiz-adv-x="1454" d="M133 717q0 295 137 502q150 215 359 215t358 -215q139 -215 139 -502t-139 -500q-147 -217 -358.5 -217t-358.5 217q-137 205 -137 500zM233 717q0 -262 121 -445q117 -172 275 -172q154 0 274 172q123 184 123 444.5t-123 444.5q-117 172 -274 172q-162 0 -275 -172 q-121 -182 -121 -444z" />
<glyph unicode="1" horiz-adv-x="686" d="M76 1186q-25 45 18 67l277 168q16 10 37.5 4t29.5 -22q8 -18 6 -37v-1317q0 -20 -14 -34.5t-34.5 -14.5t-35 14.5t-14.5 34.5v1239l-203 -119q-12 -8 -24 -8q-29 0 -43 25z" />
<glyph unicode="2" horiz-adv-x="1208" d="M109 14q-33 39 2 74l669 604q123 113 123 275q0 139 -96 245q-109 121 -272 121q-143 0 -250 -94l-70 -63q-16 -14 -36.5 -14.5t-33.5 16.5q-14 16 -14 36.5t16 32.5l70 66q137 121 318 121q209 0 344 -154q123 -131 122 -313q0 -207 -153 -349l-574 -518h678 q20 0 34.5 -15t14.5 -35.5t-14 -35t-35 -14.5h-798h-9q-24 0 -36 14z" />
<glyph unicode="3" horiz-adv-x="1249" d="M152 179q0 22 14 36t34.5 14t37.5 -14q115 -111 270 -111q160 0 272 111q113 113 113 272.5t-113 270.5q-111 113 -270 112q-25 0 -41 21h-2q-16 14 -16 36.5t16 37.5l356 366h-549q-20 0 -35.5 14.5t-15.5 37t15.5 37t35.5 14.5h670q23 0 37 -14.5t14 -37.5 q0 -14 -6 -22q-2 -8 -10 -17l-371 -380q143 -29 246 -132q141 -141 141 -343.5t-143 -344.5q-143 -143 -344 -143t-342 143q-14 14 -14 36z" />
<glyph unicode="4" horiz-adv-x="1359" d="M102.5 338.5q-2.5 21.5 12.5 36.5l829 1032l2 2q31 37 70 6q6 -4 16 -24v-7l2 -2v-6v-983h96q20 0 36 -14t16 -34.5t-15.5 -35t-36.5 -14.5h-96v-246q0 -20 -15 -34.5t-35.5 -14.5t-35 14.5t-14.5 34.5v246h-776h-2h-4q-20 0 -31 10q-16 12 -18.5 33.5zM256 393h678v840z " />
<glyph unicode="5" horiz-adv-x="1239" d="M127 177q0 22 16 36q16 16 37 16t37 -16q115 -111 270 -111q158 0 270.5 113t112.5 270q0 162 -110.5 272.5t-270 110.5t-272.5 -112q-16 -14 -36.5 -14.5t-35.5 14.5q-8 6 -12 16v2q-2 2 -2 6q-2 4 -2 17l2 4v6l70 577q0 23 20 37q12 12 33 13h668q20 0 35.5 -14.5 t15.5 -37t-14.5 -37t-36.5 -14.5h-625l-51 -426q113 66 243 66q203 0 342 -142q141 -139 141.5 -343.5t-141.5 -344.5q-145 -141 -344 -141q-203 0 -344 141q-16 14 -16 36z" />
<glyph unicode="6" horiz-adv-x="1314" d="M131 551q4 334 139 569q170 299 502 312q20 2 34.5 -12.5t16.5 -35.5q0 -20 -14 -35.5t-35 -17.5q-268 -10 -418 -260q-68 -117 -102 -287q141 162 354 162q199 0 337 -139t138 -334q0 -197 -138 -335t-337 -138q-193 0 -330 133t-143 324q-4 31 -4 94zM236 465 q0 -10 4 -27q0 -10 -2 -14q18 -137 123.5 -230.5t246.5 -93.5q156 0 266.5 109.5t110.5 263.5t-110.5 263.5t-266.5 109.5q-154 0 -263 -109.5t-109 -263.5v-8z" />
<glyph unicode="7" horiz-adv-x="1202" d="M131 1376.5q0 20.5 14.5 34.5t34.5 14h758q16 4 31 -2q20 -10 26 -30q4 -12 4 -17q0 -16 -8 -26l-555 -1319q-14 -31 -45 -31q-12 0 -20 4q-18 8 -26.5 27.5t-2.5 38.5l530 1257h-692q-20 0 -34.5 14.5t-14.5 35z" />
<glyph unicode="8" horiz-adv-x="1290" d="M113 465q0 143 79.5 260t206.5 170q-118 92 -118 242q0 123 86 210t211 87q123 0 211 -87t88 -210q0 -150 -123 -242q129 -53 208.5 -170t79.5 -260q0 -195 -136 -330t-328.5 -135t-328.5 136t-136 329zM211 464.5q0 -151.5 107.5 -259t259.5 -107.5q154 0 260 107.5 t106 259t-106.5 259t-259.5 107.5q-152 0 -259.5 -107.5t-107.5 -259zM379 1137q0 -84 58.5 -142.5t140.5 -60.5q84 2 142 61.5t58 141.5t-58 140t-142 58q-82 0 -140.5 -57t-58.5 -141z" />
<glyph unicode="9" horiz-adv-x="1314" d="M135 963q0 195 139.5 333t333.5 138q182 0 316.5 -120t154.5 -298q2 -2 2 -5t2 -5q4 -78 4 -123q0 -330 -137 -572q-174 -299 -501 -311h-3q-23 0 -37 13.5t-14 33.5q0 49 49 53q270 10 418 260q74 129 103 287q-137 -158 -357 -158q-197 0 -335 138.5t-138 335.5z M236 963q0 -156 109 -264.5t263 -108.5q158 0 266.5 108.5t108.5 264.5q0 154 -109.5 262t-265.5 108q-154 0 -263 -108.5t-109 -261.5z" />
<glyph unicode="A" horiz-adv-x="1323" d="M123 68l498 1329q14 31 49 30q39 0 49 -30l498 -1329q8 -18 -0.5 -38t-26.5 -28q-4 0 -10 -1t-9 -1q-35 0 -47 33l-127 338h-653l-127 -338q-12 -33 -47 -33q-2 0 -8 1t-10 1q-18 8 -27.5 27.5t-1.5 38.5zM381 471h580l-289 770z" />
<glyph unicode="B" horiz-adv-x="1216" d="M213 49v1335q0 20 14.5 35t34.5 15h6h314q147 0 251.5 -104.5t104.5 -254.5q0 -168 -137 -278q123 -43 201.5 -148.5t78.5 -238.5q0 -170 -119.5 -290t-289.5 -120h-404h-6h-2q-20 0 -33.5 14.5t-13.5 34.5zM313 100h359q127 0 217 90.5t92 219.5q-2 127 -92 218t-217 91 h-359v-619zM313 821h269q106 0 181 75t75 179q0 106 -75 182t-181 76h-269v-512z" />
<glyph unicode="C" horiz-adv-x="1579" d="M150 723q0 305 218 517t527 214q258 0 463 -158q16 -14 19 -35.5t-11 -35.5q-12 -18 -33.5 -20.5t-36.5 9.5q-178 139 -401 140q-268 0 -456.5 -184.5t-188.5 -446.5q0 -258 188.5 -440.5t456.5 -182.5q233 0 397 140q18 12 40 9t32 -22q14 -14 12 -36.5t-18 -34.5 q-203 -156 -463 -156q-309 0 -527 212t-218 511z" />
<glyph unicode="D" horiz-adv-x="1472" d="M213 49v1335q0 20 14.5 35t34.5 15h6h262q297 0 507 -211t210 -508t-210 -506t-507 -209h-264h-8q-18 2 -31.5 15.5t-13.5 33.5zM313 100h217q256 0 436.5 180.5t180.5 434.5q0 256 -180.5 436t-436.5 182h-217v-1233z" />
<glyph unicode="E" horiz-adv-x="1214" d="M213 49v1335q0 20 14.5 35t34.5 15h4h733q20 0 35 -14.5t15 -35.5q0 -23 -14.5 -37t-35.5 -14h-686v-567h600q20 0 35 -15.5t15 -36t-14.5 -34.5t-35.5 -14h-600v-566h686q20 0 35 -14t15 -37q0 -20 -14.5 -34.5t-35.5 -14.5h-731h-6h-4q-18 2 -31.5 15.5t-13.5 33.5z " />
<glyph unicode="F" horiz-adv-x="1239" d="M213 49v1335q0 45 47 50h8h733q20 0 35 -14.5t15 -35t-14.5 -36t-35.5 -15.5h-688v-567h602q23 0 37.5 -14.5t14.5 -36.5q0 -20 -15.5 -34.5t-36.5 -14.5h-602v-617q0 -20 -15 -34.5t-35.5 -14.5t-35 14.5t-14.5 34.5z" />
<glyph unicode="G" horiz-adv-x="1667" d="M150 729q0 299 218 512t527 213q256 0 465 -162q14 -10 16 -31.5t-10 -37.5q-17 -21 -38 -21q-15 0 -34 12q-170 139 -399 140q-268 0 -456.5 -183.5t-188.5 -441.5q0 -262 188.5 -445.5t456.5 -183.5q211 0 379 123v422h-391q-23 0 -37.5 14.5t-14.5 34.5q0 23 14.5 37 t37.5 14h442h6q18 -2 31.5 -16t13.5 -35v-491v-8q-4 -25 -18 -37q-199 -158 -463 -158q-309 2 -527 214t-218 515z" />
<glyph unicode="H" horiz-adv-x="1452" d="M213 49v1335q0 20 14.5 35t35 15t35.5 -14.5t15 -35.5v-618h738v618q0 20 14 35t34.5 15t36 -14.5t15.5 -35.5v-1335q0 -20 -15.5 -34.5t-36 -14.5t-34.5 14.5t-14 34.5v619h-738v-619q0 -20 -15 -34.5t-35.5 -14.5t-35 14.5t-14.5 34.5z" />
<glyph unicode="I" horiz-adv-x="624" d="M227 49v1335q0 20 14.5 35t35 15t36 -14.5t15.5 -35.5v-1335q0 -20 -15.5 -34.5t-36 -14.5t-35 14.5t-14.5 34.5z" />
<glyph unicode="J" horiz-adv-x="1216" d="M94 336q-6 20 3 38.5t29.5 25t39 -3t22.5 -27.5q39 -121 140 -196q99 -73 222 -73h7q160 0 273.5 113t113.5 272v899q0 20 14.5 35t35 15t34.5 -14.5t14 -35.5v-899q0 -203 -142 -344t-343 -141q-160 0 -288 94.5t-175 241.5z" />
<glyph unicode="K" horiz-adv-x="1464" d="M213 49v1329q0 20 14.5 36t35 16t35.5 -14.5t15 -37.5v-829l867 866q16 14 36.5 14.5t32.5 -14.5q16 -14 16.5 -34.5t-16.5 -37.5l-549 -548l562 -713q12 -16 12 -31q0 -21 -21 -41q-12 -10 -32 -10q-25 0 -37 18l-555 705l-316 -315v-359q0 -20 -15 -34.5t-35.5 -14.5 t-35 14.5t-14.5 34.5z" />
<glyph unicode="L" horiz-adv-x="1153" d="M213 49v1335q0 20 14.5 35t35 15t35.5 -14.5t15 -35.5v-1284h686q20 0 36 -15t16 -35.5t-16 -35t-36 -14.5h-733h-4q-20 0 -34.5 14.5t-14.5 34.5z" />
<glyph unicode="M" horiz-adv-x="1728" d="M213 49v1327q0 25 20 39l5 4q17 11 31 11q21 0 38 -23l510 -707l508 707q10 16 31.5 19.5t38.5 -7.5q10 -10 14 -16q8 -16 8 -27v-1327q0 -20 -14 -34.5t-34.5 -14.5t-35 14.5t-14.5 34.5v1180l-459 -637q-14 -23 -41 -23h-4q-29 0 -43 23l-459 635v-1178 q0 -20 -14 -34.5t-34.5 -14.5t-36 14.5t-15.5 34.5z" />
<glyph unicode="N" horiz-adv-x="1579" d="M219 49v1315q-10 33 19 55q16 10 37.5 7t31.5 -19l869 -1204v1167q0 20 14 34.5t34.5 14.5t36 -14t15.5 -35v-1321q0 -20 -15.5 -34.5t-35.5 -14.5q-25 0 -39 18l-8 9l-861 1196v-1174q0 -20 -14 -34.5t-34.5 -14.5t-35 14.5t-14.5 34.5z" />
<glyph unicode="O" horiz-adv-x="1740" d="M150 727q2 303 202.5 515t489.5 212q287 0 485.5 -212t200.5 -515q-2 -303 -201 -515t-485 -212q-289 0 -489.5 212t-202.5 515zM250 727q0 -262 173 -444.5t419 -182.5q238 0 409.5 183.5t173.5 443.5q-2 264 -173 444.5t-410 180.5q-246 0 -419 -180.5t-173 -444.5z " />
<glyph unicode="P" horiz-adv-x="1193" d="M213 49v1335q0 20 14.5 35t34.5 15h6h400q168 0 287.5 -120t119.5 -290q0 -168 -119.5 -288t-287.5 -120l-355 -4v-563q0 -20 -15 -34.5t-35.5 -14.5t-35 14.5t-14.5 34.5zM313 713h355q127 2 218 93t91 218t-91 218t-218 91h-355v-620z" />
<glyph unicode="Q" horiz-adv-x="1728" d="M135 725q0 301 201 514t487 215q287 -2 487.5 -215t200.5 -514q0 -223 -116.5 -404.5t-304.5 -267.5l-207 -96q72 -14 125 -45q176 -106 307 -107q127 0 260 103q18 13 34 13q21 0 38 -21q12 -16 10 -38t-17 -36q-158 -121 -323 -121h-2q-158 0 -357 117q-80 45 -172 45 q-61 0 -118.5 -16.5t-71.5 -28.5h-2q-29 -14 -57 4h-2q-12 18 -15 22q-8 18 -2 39t25 29l190 86q-256 35 -427 242t-171 481zM238 725q0 -260 172 -443.5t413.5 -183.5t413.5 183.5t172 443.5t-172 442.5t-413.5 182.5t-413.5 -182.5t-172 -442.5z" />
<glyph unicode="R" horiz-adv-x="1280" d="M184 49v1335q0 18 13.5 33t31.5 17h4h7h399q170 0 289 -120t119 -290q0 -121 -64.5 -221.5t-171.5 -149.5l12 -6q6 -2 8 -4q82 -47 137.5 -127t55.5 -192q0 -111 18 -166q6 -23 21 -35h8q36 0 47 -33q2 -9 2 -17q0 -35 -35 -48h-4q-4 0 -9 -1t-11 -1h-4h-2q-58 0 -90 65 q-39 74 -39 236q0 131 -117 217q-84 59 -166 71q-4 2 -6 2q-2 2 -4 2h-348v-567q0 -20 -15.5 -34.5t-36 -14.5t-35 14.5t-14.5 34.5zM285 715h344h18q125 4 213 94t88 215q0 129 -91 219t-218 90h-354v-618z" />
<glyph unicode="S" horiz-adv-x="1366" d="M147 268q12 14 31 16.5t33 -10.5q229 -184 466 -184h5q188 0 315 94q123 88 123 213q0 117 -116 197q-115 76 -332 117h-4q-219 41 -338 120q-147 96 -148 250q0 160 150 269q143 104 346 104q88 0 177 -29.5t138 -57.5t127 -79q22 -15 22 -35q0 -13 -9 -28 q-10 -16 -28 -19.5t-34 6.5q-74 47 -120 74t-122.5 52.5t-150.5 25.5q-172 0 -293 -86q-113 -84 -113 -197q2 -102 107 -174q100 -70 307 -108h4q236 -43 365 -131q157 -101 157 -269q0 -172 -161 -288q-156 -113 -369 -113q-270 2 -528 207q-18 16 -18 34q0 14 11 29z" />
<glyph unicode="T" horiz-adv-x="1327" d="M102 1384.5q0 20.5 14.5 35t35.5 14.5h962q20 0 34.5 -14.5t14.5 -35t-14 -36t-35 -15.5h-432v-1284q0 -20 -14.5 -34.5t-35 -14.5t-34.5 14.5t-14 34.5v1284h-432q-20 0 -35 15.5t-15 36z" />
<glyph unicode="U" horiz-adv-x="1667" d="M215 580v804q0 20 14.5 35t35 15t35.5 -14.5t15 -35.5v-804q0 -199 140.5 -338.5t337.5 -141.5q201 2 341 141.5t140 338.5v804q0 20 14.5 35t34.5 15t35.5 -14.5t15.5 -35.5v-804q0 -240 -170 -410t-411 -170q-238 0 -408 170t-170 410z" />
<glyph unicode="V" horiz-adv-x="1536" d="M125 1356q-8 18 0 37.5t26.5 28t38 1t27.5 -25.5l512 -1221l514 1221q6 18 25.5 25.5t38 -1t26.5 -28t0 -37.5l-555 -1311q-4 -31 -28 -41h-2q-12 -4 -19 -4q-14 0 -18 2l-2 2q-18 6 -25 25q-2 0 -2 4l-2 2z" />
<glyph unicode="W" horiz-adv-x="2256" d="M134 1393.5q7 19.5 25.5 28t38 1t27.5 -25.5l512 -1219l365 862q16 31 47 31q35 0 51 -31l363 -862l512 1219q16 31 41 31q12 0 26 -7q18 -8 25.5 -27.5t-0.5 -37.5l-557 -1323q-12 -29 -41 -33h-4h-6q-14 0 -25 8l-8 8q-4 4 -8 13q0 4 -2 6l-365 866l-367 -866 q0 -6 -4 -10q-2 -6 -10 -15l-4 -2q-10 -8 -29 -8q-16 0 -30 10l-5 4l-2 2q-8 8 -12 25l-553 1315q-8 18 -1 37.5z" />
<glyph unicode="X" horiz-adv-x="1478" d="M157 1383.5q3 21.5 19 31.5q16 14 38 11t32 -19l444 -610l445 610q18 22 38 22q15 0 31 -14q16 -10 20.5 -31.5t-10.5 -37.5l-462 -633l462 -633q14 -16 10.5 -36.5t-20.5 -33.5q-16 -10 -28 -10q-25 0 -41 23l-445 608l-444 -608q-12 -23 -39 -23q-15 0 -31 10 q-23 17 -23 37q0 16 15 33l461 633l-461 633q-14 16 -11 37.5z" />
<glyph unicode="Y" horiz-adv-x="1236" d="M125 1346q-11 18 -11 33q0 21 21 36q16 14 38 11t32 -19l448 -616l451 616q10 16 31.5 19.5t38.5 -11.5q16 -10 19 -31.5t-9 -37.5l-479 -654v-643q0 -20 -14.5 -34.5t-35 -14.5t-35 14.5t-14.5 34.5v639z" />
<glyph unicode="Z" horiz-adv-x="1366" d="M152 1376.5q0 20.5 14 34.5t35 14h952q20 6 41 -8q8 -4 14 -10q12 -14 12 -29.5t-12 -31.5l-911 -1246h872q20 0 35 -14t15 -37q0 -20 -14.5 -34.5t-35.5 -14.5h-968h-4q-2 0 -7.5 1t-7.5 1q-8 4 -12 8q-21 13 -21 35q0 10 5 23q6 12 12 18l903 1241h-868 q-20 0 -34.5 14.5t-14.5 35z" />
<glyph unicode="a" horiz-adv-x="1267" d="M82 502q0 207 139 354.5t336 147.5q113 0 212 -53.5t165 -143.5v147q0 20 14.5 35t35 15t34.5 -14.5t14 -35.5v-905q0 -20 -14 -34.5t-34.5 -14.5t-35 14.5t-14.5 34.5v150q-66 -92 -165 -145.5t-212 -53.5q-197 0 -336 147.5t-139 354.5zM180 502q0 -168 111.5 -286 t265.5 -118q156 0 266.5 118t110.5 286t-110.5 286.5t-266.5 118.5q-154 0 -265.5 -118.5t-111.5 -286.5z" />
<glyph unicode="b" d="M190 49v430v21v20v864q0 20 14.5 35t35 15t36 -14.5t15.5 -35.5v-577q68 90 168 143.5t217 53.5q203 0 344 -147.5t141 -356.5q0 -207 -141 -353.5t-344 -146.5q-117 0 -217.5 52t-167.5 143v-146q0 -20 -15.5 -34.5t-36 -14.5t-35 14.5t-14.5 34.5zM291 500 q0 -166 113.5 -283t271.5 -117q160 0 272.5 117t112.5 283q0 168 -112.5 285.5t-272.5 117.5q-156 0 -267.5 -112.5t-117.5 -274.5v-16z" />
<glyph unicode="c" horiz-adv-x="1169" d="M119 504q0 209 150.5 354.5t365.5 145.5q180 0 319 -111q16 -10 18.5 -30.5t-11.5 -37.5q-18 -20 -37 -20q-15 0 -31 12q-113 90 -258 90q-174 0 -296 -118.5t-122 -284.5q0 -170 122 -288t296 -118q143 0 258 88q16 12 31 12q19 0 37 -20q14 -17 14 -32q0 -21 -25 -40 q-137 -106 -315 -106q-215 0 -365.5 146.5t-150.5 357.5z" />
<glyph unicode="d" d="M123 500q0 209 141.5 356.5t343.5 147.5q117 0 217.5 -53.5t167.5 -143.5v577q0 20 15.5 35t36 15t35 -14.5t14.5 -35.5v-864v-20v-451q0 -20 -14.5 -34.5t-35 -14.5t-36 14.5t-15.5 34.5v146q-68 -90 -168 -142.5t-217 -52.5q-203 0 -344 146.5t-141 353.5zM223 500 q0 -166 113.5 -283t271.5 -117q156 0 267.5 112t117.5 271v33q-6 162 -117.5 274.5t-267.5 112.5q-158 0 -271.5 -117.5t-113.5 -285.5z" />
<glyph unicode="e" horiz-adv-x="1247" d="M119 500q0 209 142 356.5t345 147.5q193 0 330 -134.5t154 -332.5v-2v-7q0 -20 -14.5 -32.5t-35.5 -12.5h-823q8 -164 121 -274.5t268 -110.5q100 0 186.5 49.5t137.5 133.5q16 25 37 25q13 0 28 -9q26 -18 26 -41q0 -14 -9 -29q-66 -104 -173.5 -165.5t-232.5 -61.5 q-203 0 -345 146.5t-142 353.5zM223 580h760q-25 141 -131.5 233t-245.5 92q-141 0 -247.5 -91t-135.5 -234z" />
<glyph unicode="f" horiz-adv-x="741" d="M133 970.5q0 20.5 14.5 35t34.5 14.5h133v106q4 160 66 234q66 72 203 72q20 0 34.5 -15.5t14.5 -36t-14.5 -35t-34.5 -14.5q-94 0 -127 -39q-41 -45 -41 -166v-106h141q20 0 35.5 -14.5t15.5 -35t-15 -35.5t-36 -15h-141v-873q0 -20 -14.5 -34.5t-35 -14.5t-36 14.5 t-15.5 34.5v873h-133q-20 0 -34.5 15t-14.5 35.5z" />
<glyph unicode="g" d="M123 506q0 205 138 351.5t333 146.5q113 0 212 -53.5t163 -143.5v147q0 20 15 35t36 15q18 0 32.5 -15t14.5 -35v-874q0 -195 -138 -333t-335 -138q-100 0 -209 47q-27 19 -27 41q0 12 7 24q15 31 39 31q12 0 26 -8q78 -37 164 -37q156 0 265.5 108.5t109.5 264.5v123 q-63 -92 -161.5 -144.5t-213.5 -52.5q-197 0 -334 146.5t-137 353.5zM221 506q0 -168 109.5 -286t263.5 -118q156 0 265.5 118t109.5 286t-109.5 283.5t-265.5 115.5q-154 0 -263.5 -116.5t-109.5 -282.5z" />
<glyph unicode="h" horiz-adv-x="1255" d="M190 49v559v17v759q0 20 14.5 35t35 15t36 -14.5t15.5 -35.5v-528q125 147 317 148q176 0 298 -112t122 -284v-559q0 -20 -15.5 -34.5t-36 -14.5t-34.5 14.5t-14 34.5v559q0 129 -92.5 212t-227.5 83q-133 0 -225 -83t-92 -212v-559v-6v-6l-2 -2l-4 -8q-10 -18 -31 -25 q-2 -2 -4 -2h-4h-6q-23 0 -39 16q-6 8 -8 17q-2 6 -3 16z" />
<glyph unicode="i" horiz-adv-x="575" d="M193 49v905q0 20 14 35t35 15q23 0 37 -14.5t14 -35.5v-905q0 -20 -15.5 -34.5t-36 -14.5t-34.5 14.5t-14 34.5zM193 1235v47q0 20 14 34.5t34.5 14.5t36 -14t15.5 -35v-47q0 -23 -15.5 -38t-36 -15t-34.5 15t-14 38z" />
<glyph unicode="j" horiz-adv-x="509" d="M-10 -344q0 23 14 37t35 14q29 0 51.5 22.5t22.5 53.5v1169q0 20 15 36t35.5 16t35 -15.5t14.5 -36.5v-1169q0 -74 -50 -124t-124 -50q-20 0 -34.5 13.5t-14.5 33.5zM117 1235v47q0 20 16.5 34.5t34.5 14.5q20 0 34.5 -14t14.5 -35v-47q0 -20 -14.5 -35.5t-34.5 -15.5 q-18 0 -34.5 15.5t-16.5 35.5z" />
<glyph unicode="k" horiz-adv-x="1146" d="M190 49v1335q0 20 14.5 35t35 15t36 -14.5t15.5 -35.5v-964l594 592q18 18 35 18t34 -18q16 -14 16.5 -34t-16.5 -36l-387 -387l389 -473q15 -17 15 -34q0 -19 -19 -38q-12 -10 -32 -10q-29 0 -39 18l-385 465l-205 -204v-230q0 -20 -15.5 -34.5t-36 -14.5t-35 14.5 t-14.5 34.5z" />
<glyph unicode="l" horiz-adv-x="509" d="M205 49v1335q0 20 14 35t34.5 15t36 -14.5t15.5 -35.5v-1335q0 -20 -15.5 -34.5t-36 -14.5t-34.5 14.5t-14 34.5z" />
<glyph unicode="m" horiz-adv-x="1947" d="M190 37v10v547v16v344q0 20 14.5 33.5t33.5 13.5q20 0 34.5 -13t14.5 -34v-96q121 143 309 143q115 0 210 -58t148 -155q55 96 151.5 154.5t209.5 58.5q168 0 287.5 -119.5t119.5 -287.5v-547q0 -18 -14 -32.5t-34.5 -14.5t-34 14.5t-13.5 32.5v547q-4 129 -94 220 t-217 91t-218 -92t-91 -219v-547v-6l-2 -4v-4q-4 -14 -25 -27q-12 -6 -25 -6h-6h-4l-4 2l-12 6q-2 0 -6 4l-7 6l-4 5q0 2 -2 4q0 2 -2 4q0 4 -2 6v6v4v547q0 129 -90 220t-219 91t-219 -91t-90 -220v-547q0 -27 -23 -39q-6 -6 -12 -6q-2 -2 -8 -2h-6h-7q-31 4 -41 37z" />
<glyph unicode="n" horiz-adv-x="1255" d="M190 37v12v545v16v342q0 20 14.5 34.5t35 14.5t34 -14t13.5 -35v-96q121 145 311 145q168 0 288 -119.5t120 -287.5v-545q0 -20 -14.5 -34.5t-35 -14.5t-35 14.5t-14.5 34.5v545q0 127 -90 218t-219 91q-127 0 -217 -90t-94 -219v-545v-8q-4 -16 -11 -23q-12 -18 -36 -18 h-13q-23 6 -32 27q-2 2 -2 6z" />
<glyph unicode="o" horiz-adv-x="1280" d="M143 502q0 205 139.5 353.5t336 148.5t336 -148.5t139.5 -353.5t-139.5 -353.5t-336 -148.5t-336 148.5t-139.5 353.5zM242 502q0 -166 111.5 -285t265 -119t265 119t111.5 285q0 168 -111.5 286.5t-265 118.5t-265 -118.5t-111.5 -286.5z" />
<glyph unicode="p" d="M190 -371v856v21v20v428q0 20 14.5 35t35 15t36 -14.5t15.5 -35.5v-145q66 90 166 142.5t215 52.5q203 0 344 -145.5t141 -352.5q0 -205 -141.5 -352.5t-343.5 -147.5q-115 0 -215.5 53.5t-165.5 143.5v-574q0 -20 -15.5 -34.5t-36 -14.5t-35 14.5t-14.5 34.5zM291 506 q0 -166 112.5 -283t268.5 -119q160 2 272.5 119t112.5 283t-113 281.5t-272 115.5q-152 0 -263.5 -110.5t-117.5 -270.5v-16z" />
<glyph unicode="q" d="M123 506q0 205 141.5 351.5t339.5 146.5q117 0 217.5 -53.5t167.5 -143.5v147q0 20 14.5 35t34.5 15q23 0 37.5 -14.5t14.5 -35.5v-428v-20v-21v-856q0 -20 -14.5 -34.5t-37.5 -14.5q-20 0 -34.5 14.5t-14.5 34.5v574q-68 -92 -169 -145.5t-216 -53.5q-199 2 -340 149.5 t-141 352.5zM223 506q0 -166 111.5 -283t269.5 -119q160 2 272.5 119t112.5 283t-112.5 281.5t-272.5 115.5q-158 0 -269.5 -115.5t-111.5 -281.5z" />
<glyph unicode="r" horiz-adv-x="899" d="M190 49v903q0 20 14.5 34.5t37.5 14.5q18 0 32.5 -14t14.5 -35v-221q8 16 14 25q157 245 400 245h2q20 0 34.5 -14t14.5 -34.5t-14.5 -35t-34.5 -14.5q-164 0 -291 -164q-74 -98 -121 -233q-4 -8 -4 -17v-440q0 -20 -14.5 -34.5t-32.5 -14.5q-23 0 -37.5 14.5t-14.5 34.5 z" />
<glyph unicode="s" horiz-adv-x="1007" d="M121 209q12 16 32.5 18t36.5 -12q160 -117 308 -117q115 0 190 62q76 51 76 123q-2 66 -72 123q-63 49 -213 73l-4 2q-160 29 -227 78q-109 63 -109 180t109 197q98 68 246 68q59 0 119.5 -19.5t92 -37t87.5 -52.5q16 -12 20 -32.5t-6 -37t-30.5 -20.5t-37.5 6 q-51 35 -77.5 50.5t-74.5 32.5t-93 17q-119 0 -191 -57q-63 -51 -63 -115q0 -55 57 -100q72 -49 205 -70h4q133 -20 244 -82q112 -73 112 -202q0 -119 -114 -205q-109 -80 -250 -80q-195 2 -371 143q-19 17 -19 35q0 15 13 31z" />
<glyph unicode="t" horiz-adv-x="819" d="M86 954.5q0 16.5 2 24.5t13.5 16.5t33.5 8.5h125v372q0 18 15.5 33.5t33.5 15.5q20 0 36.5 -15t16.5 -34v-372h130q18 0 33.5 -15.5t15.5 -34t-15.5 -34t-33.5 -15.5h-130v-731q0 -33 26 -53.5t48 -20.5q18 0 34.5 -16t16.5 -34.5t-16 -34t-35 -15.5q-76 0 -126 49 t-50 125v731h-125q-23 0 -34 8.5t-13 16.5t-2 24.5z" />
<glyph unicode="u" horiz-adv-x="1255" d="M170 410v546q0 20 14.5 35t35 15t34.5 -14.5t14 -35.5v-546q0 -129 90.5 -219.5t216.5 -92.5q129 2 220.5 92.5t91.5 219.5v546q0 20 15.5 35t33.5 15q23 0 37 -14.5t14 -35.5v-546q0 -170 -119.5 -290t-292.5 -120q-168 0 -286.5 120t-118.5 290z" />
<glyph unicode="v" horiz-adv-x="1191" d="M119 928q-8 18 0 36.5t24 26.5q18 8 38 0t26 -26l334 -791l333 791q6 18 26 26t38 0q30 -13 30 -39q0 -11 -5 -24l-375 -889q-2 -12 -13 -25q-12 -14 -32 -14q-10 0 -17 2q-2 0 -4 2q-2 0 -10 4q-12 12 -16 23z" />
<glyph unicode="w" horiz-adv-x="1763" d="M129 928q-8 18 0 36.5t25 26.5q18 8 37.5 0t25.5 -26l334 -791l231 551q14 31 47 31q35 0 50 -31l231 -551l332 791q8 18 27.5 26t35.5 0q18 -8 26.5 -26.5t0.5 -36.5l-375 -893q-6 -14 -18 -25q-14 -10 -25 -10h-4h-6q-33 4 -39 31l-2 2l-234 555l-231 -553q-2 -2 -2 -4 q-10 -31 -43 -31q-6 0 -18 4q-4 0 -9 4q-14 6 -20 23z" />
<glyph unicode="x" horiz-adv-x="1167" d="M152 78l307 420l-307 422q-10 17 -10 32q0 21 20 37q14 10 35.5 7t31.5 -19l291 -395l289 395q12 16 31.5 19t33.5 -7q24 -17 24 -39q0 -14 -9 -30l-309 -422l309 -420q11 -16 11 -30q0 -22 -26 -38q-10 -10 -24 -10q-29 0 -41 20l-289 396l-291 -396q-12 -20 -39 -20 q-12 0 -28 10q-20 17 -20 37q0 15 10 31z" />
<glyph unicode="y" horiz-adv-x="1204" d="M106 412v544q0 20 14.5 34t33.5 14q23 0 37 -13.5t14 -34.5v-544q0 -129 90 -219.5t217 -90.5q129 0 219 90.5t92 219.5v544q0 16 8 25v2l3 4q2 0 2 1t2 1q6 8 18 12h4l2 3h4h6h7q8 -2 24 -11q10 -10 12 -16q6 -10 7 -21v-544v-19v-313q0 -197 -139.5 -334t-338.5 -137 q-102 0 -206 47q-28 18 -28 41q0 12 7 24q14 28 43 28q10 0 21 -3q78 -39 163 -39q156 0 266.5 108.5t112.5 264.5v65q-127 -143 -311 -143q-168 2 -287 122t-119 288z" />
<glyph unicode="z" horiz-adv-x="1134" d="M125 49v2q0 23 16 35l592 811h-559q-20 0 -34.5 14.5t-14.5 35t14.5 34.5t34.5 14h649q16 2 35 -8l6 -6l2 -2q20 -20 11 -45q-4 -18 -19 -27l-590 -809h561q20 0 35 -14t15 -34.5t-14.5 -35t-35.5 -14.5h-655q-35 0 -45 29l-2 2q-2 6 -2 18z" />
<glyph unicode="&#x2000;" horiz-adv-x="727" />
<glyph unicode="&#x2001;" horiz-adv-x="1454" />
<glyph unicode="&#x2002;" horiz-adv-x="727" />
<glyph unicode="&#x2003;" horiz-adv-x="1454" />
<glyph unicode="&#x2004;" horiz-adv-x="484" />
<glyph unicode="&#x2005;" horiz-adv-x="363" />
<glyph unicode="&#x2006;" horiz-adv-x="242" />
<glyph unicode="&#x2007;" horiz-adv-x="242" />
<glyph unicode="&#x2008;" horiz-adv-x="181" />
<glyph unicode="&#x2009;" horiz-adv-x="290" />
<glyph unicode="&#x200a;" horiz-adv-x="80" />
<glyph unicode="&#x202f;" horiz-adv-x="290" />
<glyph unicode="&#x205f;" horiz-adv-x="363" />
<glyph unicode="&#x25fc;" horiz-adv-x="993" d="M0 0v993h993v-993h-993z" />
</font>
</defs>
</svg>
