<?xml version="1.0" standalone="no"?>
<!DOCTYPE svg PUBLIC "-//W3C//DTD SVG 1.1//EN" "http://www.w3.org/Graphics/SVG/1.1/DTD/svg11.dtd" >
<svg xmlns="http://www.w3.org/2000/svg" xmlns:xlink="http://www.w3.org/1999/xlink" version="1.1">
<metadata></metadata>
<defs>
<font id="quicksand_proregular" horiz-adv-x="1159" >
<font-face units-per-em="2048" ascent="1638" descent="-410" />
<missing-glyph horiz-adv-x="614" />
<glyph unicode="&#xfb01;" horiz-adv-x="1050" d="M35 983q0 33 21.5 52.5t60.5 19.5h71q15 0 15 14v148q0 80 28.5 140t77.5 94.5t108 51.5t126 17q204 0 321 -105q33 -30 42.5 -66t-13.5 -69q-25 -31 -68.5 -31t-79.5 39q-41 44 -88 67.5t-114 24.5q-84 2 -140.5 -48.5t-56.5 -155.5v-107q0 -14 14 -14h476 q32 0 52.5 -21t20.5 -53v-907q0 -32 -20 -53t-51 -21t-51.5 21t-20.5 53v823q0 14 -14 14h-392q-14 0 -14 -14v-825q0 -32 -20.5 -53t-51.5 -21t-51 21t-20 53v825q0 14 -15 14h-71q-39 0 -60.5 19.5t-21.5 52.5z" />
<glyph unicode="&#xfb02;" horiz-adv-x="1138" d="M51 983q0 29 17.5 50.5t54.5 21.5h82q14 0 14 14v131q0 119 81.5 201t211.5 82q152 0 307 -94q5 -4 8.5 -2t3.5 8v47q0 32 21 53t53 21q31 0 50.5 -21t19.5 -53v-1368q0 -32 -21 -53t-53 -21q-31 0 -50.5 21t-19.5 53v1120q0 6 -6 12q-177 144 -315 135 q-74 -4 -111 -57.5t-37 -124.5v-90q0 -14 15 -14h170q36 0 53.5 -21.5t17.5 -50.5t-17.5 -50.5t-53.5 -21.5h-170q-15 0 -15 -14v-825q0 -29 -17.5 -50.5t-53.5 -21.5q-37 0 -54.5 21.5t-17.5 50.5v825q0 14 -14 14h-82q-37 0 -54.5 21.5t-17.5 50.5z" />
<glyph horiz-adv-x="0" />
<glyph horiz-adv-x="682" />
<glyph unicode=" "  horiz-adv-x="614" />
<glyph unicode="&#x09;" horiz-adv-x="614" />
<glyph unicode="&#xa0;" horiz-adv-x="614" />
<glyph unicode="!" horiz-adv-x="374" d="M94 63v89q0 28 18 45.5t46 17.5h61q28 0 46 -17.5t18 -45.5v-89q0 -28 -18 -45.5t-46 -17.5h-61q-28 0 -46 17.5t-18 45.5zM96 1317v59q0 25 18 41.5t46 16.5h57q28 0 46 -18t18 -46v-53l-45 -854q-3 -57 -48 -57q-47 0 -47 59z" />
<glyph unicode="&#x22;" horiz-adv-x="815" d="M98 934l43 448q3 32 25.5 52t54.5 20h33h20q29 -1 41.5 -22.5t3.5 -51.5l-143 -446q-7 -25 -16 -31t-31 -6q-34 0 -31 37zM498 934l43 448q3 32 25.5 52t54.5 20h32h21q29 -1 41.5 -22.5t3.5 -51.5l-144 -446q-7 -25 -16 -31t-31 -6q-33 0 -30 37z" />
<glyph unicode="#" horiz-adv-x="1331" d="M41 426v14q0 28 17.5 46t45.5 18h168q20 0 23 18l67 393q3 23 -18 23h-158q-28 0 -45.5 17.5t-17.5 45.5v15q0 28 17.5 45.5t45.5 17.5h185q19 0 22 19l49 286q3 22 19.5 36t38.5 14h16q32 0 51.5 -23t14.5 -55l-43 -254q-3 -23 18 -23h348q20 0 23 19l49 286q3 22 19 36 t38 14h17q32 0 51 -23t14 -55l-43 -254q-3 -23 19 -23h135q28 0 45.5 -17.5t17.5 -45.5v-15q0 -28 -17.5 -45.5t-45.5 -17.5h-164q-20 0 -23 -18l-67 -394q-3 -22 18 -22h156q28 0 45.5 -18t17.5 -46v-14q0 -28 -17.5 -46t-45.5 -18h-182q-20 0 -23 -18l-51 -295 q-3 -22 -19 -35.5t-38 -13.5h-17q-32 0 -51 23t-14 55l45 262q3 22 -19 22h-348q-19 0 -22 -18l-52 -295q-3 -22 -19 -35.5t-38 -13.5h-16q-32 0 -51.5 23t-14.5 55l45 262q3 22 -18 22h-140q-28 0 -45.5 18t-17.5 46zM440 526q-3 -22 19 -22h348q19 0 22 18l66 393 q3 23 -18 23h-349q-19 0 -22 -18z" />
<glyph unicode="$" horiz-adv-x="1206" d="M59.5 226.5q-1.5 31.5 22.5 54.5q20 20 45.5 22.5t52.5 -16.5q58 -45 94.5 -69.5t101.5 -51.5t136 -35q10 -3 10 8v547q0 9 -8 12q-57 16 -95 28t-88.5 32t-84 39.5t-69.5 48t-57 60.5t-34.5 74.5t-13.5 92.5q0 90 37 162.5t100 118t140 70.5t163 30q10 0 10 10v52 q0 28 18 45.5t46 17.5h4q28 0 45.5 -17.5t17.5 -45.5v-60q0 -10 11 -10q174 -26 331 -129q28 -19 33.5 -49t-14.5 -58q-17 -23 -44 -27t-50 13q-117 80 -256 104q-4 1 -7.5 -1t-3.5 -7v-473q0 -9 9 -12l8 -2q84 -25 145.5 -48.5t123.5 -59.5t101 -78.5t63.5 -103.5 t24.5 -136q0 -97 -40.5 -172.5t-109 -121t-147.5 -70.5t-167 -31q-11 0 -11 -11v-110q0 -28 -17.5 -46t-45.5 -18h-4q-28 0 -46 18t-18 46v112q0 11 -10 11q-223 24 -422 186q-29 23 -30.5 54.5zM215 1073q0 -37 14.5 -67t38.5 -51.5t64 -41t80 -33.5t98 -30q12 -3 12 8v442 q0 12 -12 9q-132 -8 -213.5 -69t-81.5 -167zM653 137q0 -10 11 -10q90 7 160 34.5t115.5 83.5t45.5 134q0 102 -71.5 162t-247.5 114q-13 3 -13 -8v-510z" />
<glyph unicode="%" horiz-adv-x="1435" d="M72 1104v20q0 127 90 218.5t217 91.5q128 0 216.5 -89.5t88.5 -216.5v-20q0 -127 -90 -218t-217 -91q-128 0 -216.5 89t-88.5 216zM175 43.5q-4 24.5 13 46.5l973 1329q15 22 39.5 26t46.5 -11t26 -39.5t-13 -46.5l-973 -1330q-15 -22 -39.5 -25.5t-46.5 11.5t-26 39.5z M193 1102q0 -83 53.5 -140t132.5 -57t131.5 56t52.5 141v28q0 85 -53.5 142t-132.5 57q-80 0 -132 -56.5t-52 -142.5v-28zM752 297v20q0 127 90 218.5t217 91.5q128 0 216.5 -89t88.5 -216v-21q0 -127 -90 -218t-217 -91q-128 0 -216.5 89t-88.5 216zM872 295q0 -83 54 -140 t133 -57t131.5 56t52.5 141v29q0 85 -53 141.5t-133 56.5t-132.5 -56t-52.5 -142v-29z" />
<glyph unicode="&#x26;" horiz-adv-x="1214" d="M86 317q-37 164 33.5 310t238.5 219q-26 32 -45 61t-30.5 55t-18.5 43t-9 41t-3 32t0.5 32.5t1.5 26.5q2 53 29.5 107.5t75 102t124 77.5t166.5 30q239 0 375 -176q21 -28 12.5 -58.5t-39.5 -48.5q-25 -13 -48.5 -6t-41.5 31q-93 115 -258 115q-113 0 -181.5 -56.5 t-70.5 -121.5q2 -16 -0.5 -30.5t4 -35.5t15 -43.5t31 -54t51.5 -67t78 -83t110 -101.5t146.5 -122.5t189.5 -146.5q58 113 82 221q6 29 27.5 45.5t50.5 13.5q33 -3 50.5 -28t10.5 -58q-27 -139 -106 -281l157 -112q27 -19 32 -46.5t-13 -53.5q-19 -26 -47 -31t-54 14 q-48 32 -151 109q-197 -262 -504 -262q-170 0 -303.5 90t-167.5 247zM225 348q23 -102 115.5 -163.5t216.5 -61.5q233 0 387 205q-308 230 -481 403q-146 -44 -206.5 -148t-31.5 -235z" />
<glyph unicode="'" horiz-adv-x="415" d="M98 934l43 448q3 32 25.5 52t54.5 20h33h20q29 -1 41.5 -22.5t3.5 -51.5l-143 -446q-7 -25 -16 -31t-31 -6q-34 0 -31 37z" />
<glyph unicode="(" horiz-adv-x="747" d="M84 649q0 268 131 508.5t369 390.5q29 19 58 15t44 -27q14 -23 4 -50.5t-39 -47.5q-197 -140 -302 -348.5t-105 -440.5t105 -440t302 -348q29 -20 39 -48t-4 -51q-15 -23 -44 -27t-58 15q-238 150 -369 390.5t-131 508.5z" />
<glyph unicode=")" horiz-adv-x="747" d="M57 -187q10 28 39 48q197 140 302.5 348t105.5 440t-105.5 440.5t-302.5 348.5q-29 20 -39 47.5t4 50.5q15 23 44.5 27t58.5 -15q238 -150 369 -390.5t131 -508.5t-131 -508.5t-369 -390.5q-29 -19 -58.5 -15t-44.5 27q-14 23 -4 51z" />
<glyph unicode="*" horiz-adv-x="620" d="M31 1241q-5 18 6 35l8 12q9 17 26.5 21.5t34.5 -6.5l146 -103q10 -7 17 -3.5t7 17.5l-14 177q-2 20 10.5 33.5t32.5 13.5h12q20 0 32.5 -13.5t10.5 -33.5l-14 -177q0 -13 7 -17.5t18 3.5l145 103q17 11 35 7t27 -22l8 -12q11 -17 5 -35t-26 -27l-162 -75 q-12 -6 -12 -14.5t12 -14.5l164 -74q19 -9 24.5 -26.5t-3.5 -34.5l-8 -14q-10 -18 -28.5 -22t-35.5 7l-145 105q-11 7 -18 3t-7 -18l14 -176q2 -20 -10.5 -33.5t-32.5 -13.5h-12q-20 0 -32.5 13.5t-10.5 33.5l14 176q0 14 -7 18t-17 -3l-146 -105q-17 -11 -35 -6.5t-28 21.5 l-8 14q-9 17 -3.5 34.5t23.5 24.5l164 76q12 6 12 14.5t-12 14.5l-164 75q-19 9 -24 27z" />
<glyph unicode="+" horiz-adv-x="1216" d="M104 721q0 32 21 53t53 21h338q14 0 14 14v334q0 32 21 53t53 21h4q32 0 53 -21t21 -53v-334q0 -14 14 -14h338q32 0 53 -21t21 -53t-21 -53t-53 -21h-338q-14 0 -14 -14v-334q0 -32 -21 -53t-53 -21h-4q-32 0 -53 21t-21 53v334q0 14 -14 14h-338q-32 0 -53 21t-21 53z " />
<glyph unicode="," horiz-adv-x="397" d="M80 -215q-10 29 53 68q78 49 72 137q0 10 -10 10q-28 5 -46 28t-18 56v47q0 37 23.5 60.5t60.5 23.5h21q37 0 60 -23.5t23 -60.5v-100q0 -102 -37 -163.5t-114 -94.5q-32 -11 -57 -7.5t-31 19.5z" />
<glyph unicode="-" horiz-adv-x="802" d="M117 616q0 35 23.5 58.5t60.5 23.5h401q37 0 60.5 -23.5t23.5 -58.5q0 -37 -23.5 -60.5t-60.5 -23.5h-401q-37 0 -60.5 23.5t-23.5 60.5z" />
<glyph unicode="." horiz-adv-x="366" d="M92 84v43q0 37 23.5 60.5t60.5 23.5h14q37 0 60.5 -23.5t23.5 -60.5v-43q0 -37 -23.5 -60.5t-60.5 -23.5h-14q-37 0 -60.5 23.5t-23.5 60.5z" />
<glyph unicode="/" horiz-adv-x="1015" d="M-36 -241.5q-10 16.5 3 44.5l901 1799q17 36 60 36h37q29 0 39 -16.5t-3 -44.5l-901 -1798q-18 -37 -59 -37h-37q-30 0 -40 16.5z" />
<glyph unicode="0" horiz-adv-x="1273" d="M123 717q0 216 58 381t175.5 260.5t280.5 95.5t280.5 -95.5t175.5 -260.5t58 -381t-58 -381t-175.5 -260.5t-280.5 -95.5t-280.5 95.5t-175.5 260.5t-58 381zM266 717q0 -277 97 -435.5t274 -158.5t274 158.5t97 435.5t-97 435.5t-274 158.5t-274 -158.5t-97 -435.5z" />
<glyph unicode="1" horiz-adv-x="784" d="M84.5 1173q7.5 29 34.5 44l370 206q25 14 46 11q27 -1 44.5 -19.5t20.5 -46.5v-1294q0 -32 -21 -53t-53 -21q-31 0 -50 21t-19 53v1151q0 6 -4.5 8.5t-8.5 -0.5l-251 -141q-27 -15 -56.5 -8t-44.5 34q-15 26 -7.5 55z" />
<glyph unicode="2" horiz-adv-x="1191" d="M102 74q0 8 2 12q3 21 23 41l528 516q2 2 21.5 20t27 26t27 28.5t29.5 35t27 38t26 44.5t18.5 47t14 54t4.5 57q0 75 -33.5 146.5t-102 121.5t-155.5 50q-56 0 -107 -15.5t-94.5 -46t-66 -50t-55.5 -52.5q-22 -22 -53.5 -22.5t-47.5 14.5q-20 16 -24.5 41.5t16.5 58.5 q64 84 177 149.5t255 65.5q101 0 186 -43.5t137.5 -112.5t81.5 -148.5t29 -156.5q0 -44 -8.5 -88t-21 -78.5t-33 -71t-37 -60.5t-41.5 -53t-38 -42.5t-35 -34.5t-25 -24l-394 -385q-5 -4 -2.5 -8.5t9.5 -4.5h608q32 0 53 -20.5t21 -52.5q0 -31 -21 -50.5t-53 -19.5h-799 q-32 0 -53 21t-21 53z" />
<glyph unicode="3" horiz-adv-x="1071" d="M102 1364q0 31 21 50.5t53 19.5h649q32 0 53 -21t21 -53q0 -11 -4 -27q-10 -20 -16 -26l-324 -367q-7 -11 6 -14q104 -21 184.5 -77.5t131.5 -157.5t51 -234q0 -83 -22.5 -155t-61 -123t-87 -90t-103 -62.5t-107 -35t-101.5 -11.5q-186 0 -294 77q-31 22 -33 55.5 t26 59.5q34 31 84 4q88 -53 217 -53q44 0 90 11.5t91 38t79.5 64.5t56 95t21.5 125q0 121 -52 202t-136 112.5t-190 21.5q-30 -3 -53 11.5t-29 43.5q-6 41 20 67l318 363q5 4 2.5 8t-9.5 4h-479q-32 0 -53 21t-21 53z" />
<glyph unicode="4" horiz-adv-x="1318" d="M115 360q-29 40 4 84l737 959q19 26 47 29l17 2q31 0 50 -21t19 -53v-879q0 -10 10 -10h82q32 0 53 -21t21 -53q0 -31 -21 -50t-53 -19h-82q-10 0 -10 -11v-243q0 -32 -21 -53t-53 -21q-31 0 -50 21t-19 53v243q0 11 -10 11h-660q-42 0 -61 32zM328 474.5q2 -3.5 8 -3.5 h500q10 0 10 10v654q0 6 -4 7.5t-8 -3.5l-504 -656q-4 -5 -2 -8.5z" />
<glyph unicode="5" horiz-adv-x="1083" d="M115 856l78 512q3 25 18 42t37 22q6 2 20 2h574q32 0 52.5 -21t20.5 -53q0 -31 -20.5 -50.5t-52.5 -19.5h-506q-9 0 -12 -10l-54 -326q-1 -6 3 -8.5t10 0.5q71 29 147.5 35.5t149.5 -8.5t138.5 -55.5t114.5 -100.5t78 -147.5t29 -192.5q0 -99 -32 -184t-83 -141 t-115.5 -96t-128 -58t-122.5 -18q-187 0 -295 77q-31 22 -32.5 55.5t26.5 59.5q34 31 84 4q88 -53 217 -53q56 0 113.5 23t108.5 65t83.5 112t32.5 154q0 110 -37.5 190t-98 119t-135.5 52t-152 -2t-145 -52q-51 -28 -87.5 0t-26.5 72z" />
<glyph unicode="6" horiz-adv-x="1153" d="M124.5 532q-0.5 57 10.5 122.5t25.5 132t42.5 135t62 132.5t84 123.5t108 108.5t134.5 87.5t162.5 60.5q33 7 58 -10t30 -48q4 -32 -12.5 -54t-47.5 -30q-94 -22 -170.5 -67.5t-129 -107t-87.5 -128t-59 -143.5q-3 -7 0.5 -10t9.5 2q117 73 248 73q124 0 229.5 -63 t166.5 -170t61 -232q0 -94 -36.5 -180.5t-97.5 -149t-145.5 -99.5t-177.5 -37q-188 0 -319 126t-148 320q-2 49 -2.5 106zM281 446q0 -136 91 -229.5t222 -93.5t222 93.5t91 229.5q0 135 -91 228.5t-222 93.5t-222 -93.5t-91 -228.5z" />
<glyph unicode="7" horiz-adv-x="1091" d="M123 1364q0 31 21 50.5t53 19.5h675q14 0 35 -7q28 -12 37.5 -38.5t-2.5 -55.5l-553 -1290q-12 -29 -39.5 -40t-56.5 1q-28 12 -37.5 38.5t2.5 55.5l506 1180q3 12 -8 12h-559q-32 0 -53 21t-21 53z" />
<glyph unicode="8" horiz-adv-x="1128" d="M123 440q0 109 48 202.5t132 154.5q17 13 2 28q-100 103 -100 250q0 151 103.5 255t254.5 104t255 -104t104 -255q0 -144 -101 -250q-15 -15 2 -28q85 -61 134 -155t49 -202q0 -184 -129 -312t-314 -128t-312.5 128t-127.5 312zM256 440q0 -135 90 -221t217 -86 q126 0 217.5 87t91.5 220t-91.5 220.5t-217.5 87.5t-216.5 -86.5t-90.5 -221.5zM338 1075q0 -99 67 -162t158 -63t158 63t67 162q0 101 -66 163t-159 62t-159 -62t-66 -163z" />
<glyph unicode="9" horiz-adv-x="1150" d="M102 987q0 126 61 233.5t166.5 170.5t229.5 63q188 0 319 -126t148 -320q2 -49 2.5 -106t-10.5 -122.5t-25.5 -132t-42.5 -135t-62 -132.5t-84 -123.5t-108 -108.5t-134.5 -87.5t-162.5 -60.5q-33 -7 -58 9.5t-30 47.5q-4 32 12.5 54t47.5 30q94 22 170.5 67.5t129 107.5 t87.5 128.5t59 143.5q3 7 -0.5 10t-9.5 -2q-118 -74 -248 -74q-124 0 -229.5 63t-166.5 170t-61 232zM246 987q0 -135 91 -228t222 -93t222 93t91 228q0 136 -91 230t-222 94t-222 -94t-91 -230z" />
<glyph unicode=":" horiz-adv-x="344" d="M78 84v47q0 37 23.5 60.5t60.5 23.5h20q37 0 60.5 -23.5t23.5 -60.5v-47q0 -37 -23.5 -60.5t-60.5 -23.5h-20q-37 0 -60.5 23.5t-23.5 60.5zM78 928v47q0 37 23.5 60.5t60.5 23.5h20q37 0 60.5 -23.5t23.5 -60.5v-47q0 -37 -23.5 -60.5t-60.5 -23.5h-20q-37 0 -60.5 23.5 t-23.5 60.5z" />
<glyph unicode=";" horiz-adv-x="397" d="M80 -215q-10 29 53 68q78 49 72 137q0 10 -10 10q-28 5 -46 28t-18 56v47q0 37 23.5 60.5t60.5 23.5h21q37 0 60 -23.5t23 -60.5v-100q0 -102 -37 -163.5t-114 -94.5q-32 -11 -57 -7.5t-31 19.5zM131 928v47q0 37 23.5 60.5t60.5 23.5h21q37 0 60 -23.5t23 -60.5v-47 q0 -37 -23 -60.5t-60 -23.5h-21q-37 0 -60.5 23.5t-23.5 60.5z" />
<glyph unicode="&#x3c;" horiz-adv-x="1466" d="M223 721q0 68 74 104l790 392q43 22 70 13.5t27 -42.5v-12q0 -68 -60 -97l-700 -342q-12 -6 -12 -14t12 -14l700 -344q60 -29 60 -97q0 -40 -27 -52.5t-70 9.5l-790 391q-74 36 -74 105z" />
<glyph unicode="=" horiz-adv-x="1298" d="M106 524v4q0 31 20 47.5t54 16.5h938q34 0 54 -16.5t20 -47.5v-4q0 -31 -20 -47t-54 -16h-938q-34 0 -54 16t-20 47zM106 881v4q0 31 20 47t54 16h938q34 0 54 -16t20 -47v-4q0 -31 -20 -47.5t-54 -16.5h-938q-34 0 -54 16.5t-20 47.5z" />
<glyph unicode="&#x3e;" horiz-adv-x="1466" d="M283 268q0 68 59 97l700 344q12 6 12 14t-12 14l-700 342q-59 29 -59 97v12q0 34 26.5 42.5t69.5 -13.5l790 -392q74 -36 74 -104q0 -69 -74 -105l-790 -391q-43 -21 -69.5 -9t-26.5 52z" />
<glyph unicode="?" horiz-adv-x="1024" d="M57.5 1275q-6.5 30 14.5 58q71 82 174.5 132.5t212.5 50.5q137 0 251 -60t181 -168t67 -241q0 -174 -114.5 -291.5t-302.5 -153.5q-11 0 -11 -10v-193q0 -32 -20.5 -52.5t-52.5 -20.5q-31 0 -50.5 20.5t-19.5 52.5v265q0 25 18 46t50 25q174 15 267 94.5t93 217.5 q0 146 -101.5 235.5t-254.5 89.5q-167 0 -273 -125q-41 -48 -92 -20q-30 18 -36.5 48zM387 74v94q0 32 21 53t53 21q31 0 50 -21t19 -53v-94q0 -32 -20.5 -53t-52.5 -21q-31 0 -50.5 21t-19.5 53z" />
<glyph unicode="@" horiz-adv-x="1951" d="M88 561q0 181 70 346t189.5 286t286 193t351.5 72q184 0 350.5 -67t285 -178t188 -259.5t69.5 -306.5q0 -126 -32.5 -222t-89 -152.5t-126.5 -84.5t-151 -28q-56 0 -100 19t-67.5 47.5t-35.5 56t-12 49.5q0 5 -4 5.5t-7 -3.5q-114 -170 -301 -170q-167 0 -286 126.5 t-119 303.5q0 178 119 304t286 126q81 0 160.5 -38.5t120.5 -100.5q3 -4 6.5 -3.5t3.5 5.5v63q0 25 15 39.5t40 14.5t41.5 -15t16.5 -39v-485q0 -80 34 -135.5t107 -55.5q48 0 91.5 18t84.5 58t65.5 116.5t24.5 180.5q0 125 -62 251t-165.5 225.5t-249.5 162t-301 62.5 q-158 0 -303 -65t-249.5 -172.5t-167 -252t-62.5 -297.5q0 -154 62 -297.5t167.5 -250t254.5 -170.5t314 -64q138 0 250.5 29t225.5 90q25 15 51 -27q8 -12 1.5 -36.5t-22.5 -33.5q-233 -133 -506 -133q-129 0 -249.5 32.5t-220.5 90.5t-183 140.5t-140 180.5t-88.5 213 t-31.5 236zM659 594q0 -132 86.5 -225t206.5 -93q119 0 205 93.5t86 224.5t-86 224t-205 93q-120 0 -206.5 -92.5t-86.5 -224.5z" />
<glyph unicode="A" horiz-adv-x="1228" d="M26.5 37q-11.5 26 0.5 55l520 1299q17 48 61 48q5 0 10 -1q48 0 66 -47l518 -1297q12 -29 0 -56.5t-43 -37.5q-28 -11 -54 1.5t-38 41.5l-102 268q-3 8 -13 8h-678q-9 0 -12 -8l-102 -268q-10 -30 -36.5 -42t-57.5 -1q-28 11 -39.5 37zM326 475q-6 -12 8 -12h559 q14 0 8 12l-280 678q-3 6 -7.5 6t-7.5 -6z" />
<glyph unicode="B" horiz-adv-x="1226" d="M184 74v1286q0 32 21 53t53 21h315q109 0 200.5 -46t146.5 -131.5t55 -193.5q0 -153 -107 -260q-8 -8 2 -15q118 -47 188 -145.5t70 -230.5q0 -123 -62 -218t-166 -144.5t-230 -49.5h-412q-32 0 -53 21t-21 53zM328 154q0 -11 10 -11h332q138 0 226.5 70.5t88.5 198.5 q0 127 -89 199.5t-226 72.5h-332q-10 0 -10 -10v-520zM328 838q0 -11 10 -11h235q110 0 184 65.5t74 170.5t-73.5 166t-184.5 61h-235q-10 0 -10 -10v-442z" />
<glyph unicode="C" horiz-adv-x="1343" d="M102 717q0 150 60 286.5t161 235.5t241 157t294 58q225 0 410 -117q29 -18 33 -49t-17 -57q-23 -28 -51 -28q-21 0 -45 16q-150 92 -330 92q-167 0 -308 -80t-222.5 -216.5t-81.5 -297.5t81.5 -298t222.5 -216.5t308 -79.5q180 0 330 92q24 16 45 16q28 0 51 -28 q22 -26 17.5 -57t-33.5 -50q-187 -116 -410 -116q-154 0 -294 58t-241 157t-161 235.5t-60 286.5z" />
<glyph unicode="D" horiz-adv-x="1372" d="M184 74v1286q0 32 21 53t53 21h356q324 0 490 -185.5t166 -531.5t-166 -531.5t-490 -185.5h-356q-32 0 -53 21t-21 53zM330 154q0 -11 10 -11h274q264 0 388 143t124 431t-124 430.5t-388 142.5h-274q-10 0 -10 -10v-1126z" />
<glyph unicode="E" d="M184 74v1286q0 32 20.5 53t51.5 21h727q32 0 53 -20.5t21 -51.5t-21 -51.5t-53 -20.5h-645q-10 0 -10 -10v-563q0 -10 10 -10h557q32 0 53 -20.5t21 -51.5t-21 -51.5t-53 -20.5h-557q-10 0 -10 -10v-399q0 -11 10 -11h645q32 0 53 -20t21 -51t-21 -51.5t-53 -20.5h-727 q-31 0 -51.5 21t-20.5 53z" />
<glyph unicode="F" d="M184 74v1286q0 32 20.5 53t51.5 21h727q32 0 53 -20.5t21 -51.5t-21 -51.5t-53 -20.5h-645q-10 0 -10 -10v-563q0 -10 10 -10h557q32 0 53 -20.5t21 -51.5t-21 -51.5t-53 -20.5h-557q-10 0 -10 -10v-479q0 -32 -20.5 -53t-51.5 -21t-51.5 21t-20.5 53z" />
<glyph unicode="G" horiz-adv-x="1415" d="M102 717q0 150 60 286.5t161 235.5t241 157t294 58q223 0 410 -115q28 -19 33 -48t-15 -54v-2q-19 -24 -46.5 -28t-53.5 14q-146 90 -328 90q-167 0 -308 -79.5t-222.5 -216.5t-81.5 -298t81.5 -297.5t222.5 -216.5t308 -80q189 0 326 88q6 3 6 12v324q0 10 -10 10h-246 q-32 0 -53 20.5t-21 51.5t21 51t53 20h326q32 0 52.5 -20.5t20.5 -52.5v-451q0 -28 -22 -47q-187 -149 -453 -149q-154 0 -294 58t-241 157t-161 235.5t-60 286.5z" />
<glyph unicode="H" horiz-adv-x="1431" d="M184 74v1286q0 32 21 53t53 21q31 0 50.5 -21t19.5 -53v-641q0 -10 10 -10h756q10 0 10 10v641q0 32 20.5 53t51.5 21t51 -21t20 -53v-1286q0 -32 -20.5 -53t-52.5 -21q-31 0 -50.5 21t-19.5 53v481q0 10 -10 10h-756q-10 0 -10 -10v-481q0 -32 -21 -53t-53 -21 q-31 0 -50.5 21t-19.5 53z" />
<glyph unicode="I" horiz-adv-x="512" d="M184 74v1286q0 32 20.5 53t51.5 21t51.5 -21t20.5 -53v-1286q0 -32 -20.5 -53t-51.5 -21t-51.5 21t-20.5 53z" />
<glyph unicode="J" horiz-adv-x="1163" d="M76.5 291q10.5 27 40.5 39q33 12 56.5 1.5t37.5 -38.5q44 -78 121.5 -125t169.5 -47q138 0 236 97.5t98 234.5l-2 905q0 32 20 53t51 21q32 0 52 -20.5t20 -51.5l2 -907q0 -129 -63.5 -238.5t-173.5 -173.5t-240 -64q-134 0 -247.5 70t-174.5 186q-14 31 -3.5 58z" />
<glyph unicode="K" horiz-adv-x="1394" d="M184 74v1286q0 32 20.5 53t51.5 21t51.5 -21t20.5 -53v-762q0 -7 4 -9t8 3l805 821q22 23 50.5 23.5t51.5 -21.5t23 -50.5t-23 -51.5l-495 -504q-6 -6 0 -14l553 -678q20 -25 17 -54t-28 -49t-53.5 -16.5t-48.5 29.5l-541 665q-6 6 -14 0l-303 -309q-6 -6 -6 -12v-297 q0 -32 -20.5 -53t-51.5 -21t-51.5 21t-20.5 53z" />
<glyph unicode="L" horiz-adv-x="1077" d="M184 74v1286q0 32 20.5 53t51.5 21t51.5 -21t20.5 -53v-1206q0 -11 10 -11h635q32 0 53 -20t21 -51t-21 -51.5t-53 -20.5h-717q-31 0 -51.5 21t-20.5 53z" />
<glyph unicode="M" horiz-adv-x="1732" d="M184 74v1286q0 31 19.5 51.5t48.5 22.5h6q37 0 61 -33l549 -756q8 -11 15 0l530 756q24 33 62 33h6q30 -1 48.5 -22t18.5 -52v-1286q0 -32 -19 -53t-50 -21q-32 0 -53 21t-21 53v1052q0 8 -3.5 9t-8.5 -5l-455 -645q-22 -32 -61 -32q-40 0 -62 32l-475 648q-4 4 -8 2.5 t-4 -7.5v-1054q0 -32 -21 -53t-53 -21q-31 0 -50.5 21t-19.5 53z" />
<glyph unicode="N" horiz-adv-x="1523" d="M184 74v1286q0 32 21 53t53 21q30 0 49 -19q8 -8 12 -14l865 -1106q3 -4 6 -5t4.5 1.5t1.5 7.5v1061q0 32 21 53t53 21q31 0 50 -21t19 -53v-1286q0 -32 -20.5 -53t-52.5 -21q-31 0 -49 18q-9 9 -13 15l-864 1106q-3 4 -6 5t-4.5 -1.5t-1.5 -7.5v-1061q0 -32 -21 -53 t-53 -21q-31 0 -50.5 21t-19.5 53z" />
<glyph unicode="O" horiz-adv-x="1593" d="M102 717q0 150 55 286.5t148.5 235.5t222 157t269.5 58q188 0 348 -98.5t253 -268t93 -370.5t-93 -370.5t-253 -268t-348 -98.5q-141 0 -269.5 58t-222 157t-148.5 235.5t-55 286.5zM246 717q0 -162 74.5 -299t201.5 -216t275 -79t275 79t201.5 216t74.5 299t-74.5 299 t-201.5 216t-275 79t-275 -79t-201.5 -216t-74.5 -299z" />
<glyph unicode="P" horiz-adv-x="1218" d="M184 74v1286q0 32 21 53t53 21h502q165 0 276 -121.5t111 -317.5q0 -194 -111 -315t-276 -121h-422q-10 0 -10 -10v-475q0 -32 -21 -53t-53 -21q-31 0 -50.5 21t-19.5 53zM328 713q0 -11 10 -11h422q105 0 174.5 79.5t69.5 213.5q0 136 -69.5 215.5t-174.5 79.5h-422 q-10 0 -10 -10v-567z" />
<glyph unicode="Q" horiz-adv-x="1585" d="M102 717q0 150 55 286.5t148.5 235.5t222 157t269.5 58q188 0 348 -98.5t253 -268t93 -370.5q0 -218 -109.5 -398.5t-289.5 -269.5l-236 -115q-7 -5 -6.5 -8.5t8.5 -5.5q57 -15 105.5 -41t76.5 -46.5t78.5 -36t118.5 -15.5q93 0 179 41t147 98q25 24 51 24q21 0 43 -16 q28 -21 31 -51.5t-23 -54.5q-79 -75 -192.5 -129.5t-235.5 -54.5q-68 0 -142.5 21.5t-126 47.5t-103 51.5t-74.5 30.5q-43 9 -88 9q-98 0 -203 -42q-29 -11 -56.5 -1.5t-40.5 36.5q-14 28 -5 55.5t38 42.5l217 107q-237 53 -394 255t-157 466zM246 717q0 -162 74.5 -299 t201.5 -216t275 -79t275 79t201.5 216t74.5 299t-74.5 299t-201.5 216t-275 79t-275 -79t-201.5 -216t-74.5 -299z" />
<glyph unicode="R" horiz-adv-x="1296" d="M184 74v1286q0 32 21 53t53 21h502q164 0 275.5 -118t111.5 -300q0 -122 -54 -218.5t-145 -148.5q-8 -6 0 -14q152 -101 152 -246q0 -121 12.5 -170t56.5 -80q26 -17 38.5 -42t2.5 -52q-12 -33 -46 -43q-11 -3 -22 -3q-21 0 -40 13q-84 56 -115 151t-31 238 q0 92 -73.5 145.5t-167.5 53.5h-377q-10 0 -10 -10v-516q0 -32 -21 -53t-53 -21q-31 0 -50.5 21t-19.5 53zM328 754q0 -11 10 -11h422q103 0 173.5 76t70.5 197q0 122 -70 198t-174 76h-422q-10 0 -10 -10v-526z" />
<glyph unicode="S" horiz-adv-x="1253" d="M91.5 249.5q1.5 26.5 25.5 45.5q26 19 52.5 16.5t47.5 -22.5q81 -74 175 -119t224 -45q113 0 201 25t144.5 84t56.5 145q0 106 -79.5 168t-276.5 119q-26 8 -75.5 22t-79 22t-75.5 23.5t-75 27.5t-67.5 31.5t-62 38.5t-49.5 45t-40.5 54.5t-24 65t-9.5 77.5 q0 76 30 140.5t79 108t112 74t128.5 44.5t128.5 14q144 0 248.5 -43t207.5 -117q27 -19 33 -48.5t-14 -57.5q-17 -23 -44.5 -27t-49.5 13q-84 65 -169 101t-212 36q-82 0 -156 -25.5t-126 -81.5t-52 -131q0 -24 6.5 -44.5t15.5 -37.5t28 -32.5t35 -27.5t45.5 -24.5t51.5 -21 t61 -20.5t64.5 -19t72 -20t74.5 -21q84 -25 145.5 -48.5t124 -59.5t101.5 -78.5t63.5 -103.5t24.5 -136q0 -85 -32 -154t-85 -113.5t-125 -74.5t-147 -42.5t-156 -12.5q-152 0 -300.5 67t-202.5 144q-23 30 -21.5 56.5z" />
<glyph unicode="T" horiz-adv-x="1153" d="M61 1364q0 31 21 50.5t53 19.5h883q32 0 53 -20.5t21 -51.5t-21 -51.5t-53 -20.5h-359q-10 0 -10 -10v-1206q0 -32 -21 -53t-53 -21q-31 0 -50 21t-19 53v1206q0 10 -10 10h-361q-32 0 -53 21t-21 53z" />
<glyph unicode="U" horiz-adv-x="1482" d="M164 555v805q0 32 21 53t53 21q31 0 50 -21t19 -53v-805q0 -180 127 -306t307 -126t307.5 126t127.5 306v805q0 32 20 53t51 21t51.5 -21t20.5 -53v-805q0 -156 -77.5 -288.5t-210.5 -209.5t-290 -77q-117 0 -224 45.5t-184.5 122.5t-123 183.5t-45.5 223.5z" />
<glyph unicode="V" horiz-adv-x="1372" d="M46 1390q11 28 40 40q28 12 55 1t39 -40l500 -1129q2 -6 6 -6t6 6l500 1129q12 29 39 40t55 -1q29 -12 40 -40t-1 -57l-571 -1288q-9 -22 -27.5 -34t-40.5 -11q-22 -1 -40.5 11t-27.5 34l-571 1288q-12 29 -1 57z" />
<glyph unicode="W" horiz-adv-x="1912" d="M45 1339q-11 31 2.5 57.5t44.5 35.5q29 9 53 -5t35 -45l367 -1099q1 -5 3 -7t4.5 -0.5t4.5 5.5l326 780q22 51 71 51q53 0 72 -51l324 -778q2 -5 5 -6.5t5.5 0t3.5 6.5l367 1099q11 31 35 45t53 5q31 -9 44.5 -35.5t2.5 -57.5l-428 -1288q-18 -53 -70 -53h-6 q-52 0 -70 51l-331 793q-1 6 -6 6t-7 -6l-332 -793q-21 -51 -70 -51h-5q-52 0 -70 53z" />
<glyph unicode="X" horiz-adv-x="1198" d="M40.5 57q-4.5 28 14.5 54l449 600q5 8 0 16l-447 596q-19 25 -14 53t31 47q25 19 52.5 13.5t47.5 -31.5l418 -557q8 -8 16 0l418 559q19 26 47.5 30.5t54.5 -14.5q25 -19 29 -46t-16 -54l-447 -598q-5 -8 0 -16l447 -598q19 -25 14 -53.5t-31 -47.5q-25 -18 -52.5 -13 t-47.5 32l-416 559q-8 8 -16 0l-420 -561q-19 -26 -47.5 -31t-54.5 14q-25 19 -29.5 47z" />
<glyph unicode="Y" horiz-adv-x="1216" d="M41.5 1374q4.5 28 28.5 47q25 19 53 14.5t47 -30.5l430 -608q8 -8 16 0l431 608q19 26 47 30.5t53 -14.5q24 -18 28 -47t-14 -53l-477 -674q-4 -8 -4 -12v-561q0 -32 -20.5 -53t-51.5 -21t-51 21t-20 53v561q0 2 -5 12l-477 674q-18 25 -13.5 53z" />
<glyph unicode="Z" horiz-adv-x="1312" d="M82 63q-4 26 14 50l905 1165q3 4 1.5 8t-7.5 4h-759q-32 0 -53 21t-21 53q0 31 21 50.5t53 19.5h915q17 0 23 -2q40 -6 53 -46q4 -12 4 -24q0 -23 -17 -45l-903 -1161q-3 -4 -1.5 -8.5t7.5 -4.5h820q32 0 52.5 -20.5t20.5 -52.5q0 -31 -20.5 -50.5t-52.5 -19.5h-975 q-28 -3 -53 16q-23 21 -27 47z" />
<glyph unicode="[" horiz-adv-x="811" d="M135 -203v1696q0 28 18 45.5t46 17.5h458q28 0 46 -17.5t18 -45.5q0 -26 -18 -42.5t-46 -16.5h-352q-20 0 -20 -21v-1536q0 -20 20 -20h352q28 0 46 -18t18 -46q0 -26 -18 -42.5t-46 -16.5h-458q-28 0 -46 17.5t-18 45.5z" />
<glyph unicode="\" horiz-adv-x="1015" d="M11 1621.5q10 16.5 40 16.5h37q42 0 59 -36l902 -1799q13 -28 3 -44.5t-40 -16.5h-37q-42 0 -60 37l-901 1798q-13 28 -3 44.5z" />
<glyph unicode="]" horiz-adv-x="808" d="M88 -207q0 28 18 46t46 18h352q20 0 20 20v1536q0 21 -20 21h-352q-28 0 -46 16.5t-18 42.5q0 28 18 45.5t46 17.5h458q28 0 46 -17.5t18 -45.5v-1696q0 -28 -18 -45.5t-46 -17.5h-458q-28 0 -46 16.5t-18 42.5z" />
<glyph unicode="^" horiz-adv-x="876" d="M51.5 897q-5.5 24 7.5 47l324 580q16 32 51 32q28 3 51 -20l11 -16l321 -576q13 -23 6.5 -47.5t-30.5 -36.5q-23 -13 -46.5 -5.5t-35.5 32.5l-265 475q-7 10 -14 0l-266 -477q-13 -24 -37 -30.5t-49 5.5q-23 13 -28.5 37z" />
<glyph unicode="_" horiz-adv-x="1318" d="M41 -262q0 28 17.5 45.5t45.5 17.5h1110q28 0 46 -17.5t18 -45.5v-2q0 -28 -18 -46t-46 -18h-1110q-28 0 -45.5 18t-17.5 46v2z" />
<glyph unicode="`" horiz-adv-x="563" d="M47 1444.5q4 22.5 35 36.5l43 20q52 25 82 -22l115 -176q22 -31 12 -52.5t-45 -21.5q-44 0 -78 31l-143 137q-25 25 -21 47.5z" />
<glyph unicode="a" horiz-adv-x="1286" d="M92 526q0 149 69 275.5t188 200t259 73.5q106 0 207 -48.5t152 -129.5q3 -4 6 -5t4.5 1.5t1.5 7.5v80q0 32 20.5 53t51.5 21t51 -21t20 -53v-907q0 -32 -20.5 -53t-52.5 -21q-31 0 -50.5 21t-19.5 53v80q0 8 -3.5 9t-8.5 -5q-51 -81 -152 -129.5t-207 -48.5 q-140 0 -259 73t-188 199t-69 274zM236 526q0 -168 109.5 -285.5t262.5 -117.5t262 117.5t109 285.5q0 169 -109 287.5t-262 118.5t-262.5 -118.5t-109.5 -287.5z" />
<glyph unicode="b" horiz-adv-x="1286" d="M164 74v1368q0 32 20.5 53t51.5 21t51 -21t20 -53v-541q0 -7 3.5 -8.5t8.5 4.5q51 81 152 129.5t207 48.5q140 0 259 -73.5t188 -200t69 -275.5q0 -148 -69 -274t-188 -199t-259 -73q-106 0 -207 48.5t-152 129.5q-5 6 -8.5 5t-3.5 -9v-80q0 -32 -19 -53t-50 -21 q-32 0 -53 21t-21 53zM307 526q0 -168 109 -285.5t262 -117.5t263 117.5t110 285.5q0 169 -110 287.5t-263 118.5t-262 -118.5t-109 -287.5z" />
<glyph unicode="c" horiz-adv-x="1038" d="M92 526q0 149 75.5 275.5t205 200t282.5 73.5q157 0 287 -76q29 -17 33.5 -47.5t-17.5 -58.5q-20 -27 -49 -27q-20 0 -45 13q-92 53 -209 53q-174 0 -296.5 -119t-122.5 -287q0 -166 122.5 -284.5t296.5 -118.5q117 0 209 53q23 12 44 12q31 0 53 -28q21 -26 15.5 -57 t-34.5 -48q-129 -75 -287 -75q-153 0 -282.5 73t-205 199t-75.5 274z" />
<glyph unicode="d" horiz-adv-x="1286" d="M92 526q0 149 69 275.5t188 200t259 73.5q106 0 207 -48.5t152 -129.5q3 -4 6 -5t4.5 1.5t1.5 7.5v541q0 32 20.5 53t51.5 21t51 -21t20 -53v-1368q0 -32 -20.5 -53t-52.5 -21q-31 0 -50.5 21t-19.5 53v80q0 8 -3.5 9t-8.5 -5q-51 -81 -152 -129.5t-207 -48.5 q-140 0 -259 73t-188 199t-69 274zM236 526q0 -168 109.5 -285.5t262.5 -117.5t262 117.5t109 285.5q0 169 -109 287.5t-262 118.5t-262.5 -118.5t-109.5 -287.5z" />
<glyph unicode="e" horiz-adv-x="1239" d="M92 526q0 149 70.5 275.5t192.5 200t266 73.5q106 0 203 -39.5t168 -106t113 -158.5t42 -193v-33q0 -31 -21 -52.5t-53 -21.5h-823q-11 0 -8 -10q22 -147 133 -242.5t266 -95.5q162 0 291 100q24 20 47.5 19.5t46.5 -19.5q18 -14 21.5 -41.5t-13.5 -48.5 q-56 -64 -158.5 -108.5t-234.5 -44.5q-153 0 -279.5 73.5t-198 198.5t-71.5 274zM246 627q-3 -13 10 -13h729q13 0 10 13q-32 133 -136.5 219t-237.5 86t-238 -86t-137 -219z" />
<glyph unicode="f" horiz-adv-x="667" d="M51 983q0 29 17.5 50.5t54.5 21.5h82q14 0 14 14v131q0 81 31.5 145t80.5 99.5t100.5 53.5t100.5 18q42 0 68.5 -21t26.5 -59v-2q0 -15 -5.5 -26t-12 -16.5t-21 -9.5t-22.5 -5t-28 -2t-26 -1q-71 -6 -110.5 -62.5t-39.5 -152.5v-90q0 -14 15 -14h170q36 0 53.5 -21.5 t17.5 -50.5t-17.5 -50.5t-53.5 -21.5h-170q-15 0 -15 -14v-825q0 -29 -17.5 -50.5t-53.5 -21.5q-37 0 -54.5 21.5t-17.5 50.5v825q0 14 -14 14h-82q-37 0 -54.5 21.5t-17.5 50.5z" />
<glyph unicode="g" horiz-adv-x="1286" d="M92 528q0 148 69 274t188 199.5t259 73.5q106 0 207 -48.5t152 -129.5q3 -4 6 -5t4.5 1.5t1.5 7.5v80q0 32 19.5 53t50.5 21q32 0 52.5 -21t20.5 -53v-973q0 -106 -44 -192t-114.5 -138.5t-153.5 -80t-167 -27.5q-106 0 -206 32.5t-154 80.5q-17 15 -22.5 41t9.5 51 q16 23 43 29t54 -13q105 -78 276 -78q44 0 88.5 9t89.5 31.5t79.5 55t56.5 84t22 115.5v146q0 8 -3.5 9t-8.5 -5q-51 -81 -152 -129.5t-207 -48.5q-140 0 -259 73.5t-188 199.5t-69 275zM236 528q0 -169 109.5 -287t262.5 -118t262 118t109 287q0 168 -109 286t-262 118 t-262.5 -118t-109.5 -286z" />
<glyph unicode="h" d="M164 74v1368q0 32 21 53t53 21q31 0 50 -21t19 -53v-522q0 -8 3.5 -9.5t6.5 4.5q39 56 125.5 108t188.5 52q173 0 279 -122t106 -304v-575q0 -32 -21 -53t-53 -21q-31 0 -50.5 21t-19.5 53v575q0 120 -73.5 201.5t-188.5 81.5q-120 0 -211.5 -83t-91.5 -200v-575 q0 -32 -21 -53t-53 -21q-31 0 -50 21t-19 53z" />
<glyph unicode="i" horiz-adv-x="471" d="M164 74v907q0 32 20.5 53t51.5 21t51 -21t20 -53v-907q0 -32 -20 -53t-51 -21t-51.5 21t-20.5 53zM164 1348v94q0 32 20.5 53t51.5 21t51 -21t20 -53v-94q0 -32 -20 -53t-51 -21t-51.5 21t-20.5 53z" />
<glyph unicode="j" horiz-adv-x="466" d="M-31 -336q0 30 19 48.5t49 23.5q23 3 36 6t32 11.5t29 22t18 38.5t8 59v1108q0 32 20 53t51 21t51.5 -21t20.5 -53v-1108q0 -79 -22 -135.5t-61 -86t-81 -43.5t-94 -18q-32 -1 -54 19t-22 51v4zM160 1348v94q0 32 20 53t51 21t51.5 -21t20.5 -53v-94q0 -32 -20.5 -53 t-51.5 -21t-51 21t-20 53z" />
<glyph unicode="k" horiz-adv-x="1054" d="M164 74v1368q0 32 21 53t53 21q31 0 50 -21t19 -53v-912q0 -6 3.5 -8t8.5 2l594 531q25 22 54 20.5t49 -24.5t18.5 -52t-24.5 -51l-412 -368q-6 -6 0 -15l414 -444q22 -23 20.5 -52t-24.5 -51q-24 -21 -52.5 -19t-50.5 26l-416 446q-6 6 -14 0l-162 -141q-6 -6 -6 -13 v-243q0 -32 -21 -53t-53 -21q-31 0 -50 21t-19 53z" />
<glyph unicode="l" horiz-adv-x="471" d="M164 74v1368q0 32 21 53t53 21q31 0 50 -21t19 -53v-1368q0 -32 -21 -53t-53 -21q-31 0 -50 21t-19 53z" />
<glyph unicode="m" horiz-adv-x="1867" d="M164 74v907q0 32 21 53t53 21q31 0 50 -21t19 -53v-61q0 -8 3.5 -9.5t6.5 4.5q39 56 125.5 108t188.5 52q109 0 192.5 -50.5t134.5 -139.5q6 -11 15 -2q62 88 154.5 140t201.5 52q174 0 284.5 -123t110.5 -303v-575q0 -32 -20 -53t-51 -21t-51.5 21t-20.5 53v575 q0 120 -69 201.5t-183 81.5q-137 0 -225 -82t-88 -201v-575q0 -32 -20 -53t-52 -21h-2q-31 0 -50.5 21t-19.5 53v575q0 120 -73.5 201.5t-188.5 81.5q-120 0 -211.5 -83t-91.5 -200v-575q0 -32 -21 -53t-53 -21q-31 0 -50 21t-19 53z" />
<glyph unicode="n" d="M164 74v907q0 32 21 53t53 21q31 0 50 -21t19 -53v-61q0 -8 3.5 -9.5t6.5 4.5q39 56 125.5 108t188.5 52q173 0 279 -122t106 -304v-575q0 -32 -21 -53t-53 -21q-31 0 -50.5 21t-19.5 53v575q0 120 -73.5 201.5t-188.5 81.5q-120 0 -211.5 -83t-91.5 -200v-575 q0 -32 -21 -53t-53 -21q-31 0 -50 21t-19 53z" />
<glyph unicode="o" horiz-adv-x="1193" d="M82 526q0 149 68.5 275.5t187 200t258.5 73.5t259 -73.5t188 -200t69 -275.5q0 -112 -41 -213t-110 -174t-164.5 -116t-200.5 -43q-140 0 -258.5 73t-187 198.5t-68.5 274.5zM225 526q0 -168 109 -285.5t262 -117.5t263 117.5t110 285.5t-110 287t-263 119t-262 -119 t-109 -287z" />
<glyph unicode="p" horiz-adv-x="1286" d="M164 -336v1317q0 32 21 53t53 21q31 0 50 -21t19 -53v-80q0 -7 3.5 -8.5t8.5 4.5q51 81 152 129.5t207 48.5q140 0 259 -73.5t188 -199.5t69 -274q0 -149 -69 -275t-188 -199.5t-259 -73.5q-106 0 -207 48.5t-152 129.5q-5 6 -8.5 5t-3.5 -9v-490q0 -32 -20 -53t-51 -21 t-51.5 21t-20.5 53zM307 528q0 -169 109 -287t262 -118t263 118t110 287q0 168 -110 286t-263 118t-262 -118t-109 -286z" />
<glyph unicode="q" horiz-adv-x="1286" d="M92 528q0 148 69 274t188 199.5t259 73.5q106 0 207 -48.5t152 -129.5q3 -4 6 -5t4.5 1.5t1.5 7.5v80q0 32 19.5 53t50.5 21q32 0 52.5 -21t20.5 -53v-1317q0 -32 -20 -53t-51 -21t-51.5 21t-20.5 53v490q0 8 -3.5 9t-8.5 -5q-51 -81 -152 -129.5t-207 -48.5 q-140 0 -259 73.5t-188 199.5t-69 275zM236 528q0 -169 109.5 -287t262.5 -118t262 118t109 287q0 168 -109 286t-262 118t-262.5 -118t-109.5 -286z" />
<glyph unicode="r" horiz-adv-x="768" d="M164 74v907q0 32 20.5 53t51.5 21t51 -20.5t20 -51.5v-104q0 -15 6.5 -18t18.5 11q150 186 327 203h13q33 0 54 -13q26 -16 26 -52q0 -56 -76 -76q-93 -25 -162 -58.5t-107.5 -66.5t-62 -72.5t-30.5 -70.5t-7 -66v-526q0 -32 -20 -53t-51 -21t-51.5 21t-20.5 53z" />
<glyph unicode="s" horiz-adv-x="933" d="M72 774q0 121 103.5 211t256.5 90q176 0 297 -90q27 -19 29.5 -48.5t-15.5 -51.5q-15 -22 -43 -27t-55 12q-32 20 -54.5 31t-66.5 23t-92 12q-94 0 -155.5 -51t-61.5 -111q0 -57 58 -98t223 -84q188 -51 267 -124t79 -192q0 -126 -108.5 -211t-284.5 -85 q-110 0 -202.5 40t-148.5 99q-28 30 -28 57.5t28 52.5q21 18 45 18t45 -18q116 -112 261 -112q113 0 184.5 48t71.5 118q0 118 -246 182q-216 58 -301.5 124.5t-85.5 184.5z" />
<glyph unicode="t" horiz-adv-x="608" d="M20 983q0 31 21 51.5t53 20.5h125q10 0 10 10v195q0 33 21 52t51 19t51 -19t21 -52v-195q0 -10 10 -10h121q32 0 53 -20.5t21 -51.5t-21 -51.5t-53 -20.5h-121q-10 0 -10 -10v-625q0 -61 17 -94q15 -29 53 -29q6 0 12 1q7 1 14 1q30 1 49 -15q25 -20 25 -58t-33 -60 q-34 -22 -88 -22q-85 0 -139 48.5t-54 160.5v692q0 10 -10 10h-125q-32 0 -53 20.5t-21 51.5z" />
<glyph unicode="u" d="M143 406v575q0 32 21 53t53 21q31 0 50.5 -21t19.5 -53v-575q0 -117 82.5 -200t199.5 -83t200 83t83 200v575q0 32 20.5 53t51.5 21t51 -21t20 -53v-575q0 -177 -124.5 -301.5t-301.5 -124.5t-301.5 124.5t-124.5 301.5z" />
<glyph unicode="v" horiz-adv-x="1058" d="M77 1011q11 28 40 40q28 12 54 1t38 -40l315 -742q2 -6 7 -6t6 6l313 742q12 29 38 40t54 -1q29 -12 40 -40t-1 -57l-385 -911q-18 -45 -61 -45h-5h-6q-44 0 -61 45l-385 911q-12 29 -1 57z" />
<glyph unicode="w" horiz-adv-x="1572" d="M76 961q-11 31 1.5 57.5t43.5 36.5q28 11 54 -2t36 -43l258 -734q1 -6 6 -6t6 6l238 558q19 45 67 45q49 0 68 -45l236 -558q2 -4 5 -5t5.5 1t3.5 7l258 731q10 30 36 43t54 2q31 -10 43.5 -36.5t1.5 -57.5l-321 -914q-15 -42 -56 -49q-27 -6 -50.5 5.5t-33.5 37.5 l-243 571q-1 6 -6 6t-7 -6l-243 -571q-10 -26 -33.5 -37.5t-50.5 -5.5q-42 7 -56 49z" />
<glyph unicode="x" horiz-adv-x="1056" d="M73 61.5q-5 30.5 15 53.5l342 405q6 9 0 15l-342 405q-20 23 -15 53t31 49q25 18 52 13.5t49 -29.5l315 -367q8 -9 17 0l315 367q22 25 48.5 29.5t51.5 -13.5q27 -19 32 -49t-15 -53l-344 -405q-6 -6 0 -15l344 -405q20 -23 14.5 -53.5t-31.5 -49.5q-25 -18 -51.5 -13 t-48.5 30l-315 368q-9 9 -17 0l-315 -368q-22 -25 -49 -30t-52 13q-26 19 -31 49.5z" />
<glyph unicode="y" d="M143 406v575q0 32 21 53t53 21q31 0 50.5 -21t19.5 -53v-575q0 -117 82.5 -200t199.5 -83t200 83t83 200v575q0 32 20.5 53t51.5 21t51 -21t20 -53v-973q0 -85 -28.5 -158.5t-75.5 -123.5t-107.5 -86t-123 -53t-123.5 -17q-91 0 -178.5 32t-141.5 81q-17 15 -22 41t10 51 q16 23 42.5 29t53.5 -13q105 -78 236 -78q38 0 78.5 9t83.5 31.5t76.5 55t55 84.5t21.5 115v62q0 7 -4 9t-8 -3q-120 -96 -271 -96q-177 0 -301.5 124.5t-124.5 301.5z" />
<glyph unicode="z" horiz-adv-x="1028" d="M74 74q0 22 10 39l8 10l645 776q3 5 1.5 8.5t-7.5 3.5h-520q-32 0 -53 21t-21 53q0 31 21 50.5t53 19.5h684q13 0 29 -4q14 -7 22 -15q25 -20 26.5 -48.5t-18.5 -53.5l-645 -778q-5 -4 -3.5 -8.5t7.5 -4.5h555q32 0 53 -20.5t21 -52.5q0 -31 -21 -50.5t-53 -19.5h-721 q-32 0 -52.5 21t-20.5 53z" />
<glyph unicode="{" horiz-adv-x="897" d="M55 651q0 26 15.5 43t38.5 17q133 0 187 60t54 185l-2 156q0 65 9.5 119t35 109.5t67.5 98.5t110.5 79t160.5 57q28 6 48 -5t26 -34t-7.5 -42.5t-39.5 -27.5q-68 -20 -116 -50t-75.5 -62.5t-43.5 -77.5t-20.5 -86t-4.5 -98l2 -154q0 -115 -46.5 -180t-138.5 -99 q-12 -5 -12 -10t12 -10q94 -35 139.5 -99.5t45.5 -179.5l-2 -153q0 -57 4.5 -98.5t20.5 -86.5t43.5 -77.5t75.5 -62.5t116 -50q26 -7 38.5 -28t6.5 -46q-5 -20 -25.5 -30t-48.5 -4q-91 21 -159.5 57t-110 78.5t-67 98t-35 109.5t-9.5 119l2 156q0 126 -54 186t-187 60 q-23 0 -38.5 17.5t-15.5 45.5z" />
<glyph unicode="|" horiz-adv-x="460" d="M164 -342v1872q0 29 19 48t48 19t47.5 -19t18.5 -48v-1872q0 -29 -19.5 -48.5t-48.5 -19.5t-47 19t-18 49z" />
<glyph unicode="}" horiz-adv-x="894" d="M90 1536q6 23 26 34t48 5q92 -21 160.5 -57t110.5 -79t67.5 -98.5t35 -109.5t9.5 -119l-2 -156q0 -125 54 -185t187 -60q23 0 38.5 -17t15.5 -43q0 -28 -15.5 -45.5t-38.5 -17.5q-133 0 -187 -60t-54 -186l2 -156q0 -65 -9.5 -119t-35 -109.5t-67 -98t-110 -78.5 t-159.5 -57q-28 -6 -48.5 4t-25.5 30q-6 25 6.5 46t38.5 28q68 20 116 50t75.5 62.5t43.5 77.5t20.5 86.5t4.5 98.5l-2 153q0 115 45.5 179.5t139.5 99.5q12 5 12 10t-12 10q-92 34 -138.5 99t-46.5 180l2 154q0 57 -4.5 98t-20.5 86t-43.5 77.5t-75.5 62.5t-116 50 q-26 8 -39.5 27.5t-7.5 42.5z" />
<glyph unicode="~" horiz-adv-x="1202" d="M117 551q-37 37 2 78q113 139 248 139q36 0 77 -10.5t68 -21t94 -38.5q82 -36 132.5 -51.5t99.5 -15.5q91 0 172 61q46 37 86 -2q26 -26 -11 -69q-114 -140 -247 -140q-36 0 -77 10t-69 21t-94 39q-82 36 -132 51.5t-99 15.5q-89 0 -172 -63q-47 -35 -78 -4z" />
<glyph unicode="&#xa1;" horiz-adv-x="374" d="M94 1284v88q0 28 18 46t46 18h61q28 0 46 -18t18 -46v-88q0 -28 -18 -45.5t-46 -17.5h-61q-28 0 -46 17.5t-18 45.5zM96 59v60l45 852q0 59 47 59q45 0 48 -57l45 -854v-53q0 -28 -18 -46t-46 -18h-57q-28 0 -46 16t-18 41z" />
<glyph unicode="&#xa2;" horiz-adv-x="1038" d="M92 526q0 204 135 357t338 186q10 0 10 10v117q0 28 16.5 46t41.5 18t40 -18t15 -46v-113q0 -10 10 -10q136 -9 244 -74q29 -17 33.5 -47.5t-17.5 -58.5q-33 -45 -94 -14q-70 42 -166 51q-10 0 -10 -10v-785q0 -10 10 -10q96 9 166 51q59 31 97 -16q21 -26 15.5 -57 t-34.5 -48q-107 -64 -244 -73q-10 0 -10 -11v-112q0 -28 -16 -46t-39 -18q-25 0 -41.5 18t-16.5 46v116q0 11 -10 11q-203 33 -338 185.5t-135 354.5zM236 526q0 -144 93 -254t236 -139q10 -3 10 8v772q0 12 -12 9q-142 -29 -234.5 -140.5t-92.5 -255.5z" />
<glyph unicode="&#xa3;" horiz-adv-x="1150" d="M57 47v8q0 41 37 47l127 33q8 3 8 10v449q0 10 -10 10h-98q-28 0 -46 18t-18 46v14q0 28 18 45.5t46 17.5h98q10 0 10 11v211q0 221 120.5 354t332.5 133q232 0 381 -156q26 -27 24.5 -59.5t-28.5 -54.5l-2 -2q-28 -21 -58 -18t-55 28q-54 56 -116.5 84.5t-147.5 28.5 q-137 0 -213 -90.5t-76 -247.5v-211q0 -11 10 -11h498q28 0 46 -17.5t18 -45.5v-14q0 -28 -18 -46t-46 -18h-498q-10 0 -10 -10v-440q0 -11 10 -11h654q28 0 45.5 -17.5t17.5 -45.5v-17q0 -28 -17.5 -45.5t-45.5 -17.5h-946q-22 0 -37 13.5t-15 33.5z" />
<glyph unicode="&#xa5;" horiz-adv-x="1230" d="M51.5 1340q5.5 33 34.5 55q29 20 61 14.5t54 -33.5l399 -545q6 -9 14.5 -9t14.5 9l397 543q22 29 55 35t62 -14q29 -22 33.5 -54.5t-17.5 -60.5l-387 -528q-5 -8 -2 -13.5t12 -5.5h244q27 0 45.5 -19.5t18.5 -47.5q0 -27 -18.5 -45.5t-45.5 -18.5h-315q-15 0 -15 -14 v-189q0 -14 15 -14h315q27 0 45.5 -20t18.5 -48q0 -27 -18 -45t-46 -18h-315q-15 0 -15 -14v-156q0 -37 -23.5 -60.5t-58.5 -23.5t-58.5 23.5t-23.5 60.5v156q0 14 -14 14h-317q-27 0 -45.5 20t-18.5 48q0 26 18.5 44.5t45.5 18.5h317q14 0 14 14v189q0 14 -14 14h-317 q-27 0 -45.5 20t-18.5 48q0 26 18.5 44.5t45.5 18.5h243q9 0 12 5.5t-3 13.5l-385 526q-22 29 -16.5 62z" />
<glyph unicode="&#xa7;" horiz-adv-x="1335" d="M77 -104q-6 30 13 55q15 27 47.5 30.5t67.5 -14.5q230 -112 438 -112q70 0 133 10.5t117 33t85.5 62t31.5 92.5q0 27 -10.5 49.5t-26.5 40t-47.5 34t-60.5 28t-80 25t-90.5 22.5t-106.5 24q-83 18 -136.5 31.5t-117 33.5t-102 42.5t-73.5 53t-51 70.5t-16 89 q0 97 59.5 173t174.5 118q6 1 6 5t-6 7q-156 76 -156 221q0 148 133.5 241t384.5 93q253 0 414 -102q32 -19 34.5 -52t-18.5 -49q-34 -39 -114 -6q-3 1 -21 8.5t-27 11.5t-31 11.5t-38 12t-41.5 10.5t-48 9.5t-51.5 6t-58 2.5q-181 0 -267.5 -51t-86.5 -129q0 -40 33 -73.5 t92.5 -58.5t116.5 -42t131 -33q60 -14 90.5 -21t86 -21.5t85.5 -25t75 -28.5t70 -35t55 -41.5t45.5 -50t26 -59t10.5 -70.5q0 -196 -221 -285q-13 -7 -2 -14q146 -85 146 -226q0 -88 -48 -156t-127 -107t-169.5 -58t-186.5 -19q-159 0 -298 34t-234 99q-28 20 -34 50z M256 612q0 -31 23.5 -59.5t58.5 -49t88 -39.5t99 -31t104 -25l57 -13q114 -20 203 -4t143.5 66.5t54.5 120.5q0 72 -67.5 113.5t-212.5 76.5l-27 6l-8 2q-82 19 -162 19q-181 0 -267.5 -52.5t-86.5 -130.5z" />
<glyph unicode="&#xa8;" horiz-adv-x="831" d="M143 1327q0 41 26.5 68.5t66.5 27.5t66 -27.5t26 -68.5q0 -43 -26 -70.5t-66 -27.5t-66.5 27.5t-26.5 70.5zM504 1327q0 41 26 68.5t66 27.5t66 -27.5t26 -68.5q0 -43 -26 -70.5t-66 -27.5t-66 27.5t-26 70.5z" />
<glyph unicode="&#xa9;" horiz-adv-x="1638" d="M82 717q0 200 98.5 369.5t268 268.5t370.5 99q200 0 369.5 -99t268.5 -268.5t99 -369.5q0 -201 -99 -370.5t-268.5 -268t-369.5 -98.5q-150 0 -286.5 58t-235.5 157t-157 235.5t-58 286.5zM207 717q0 -166 82 -307.5t223 -223.5t307 -82q124 0 237 48.5t195 130.5 t130.5 196t48.5 238q0 165 -82 305.5t-223 222.5t-306 82q-166 0 -307 -82t-223 -222.5t-82 -305.5zM424 713q0 174 124 293.5t300 119.5q114 0 203 -47q28 -15 32 -44.5t-16 -55.5q-29 -37 -84 -12q-61 30 -135 30q-122 0 -208.5 -83.5t-86.5 -200.5q0 -116 87 -199.5 t208 -83.5q73 0 137 31q51 26 84 -15q19 -25 14.5 -53t-30.5 -43q-98 -53 -205 -53q-175 0 -299.5 122t-124.5 294z" />
<glyph unicode="&#xaa;" horiz-adv-x="925" d="M92 1096q0 149 98 253.5t238 104.5q136 0 203 -86q5 -6 8.5 -5t3.5 9v19q0 27 17.5 45t44.5 18q26 0 43.5 -17.5t17.5 -45.5v-590q0 -28 -18 -46t-46 -18q-26 0 -42.5 18t-16.5 46v20q0 6 -3.5 7.5t-8.5 -3.5q-77 -88 -203 -88q-140 0 -238 105t-98 254zM215 1096 q0 -112 64 -174t157 -62q94 0 156.5 62.5t62.5 173.5t-62.5 173t-156.5 62q-93 0 -157 -61.5t-64 -173.5z" />
<glyph unicode="&#xab;" horiz-adv-x="1075" d="M117 489q-29 42 8 95l258 338q42 54 100 20q61 -36 17 -96l-221 -299q-9 -15 0 -29l221 -303q21 -29 15.5 -55t-36.5 -43q-54 -34 -96 20l-260 346zM573 489q-29 41 9 95l258 338q42 54 100 20q59 -35 14 -96l-221 -299q-9 -15 0 -29l221 -303q46 -62 -20 -100 q-53 -31 -94 22l-260 346z" />
<glyph unicode="&#xac;" horiz-adv-x="1425" d="M113 737q0 34 23.5 56t60.5 22h1020q35 0 58 -23.5t23 -60.5v-422q0 -37 -23 -60.5t-58 -23.5t-58.5 23.5t-23.5 60.5v330q0 20 -21 20h-917q-37 0 -60.5 22t-23.5 56z" />
<glyph unicode="&#xad;" horiz-adv-x="802" d="M117 616q0 35 23.5 58.5t60.5 23.5h401q37 0 60.5 -23.5t23.5 -58.5q0 -37 -23.5 -60.5t-60.5 -23.5h-401q-37 0 -60.5 23.5t-23.5 60.5z" />
<glyph unicode="&#xae;" horiz-adv-x="1085" d="M41 995q0 190 135 325.5t326 135.5q93 0 178 -37t147 -99t99 -147t37 -178q0 -191 -135.5 -325.5t-325.5 -134.5q-192 0 -326.5 134t-134.5 326zM119 995q0 -158 112.5 -270.5t270.5 -112.5q157 0 269 112.5t112 270.5q0 157 -112 269t-269 112q-158 0 -270.5 -112 t-112.5 -269zM336 776v418q0 15 10 27t29 12h164q58 0 101.5 -43.5t43.5 -102.5q0 -39 -17 -72.5t-44 -51.5l8 -7q8 -8 8.5 -9t6.5 -8t7 -9t5.5 -9t5.5 -12t3 -12.5t2.5 -15.5t0.5 -17q0 -41 14 -53q19 -16 16 -39q-2 -13 -12.5 -23t-28.5 -10q-27 0 -48 33t-21 92 q0 25 -7 40.5t-21 21t-23 7t-25 1.5h-102v-158q0 -12 -12 -24.5t-25 -12.5q-19 0 -29 11.5t-10 25.5zM416 1010h125q28 0 45.5 20t17.5 57q0 29 -18 50.5t-45 21.5h-125v-149z" />
<glyph unicode="&#xb0;" horiz-adv-x="780" d="M84 1104v20q0 127 90 218.5t217 91.5q128 0 216.5 -89.5t88.5 -216.5v-20q0 -127 -90 -218t-217 -91q-128 0 -216.5 89t-88.5 216zM205 1102q0 -83 53.5 -140t132.5 -57t131.5 56t52.5 141v28q0 85 -53.5 142t-132.5 57q-80 0 -132 -56.5t-52 -142.5v-28z" />
<glyph unicode="&#xb1;" horiz-adv-x="1396" d="M193 74q0 32 20.5 52.5t52.5 20.5h856q32 0 53 -20.5t21 -52.5t-21 -53t-53 -21h-856q-32 0 -52.5 21t-20.5 53zM193 721q0 32 20.5 53t52.5 21h338q14 0 14 14v334q0 32 21 53t53 21h4q32 0 53 -21t21 -53v-334q0 -14 14 -14h338q32 0 53 -21t21 -53t-21 -53t-53 -21 h-338q-14 0 -14 -14v-334q0 -32 -21 -53t-53 -21h-4q-32 0 -53 21t-21 53v334q0 14 -14 14h-338q-32 0 -52.5 21t-20.5 53z" />
<glyph unicode="&#xb4;" horiz-adv-x="575" d="M225.5 1250.5q-9.5 21.5 12.5 52.5l114 176q30 47 82 22l43 -20q31 -14 35.5 -36.5t-20.5 -47.5l-144 -137q-34 -31 -78 -31q-35 0 -44.5 21.5z" />
<glyph unicode="&#xb5;" d="M158 -233v1210h2v24q0 32 20.5 53t52.5 21q31 0 50.5 -21t19.5 -53v-575q0 -120 73.5 -201.5t188.5 -81.5q120 0 211.5 83t91.5 200v575q0 32 21 53t53 21q31 0 50.5 -21t19.5 -53v-907q0 -32 -21 -53t-53 -21q-31 0 -50.5 21t-19.5 53v62q0 7 -3.5 8.5t-6.5 -4.5 q-39 -57 -125 -108.5t-188 -51.5q-145 0 -232 94q-5 6 -8.5 4t-3.5 -8v-323q0 -32 -20.5 -53t-51.5 -21t-51 21t-20 53z" />
<glyph unicode="&#xb6;" horiz-adv-x="1220" d="M72 995q0 439 557 439h346q37 0 60.5 -23.5t23.5 -60.5v-1276q0 -35 -21 -54.5t-51 -19.5q-28 0 -44.5 19t-16.5 55v1130q0 32 -18 53t-46 21q-29 0 -47 -21t-18 -53v-1059q0 -142 -74 -208t-193 -66q-94 0 -149 31q-32 18 -45.5 43.5t-1.5 52.5q13 30 45 38.5t59 -5.5 q41 -17 92 -17q53 0 93.5 33.5t40.5 97.5v375q0 28 -18 46t-46 18h-59q-228 0 -348.5 102t-120.5 309z" />
<glyph unicode="&#xb7;" horiz-adv-x="358" d="M84 592v47q0 37 23.5 60.5t60.5 23.5h20q37 0 60.5 -23.5t23.5 -60.5v-47q0 -37 -23.5 -60.5t-60.5 -23.5h-20q-37 0 -60.5 23.5t-23.5 60.5z" />
<glyph unicode="&#xb8;" horiz-adv-x="671" d="M168 -193l166 213h84l-111 -282q-21 -56 -80 -31l-37 17q-63 29 -22 83z" />
<glyph unicode="&#xba;" horiz-adv-x="837" d="M90 1094q0 150 96 255t232 105t233 -105t97 -255q0 -149 -97 -253t-233 -104q-135 0 -231.5 104t-96.5 253zM213 1094q0 -100 60 -167t145 -67q84 0 145.5 68t61.5 166q0 101 -61 169t-146 68t-145 -68t-60 -169z" />
<glyph unicode="&#xbb;" horiz-adv-x="1075" d="M121 215l221 303q9 14 0 29l-221 299q-45 61 14 96t101 -20l258 -338q37 -53 8 -95l-6 -6l-260 -346q-41 -53 -95 -22q-66 38 -20 100zM559.5 160q-5.5 26 15.5 55l222 303q9 14 0 29l-222 299q-44 60 17 96q58 34 100 -20l258 -338q37 -53 8 -95l-6 -6l-260 -346 q-42 -54 -96 -20q-31 17 -36.5 43z" />
<glyph unicode="&#xbf;" horiz-adv-x="1024" d="M55 90q0 174 115 291.5t303 153.5q10 0 10 10v192q0 32 21 53t53 21q31 0 50.5 -21t19.5 -53v-264q0 -25 -18 -46.5t-50 -25.5q-174 -15 -267 -94t-93 -217q0 -146 101.5 -236t254.5 -90q166 0 272 125q42 49 93 21q30 -18 36.5 -48.5t-14.5 -58.5q-71 -82 -174 -132 t-213 -50q-137 0 -251.5 60t-181.5 168t-67 241zM483 969v94q0 32 21 53t53 21q31 0 50.5 -21t19.5 -53v-94q0 -32 -21 -53t-53 -21q-31 0 -50.5 21t-19.5 53z" />
<glyph unicode="&#xf7;" horiz-adv-x="1396" d="M106 596q0 34 23.5 56t60.5 22h1016q37 0 60.5 -22t23.5 -56t-23.5 -56t-60.5 -22h-1016q-37 0 -60.5 22t-23.5 56zM604 207v47q0 37 23.5 60.5t60.5 23.5h21q37 0 60.5 -23.5t23.5 -60.5v-47q0 -37 -23.5 -60.5t-60.5 -23.5h-21q-37 0 -60.5 23.5t-23.5 60.5zM604 928 v47q0 37 23.5 60.5t60.5 23.5h21q37 0 60.5 -23.5t23.5 -60.5v-47q0 -37 -23.5 -60.5t-60.5 -23.5h-21q-37 0 -60.5 23.5t-23.5 60.5z" />
<glyph unicode="&#x192;" horiz-adv-x="1138" d="M-2 -119q10 27 32.5 38t49.5 5t61 -6q172 0 203 180l102 600q1 4 -1 7.5t-7 3.5h-123q-32 0 -52.5 20t-20.5 51t20.5 51.5t52.5 20.5h150q9 0 12 10l31 185q26 161 121.5 252.5t257.5 91.5q29 0 90 -9q36 -7 50.5 -38t2.5 -66q-12 -30 -33.5 -43.5t-46.5 -7.5 q-27 6 -57 6q-97 0 -147 -44.5t-64 -133.5l-31 -193q-3 -10 8 -10h183q32 0 52.5 -20.5t20.5 -51.5t-20.5 -51t-52.5 -20h-209q-8 0 -12 -11l-101 -592q-28 -160 -122 -252t-257 -92q-49 0 -90 9q-37 7 -52 40.5t-1 69.5z" />
<glyph unicode="&#x2c6;" horiz-adv-x="778" d="M145 1251.5q-8 22.5 17 53.5l127 157q28 35 73 35h50q45 0 73 -35l127 -157q16 -20 21 -37.5t-2 -28t-25 -10.5h-24q-44 0 -76 28l-78 70q-43 40 -86 0l-78 -70q-32 -28 -76 -28q-35 0 -43 22.5z" />
<glyph unicode="&#x2da;" horiz-adv-x="712" d="M143 1393q0 84 63.5 144t149.5 60t149.5 -60t63.5 -144t-63.5 -144.5t-149.5 -60.5t-149.5 60.5t-63.5 144.5zM254 1393q0 -41 30.5 -72t71.5 -31t72 31t31 72t-31 71.5t-72 30.5t-71.5 -30.5t-30.5 -71.5z" />
<glyph unicode="&#x2dc;" horiz-adv-x="933" d="M150 1298q29 81 71 117.5t105 36.5q49 0 145.5 -41t128.5 -41q54 0 82 49q27 50 74 39q50 -16 28 -76q-29 -81 -71 -117t-105 -36q-49 0 -145.5 41t-128.5 41q-29 0 -46.5 -11t-35.5 -38q-28 -51 -80 -37q-43 13 -22 73z" />
<glyph unicode="&#x3c0;" horiz-adv-x="1228" d="M68 985q0 31 20.5 50.5t52.5 19.5h936q32 0 53 -21t21 -53q0 -31 -21 -50.5t-53 -19.5h-59q-10 0 -10 -10v-827q0 -32 -21 -53t-53 -21q-31 0 -50.5 21t-19.5 53v827q0 10 -10 10h-489q-11 0 -11 -10v-827q0 -32 -20.5 -53t-52.5 -21q-31 0 -50.5 21t-19.5 53v827 q0 10 -10 10h-60q-32 0 -52.5 21t-20.5 53z" />
<glyph unicode="&#x2000;" horiz-adv-x="819" />
<glyph unicode="&#x2001;" horiz-adv-x="1638" />
<glyph unicode="&#x2002;" horiz-adv-x="819" />
<glyph unicode="&#x2003;" horiz-adv-x="1638" />
<glyph unicode="&#x2004;" horiz-adv-x="546" />
<glyph unicode="&#x2005;" horiz-adv-x="409" />
<glyph unicode="&#x2006;" horiz-adv-x="273" />
<glyph unicode="&#x2007;" horiz-adv-x="273" />
<glyph unicode="&#x2008;" horiz-adv-x="204" />
<glyph unicode="&#x2009;" horiz-adv-x="327" />
<glyph unicode="&#x200a;" horiz-adv-x="91" />
<glyph unicode="&#x2010;" horiz-adv-x="802" d="M117 616q0 35 23.5 58.5t60.5 23.5h401q37 0 60.5 -23.5t23.5 -58.5q0 -37 -23.5 -60.5t-60.5 -23.5h-401q-37 0 -60.5 23.5t-23.5 60.5z" />
<glyph unicode="&#x2011;" horiz-adv-x="802" d="M117 616q0 35 23.5 58.5t60.5 23.5h401q37 0 60.5 -23.5t23.5 -58.5q0 -37 -23.5 -60.5t-60.5 -23.5h-401q-37 0 -60.5 23.5t-23.5 60.5z" />
<glyph unicode="&#x2012;" horiz-adv-x="802" d="M117 616q0 35 23.5 58.5t60.5 23.5h401q37 0 60.5 -23.5t23.5 -58.5q0 -37 -23.5 -60.5t-60.5 -23.5h-401q-37 0 -60.5 23.5t-23.5 60.5z" />
<glyph unicode="&#x2013;" horiz-adv-x="1048" d="M117 616q0 34 23.5 56t60.5 22h647q37 0 60.5 -22t23.5 -56q0 -35 -23.5 -57t-60.5 -22h-647q-37 0 -60.5 22t-23.5 57z" />
<glyph unicode="&#x2014;" horiz-adv-x="1806" d="M117 621q0 32 23.5 52.5t60.5 20.5h1405q37 0 60.5 -22t23.5 -56q0 -35 -23.5 -57t-60.5 -22h-1405q-37 0 -60.5 23.5t-23.5 60.5z" />
<glyph unicode="&#x2018;" horiz-adv-x="395" d="M78 1087v101q0 101 36 163.5t113 94.5q32 11 57 7.5t31 -19.5q10 -29 -53 -68q-75 -49 -72 -137q0 -10 11 -10q28 -5 46.5 -28t18.5 -56v-48q0 -37 -23.5 -60t-60.5 -23h-20q-37 0 -60.5 23t-23.5 60z" />
<glyph unicode="&#x2019;" horiz-adv-x="395" d="M80 1024q-10 29 53 68q75 49 72 137q0 10 -10 10q-28 5 -47 28t-19 56v47q0 37 23.5 60.5t60.5 23.5h20q37 0 60.5 -23.5t23.5 -60.5v-100q0 -101 -36 -163.5t-113 -94.5q-32 -11 -57 -7.5t-31 19.5z" />
<glyph unicode="&#x201a;" horiz-adv-x="397" d="M80 -215q-10 29 53 68q78 49 72 137q0 10 -10 10q-28 5 -46 28t-18 56v47q0 37 23.5 60.5t60.5 23.5h21q37 0 60 -23.5t23 -60.5v-100q0 -102 -37 -163.5t-114 -94.5q-32 -11 -57 -7.5t-31 19.5z" />
<glyph unicode="&#x201c;" horiz-adv-x="804" d="M78 1087v101q0 101 36 163.5t113 94.5q32 11 57 7.5t31 -19.5q10 -29 -53 -68q-75 -49 -72 -137q0 -10 11 -10q28 -5 46.5 -28t18.5 -56v-48q0 -37 -23.5 -60t-60.5 -23h-20q-37 0 -60.5 23t-23.5 60zM487 1087v101q0 101 36.5 163.5t113.5 94.5q32 11 57 7.5t31 -19.5 q10 -29 -53 -68q-75 -49 -72 -137q0 -10 10 -10q28 -5 46 -28t18 -56v-48q0 -37 -23.5 -60t-60.5 -23h-19q-37 0 -60.5 23t-23.5 60z" />
<glyph unicode="&#x201d;" horiz-adv-x="804" d="M80 1024q-10 29 53 68q75 49 72 137q0 10 -10 10q-28 5 -46 28t-18 56v47q0 37 23.5 60.5t60.5 23.5h18q37 0 60.5 -23.5t23.5 -60.5v-100q0 -101 -36 -163.5t-113 -94.5q-32 -11 -57 -7.5t-31 19.5zM489 1024q-10 28 54 68q74 48 71 137q0 10 -10 10q-28 5 -46.5 28 t-18.5 56v47q0 37 23.5 60.5t60.5 23.5h20q37 0 60.5 -23.5t23.5 -60.5v-100q0 -101 -36 -163.5t-113 -94.5q-32 -11 -57.5 -7.5t-31.5 19.5z" />
<glyph unicode="&#x201e;" horiz-adv-x="397" d="M80 -215q-10 29 53 68q78 49 72 137q0 10 -10 10q-28 5 -46 28t-18 56v47q0 37 23.5 60.5t60.5 23.5h21q37 0 60 -23.5t23 -60.5v-100q0 -102 -37 -163.5t-114 -94.5q-32 -11 -57 -7.5t-31 19.5z" />
<glyph unicode="&#x2020;" horiz-adv-x="737" d="M72 1004q0 23 16 37t41 14h168q10 0 10 10v303q0 28 17.5 47t44.5 19t44 -19t17 -47v-303q0 -10 10 -10h168q25 0 41.5 -14t16.5 -37q0 -24 -16.5 -39t-41.5 -15h-168q-10 0 -10 -10v-877q0 -28 -16.5 -45.5t-44.5 -17.5t-45 17.5t-17 45.5v877q0 10 -10 10h-168 q-25 0 -41 15t-16 39z" />
<glyph unicode="&#x2021;" horiz-adv-x="786" d="M72 430q0 24 16 38.5t41 14.5h168q10 0 10 11v446q0 10 -10 10h-168q-25 0 -41 15t-16 39q0 23 16 37t41 14h168q10 0 10 10v305q0 28 17 46t45 18q27 0 44 -18t17 -46v-305q0 -10 10 -10h168q25 0 41.5 -14t16.5 -37q0 -24 -16.5 -39t-41.5 -15h-168q-10 0 -10 -10v-446 q0 -11 10 -11h168q25 0 41.5 -14.5t16.5 -38.5q0 -23 -16.5 -37t-41.5 -14h-168q-10 0 -10 -10v-306q0 -28 -16.5 -45.5t-44.5 -17.5t-45 17.5t-17 45.5v306q0 10 -10 10h-168q-25 0 -41 14t-16 37z" />
<glyph unicode="&#x2022;" horiz-adv-x="724" d="M94 721q0 110 79 189t189 79t189.5 -79t79.5 -189t-79.5 -189t-189.5 -79t-189 79t-79 189z" />
<glyph unicode="&#x2026;" horiz-adv-x="1323" d="M78 84v43q0 37 23.5 60.5t60.5 23.5h14q37 0 60.5 -23.5t23.5 -60.5v-43q0 -37 -23.5 -60.5t-60.5 -23.5h-14q-37 0 -60.5 23.5t-23.5 60.5zM569 84v43q0 37 23.5 60.5t60.5 23.5h15q37 0 60.5 -23.5t23.5 -60.5v-43q0 -37 -23.5 -60.5t-60.5 -23.5h-15q-37 0 -60.5 23.5 t-23.5 60.5zM1061 84v43q0 37 23.5 60.5t60.5 23.5h16q37 0 60.5 -23.5t23.5 -60.5v-43q0 -37 -23.5 -60.5t-60.5 -23.5h-16q-37 0 -60.5 23.5t-23.5 60.5z" />
<glyph unicode="&#x202f;" horiz-adv-x="327" />
<glyph unicode="&#x2030;" horiz-adv-x="2162" d="M76 1104v20q0 127 90 218.5t217 91.5q128 0 216.5 -89.5t88.5 -216.5v-20q0 -127 -90 -218t-217 -91q-128 0 -216.5 89t-88.5 216zM179.5 43.5q-3.5 24.5 13.5 46.5l972 1329q15 22 39.5 26t46.5 -11t26 -39.5t-13 -46.5l-973 -1330q-15 -22 -39.5 -25.5t-46.5 11.5 t-25.5 39.5zM197 1102q0 -83 53.5 -140t132.5 -57t131.5 56t52.5 141v28q0 85 -53.5 142t-132.5 57q-80 0 -132 -56.5t-52 -142.5v-28zM756 297v20q0 127 90 218.5t217 91.5q128 0 216.5 -89t88.5 -216v-21q0 -127 -90 -218t-217 -91q-128 0 -216.5 89t-88.5 216zM877 295 q0 -83 53.5 -140t132.5 -57t131.5 56t52.5 141v29q0 85 -53 141.5t-133 56.5t-132 -56t-52 -142v-29zM1481 297v20q0 127 90 218.5t217 91.5q128 0 216.5 -89t88.5 -216v-21q0 -127 -90 -218t-217 -91q-128 0 -216.5 89t-88.5 216zM1602 295q0 -83 53.5 -140t132.5 -57 t131.5 56t52.5 141v29q0 85 -53 141.5t-133 56.5t-132 -56t-52 -142v-29z" />
<glyph unicode="&#x2039;" horiz-adv-x="604" d="M109 489q-29 42 8 95l258 338q42 54 100 20q61 -36 17 -96l-222 -299q-9 -15 0 -29l222 -303q21 -29 15.5 -55t-36.5 -43q-54 -34 -96 20l-260 346z" />
<glyph unicode="&#x203a;" horiz-adv-x="604" d="M96.5 160q-5.5 26 16.5 55l221 303q9 14 0 29l-221 299q-45 60 16 96q58 34 100 -20l258 -338q38 -54 9 -95l-7 -6l-260 -346q-42 -54 -96 -20q-31 17 -36.5 43z" />
<glyph unicode="&#x2044;" horiz-adv-x="1075" d="M44 48.5q-5 23.5 9 43.5l867 1315q15 23 40.5 28t47.5 -10q21 -15 25.5 -38.5t-9.5 -43.5l-866 -1314q-15 -23 -41 -28t-47 9q-21 15 -26 38.5z" />
<glyph unicode="&#x205f;" horiz-adv-x="409" />
<glyph unicode="&#x20ac;" horiz-adv-x="1435" d="M102 549v2q0 28 18 45.5t46 17.5h92q5 0 7 3.5t1 7.5q-2 31 -2 90q0 55 6 110q1 4 -1 7.5t-7 3.5h-96q-28 0 -46 17.5t-18 45.5t18 46t46 18h121q7 0 10 8q62 218 211 352.5t350 134.5q281 0 457 -229q17 -22 12.5 -46.5t-27.5 -41.5l-22 -17q-22 -15 -45.5 -11t-40.5 26 q-71 89 -150 131.5t-190 42.5q-131 0 -233.5 -92t-153.5 -246q-3 -12 8 -12h451q28 0 45.5 -18t17.5 -46t-17.5 -45.5t-45.5 -17.5h-480q-8 0 -12 -11q-6 -49 -6 -106q0 -32 4 -94q0 -11 10 -11h484q28 0 45.5 -17.5t17.5 -45.5v-2q0 -28 -17.5 -46t-45.5 -18h-455 q-11 0 -8 -12q46 -161 156 -256.5t257 -95.5q101 0 179.5 47t148.5 139q38 47 88 15l17 -11q22 -17 25.5 -41t-11.5 -47q-90 -118 -198 -183t-255 -65q-213 0 -367 137t-210 365q-3 8 -10 8h-115q-28 0 -46 18t-18 46z" />
<glyph unicode="&#x2122;" horiz-adv-x="1300" d="M90 1384q0 20 14.5 35t34.5 15h324q20 0 34.5 -15t14.5 -35t-14.5 -34.5t-34.5 -14.5h-115v-440q0 -20 -14.5 -34.5t-34.5 -14.5t-33.5 14.5t-13.5 34.5v440h-113q-20 0 -34.5 14.5t-14.5 34.5zM594 895v469q0 28 15.5 49t41.5 21q21 0 34.5 -6.5t27.5 -28.5l172 -258 l172 258q14 22 27 28.5t34 6.5q26 0 42 -21t16 -49v-469q0 -20 -15 -34.5t-35 -14.5q-19 0 -33 14.5t-14 34.5v367l-129 -197q-25 -39 -65 -39q-42 0 -66 39l-129 197v-367q0 -20 -14.5 -34.5t-34.5 -14.5q-19 0 -33 14.5t-14 34.5z" />
<glyph unicode="&#x2202;" horiz-adv-x="1087" d="M74 446q0 191 134 328t322 137q131 0 248 -73q6 -5 9.5 -2t0.5 10q-24 77 -59 143t-87.5 127.5t-129 106.5t-170.5 67q-31 8 -47 30t-12 54q5 31 30 48t58 10q86 -22 162.5 -60t134 -87t107.5 -108.5t84 -123.5t62.5 -132.5t42.5 -135t25 -131.5t10.5 -122t-2.5 -106 q-17 -194 -148 -320t-319 -126q-124 0 -229 62.5t-166 170t-61 233.5zM217 446q0 -136 91 -229.5t222 -93.5t222.5 93.5t91.5 229.5q0 135 -91.5 228.5t-222.5 93.5t-222 -93.5t-91 -228.5z" />
<glyph unicode="&#x2206;" horiz-adv-x="1378" d="M44.5 39.5q-8.5 23.5 2.5 48.5l590 1321q16 39 57 39q12 0 27 -6q25 -11 31 -33l579 -1321q6 -12 6 -29q0 -26 -17.5 -42.5t-45.5 -16.5h-1168l-16 2l-14 4q-23 10 -31.5 33.5zM203 135q-6 -12 8 -12h956q15 0 9 12l-476 1084q-7 14 -14 0z" />
<glyph unicode="&#x220f;" horiz-adv-x="1257" d="M82 1364q0 31 21 50.5t53 19.5h936q32 0 52.5 -21t20.5 -53q0 -31 -20.5 -50.5t-52.5 -19.5h-60q-10 0 -10 -10v-1206q0 -32 -21 -53t-53 -21q-31 0 -50 21t-19 53v1206q0 10 -11 10h-489q-10 0 -10 -10v-1206q0 -32 -21 -53t-53 -21q-31 0 -50.5 21t-19.5 53v1206 q0 10 -10 10h-59q-32 0 -53 21t-21 53z" />
<glyph unicode="&#x2211;" horiz-adv-x="1132" d="M81.5 1389.5q21.5 44.5 70.5 44.5h821q28 0 45.5 -18t17.5 -46v-6q0 -28 -17.5 -46t-45.5 -18h-635q-13 0 -18.5 -7t2.5 -17l452 -479q21 -24 19 -56t-23 -55l-461 -520q-8 -10 -4 -17.5t17 -7.5h651q28 0 45.5 -17.5t17.5 -45.5v-15q0 -28 -17.5 -45.5t-45.5 -17.5h-815 q-51 0 -74 39.5t8 79.5l508 608q12 15 0 29l-510 557q-30 32 -8.5 76.5z" />
<glyph unicode="&#x221a;" horiz-adv-x="1107" d="M27.5 754q8.5 26 33.5 41l166 90q47 26 92 9t64 -67l227 -620q3 -7 8.5 -7t8.5 7l360 1177q7 24 27 38t45 12q37 -3 54 -33t5 -68l-385 -1265q-9 -31 -33.5 -49.5t-56.5 -18.5h-33q-29 0 -52.5 15.5t-33.5 43.5l-264 658q-3 12 -16 6l-107 -59q-31 -17 -60 -9t-42 39 l-4 8q-12 26 -3.5 52z" />
<glyph unicode="&#x221e;" horiz-adv-x="1748" d="M92 512q0 164 98.5 262t255.5 98q196 0 326 -155l92 -105q10 -14 21 0l92 105q136 155 326 155q157 0 255.5 -98t98.5 -262t-98.5 -262t-255.5 -98q-196 0 -326 155l-92 105q-11 14 -21 0l-92 -105q-130 -155 -326 -155q-157 0 -255.5 98t-98.5 262zM236 512 q0 -112 59.5 -175t148.5 -63q70 0 114 23t101 84l107 121q10 10 0 20l-107 121q-54 61 -99 84t-116 23q-89 0 -148.5 -63t-59.5 -175zM983 502l107 -121q54 -61 99 -84t116 -23q89 0 148.5 63t59.5 175t-59.5 175t-148.5 63q-71 0 -116 -23t-99 -84l-107 -121q-10 -10 0 -20 z" />
<glyph unicode="&#x222b;" horiz-adv-x="811" d="M51 -313q7 31 32.5 43.5t57.5 3.5q44 -13 76 -13q71 0 115.5 48t38.5 147l-82 1364q-5 86 21 150t73.5 99t103 51.5t117.5 16.5q60 0 113 -12q29 -7 42 -31t7 -53q-7 -31 -32.5 -43.5t-57.5 -3.5q-40 12 -76 12q-73 0 -117.5 -47.5t-38.5 -146.5l82 -1364 q5 -86 -20.5 -150t-73 -99.5t-103 -52t-118.5 -16.5q-54 0 -111 13q-29 7 -42 31t-7 53z" />
<glyph unicode="&#x2248;" horiz-adv-x="1157" d="M90 428q122 145 256 145q36 0 76 -9.5t70.5 -21t93.5 -38.5q84 -37 133.5 -52.5t97.5 -15.5q95 0 180 68q39 31 72 -2q31 -31 2 -68q-116 -147 -254 -147q-36 0 -76 9.5t-69.5 21t-93.5 38.5q-83 37 -133 52.5t-99 15.5q-91 0 -180 -68q-39 -31 -70 0q-32 32 -6 72z M92 815q119 146 254 146q36 0 77 -10t69 -21t94 -39q60 -26 90.5 -38.5t69 -22t71.5 -9.5q97 0 180 70q39 31 72 -4q31 -31 2 -68q-115 -145 -254 -145q-36 0 -76 9.5t-69.5 21t-93.5 38.5q-62 26 -91 37t-68.5 21t-72.5 10q-93 0 -180 -70q-39 -31 -72 2q-31 36 -2 72z" />
<glyph unicode="&#x2260;" horiz-adv-x="1185" d="M51 524v4q0 31 20 47.5t54 16.5h311q7 0 13 6l159 207q4 5 2 8.5t-8 3.5h-477q-34 0 -54 16.5t-20 47.5v4q0 31 20 47t54 16h588q6 0 12 6l182 236q22 23 44.5 21t43.5 -23q36 -39 -4 -88l-108 -139q-3 -5 -1.5 -9t7.5 -4h174q34 0 54 -16t20 -47v-4q0 -31 -20 -47.5 t-54 -16.5h-283q-9 0 -12 -6l-162 -207q-3 -4 -1.5 -8t7.5 -4h451q34 0 54 -16.5t20 -47.5v-4q0 -31 -20 -47t-54 -16h-559q-9 0 -12 -6l-209 -269q-22 -23 -44.5 -21t-43.5 23q-36 39 4 88l133 173q4 5 2 8.5t-8 3.5h-201q-34 0 -54 16t-20 47z" />
<glyph unicode="&#x2264;" horiz-adv-x="1179" d="M106 68q0 33 23 50t61 17h799q38 0 61 -17t23 -50t-23 -50.5t-61 -17.5h-799q-38 0 -61 17.5t-23 50.5zM106 721q0 68 74 104l791 392q43 22 69.5 13.5t26.5 -42.5v-12q0 -68 -59 -97l-701 -342q-12 -6 -12 -14t12 -14l701 -344q59 -29 59 -97q0 -40 -26.5 -52t-69.5 9 l-791 391q-74 36 -74 105z" />
<glyph unicode="&#x2265;" horiz-adv-x="1179" d="M104 68q0 33 23 50t61 17h799q38 0 61 -17t23 -50t-23 -50.5t-61 -17.5h-799q-38 0 -61 17.5t-23 50.5zM111 268q0 68 59 97l700 344q12 6 12 14t-12 14l-700 342q-59 29 -59 97v12q0 34 26.5 42.5t69.5 -13.5l790 -392q74 -36 74 -104q0 -69 -74 -105l-790 -391 q-43 -21 -69.5 -9t-26.5 52z" />
<glyph unicode="&#x25ca;" horiz-adv-x="1157" d="M79 628q0 37 23 68l379 500q30 41 84 41h6q54 0 84 -41l379 -498q25 -32 25 -69.5t-23 -69.5l-381 -516q-30 -43 -84 -43h-6q-54 0 -84 43l-379 516q-23 32 -23 69zM233 612l324 -436q6 -9 14.5 -9t14.5 9l321 436q9 14 0 29l-321 418q-6 9 -14.5 9t-14.5 -9l-324 -418 q-9 -15 0 -29z" />
<glyph unicode="&#x25fc;" horiz-adv-x="1054" d="M0 0v1055h1055v-1055h-1055z" />
</font>
</defs>
</svg>
