<?xml version="1.0" standalone="no"?>
<!DOCTYPE svg PUBLIC "-//W3C//DTD SVG 1.1//EN" "http://www.w3.org/Graphics/SVG/1.1/DTD/svg11.dtd" >
<svg xmlns="http://www.w3.org/2000/svg" xmlns:xlink="http://www.w3.org/1999/xlink" version="1.1">
<metadata></metadata>
<defs>
<font id="quicksand_proregular_italic" horiz-adv-x="798" >
<font-face units-per-em="2048" ascent="1638" descent="-410" />
<missing-glyph horiz-adv-x="614" />
<glyph horiz-adv-x="0" />
<glyph horiz-adv-x="682" />
<glyph unicode=" "  horiz-adv-x="614" />
<glyph unicode="&#x09;" horiz-adv-x="614" />
<glyph unicode="&#xa0;" horiz-adv-x="614" />
<glyph unicode="!" horiz-adv-x="550" d="M63 63l19 89q6 28 28 45.5t50 17.5h61q28 0 41.5 -17.5t7.5 -45.5l-18 -89q-6 -28 -27 -45.5t-49 -17.5h-61q-28 0 -43 18t-9 45zM197 465l135 852l12 59q6 25 27.5 41.5t48.5 16.5h57q28 0 42.5 -18t8.5 -46l-12 -53l-225 -854q-17 -57 -60 -57q-47 0 -34 59z" />
<glyph unicode="&#x22;" horiz-adv-x="933" d="M166 934l137 448q10 32 37 52t59 20h33h21q29 -1 36.5 -23t-8.5 -51l-237 -446q-13 -25 -23.5 -31t-32.5 -6q-34 0 -22 37zM565 934l137 448q10 32 37.5 52t59.5 20h32h21q29 -1 37 -23t-8 -51l-238 -446q-13 -25 -23 -31t-32 -6q-35 0 -23 37z" />
<glyph unicode="#" horiz-adv-x="1466" d="M66 426l2 14q6 28 27.5 46t49.5 18h168q21 0 27 18l152 393q7 23 -15 23h-158q-28 0 -41.5 17.5t-7.5 45.5l2 15q6 28 28 45.5t50 17.5h185q17 0 26 19l109 286q8 22 26.5 36t40.5 14h17q32 0 46.5 -23t2.5 -55l-96 -254q-4 -10 -0.5 -16.5t14.5 -6.5h348q17 0 27 19 l108 286q7 22 26.5 36t41.5 14h16q32 0 46.5 -23t2.5 -55l-96 -254q-4 -10 -0.5 -16.5t14.5 -6.5h136q28 0 41.5 -17.5t7.5 -45.5l-2 -15q-6 -28 -28 -45.5t-50 -17.5h-164q-21 0 -27 -18l-151 -394q-6 -22 14 -22h156q28 0 41.5 -18t7.5 -46l-2 -14q-6 -28 -28 -46t-50 -18 h-182q-18 0 -27 -18l-112 -295q-7 -22 -26.5 -35.5t-41.5 -13.5h-16q-32 0 -47 23t-3 55l101 262q6 22 -15 22h-348q-17 0 -26 -18l-113 -295q-7 -22 -26.5 -35.5t-41.5 -13.5h-16q-32 0 -46.5 23t-2.5 55l100 262q6 22 -14 22h-139q-28 0 -41.5 18t-7.5 46zM485 526 q-6 -22 15 -22h348q20 0 26 18l150 393q7 23 -14 23h-348q-21 0 -27 -18z" />
<glyph unicode="$" horiz-adv-x="1206" d="M-38 226.5q5 31.5 34 54.5q23 20 49 22.5t49 -16.5q49 -45 80.5 -69.5t90.5 -51.5t128 -35q9 -3 13 8l116 547q0 10 -6 12q-36 11 -62 19.5t-60 20.5t-57.5 23.5t-51.5 27t-47 31.5t-38 36t-29.5 43t-18 49.5t-7 58t8.5 66.5q19 90 71.5 162.5t124.5 118t154.5 70.5 t169.5 30q12 0 12 10l12 52q6 28 27 45.5t49 17.5h4q28 0 42.5 -17.5t8.5 -45.5l-12 -60q-3 -10 8 -10q169 -27 303 -129q25 -19 23.5 -49t-27.5 -58q-22 -23 -49.5 -27t-46.5 13q-102 81 -235 104q-3 2 -7 -1t-4 -7l-102 -473q0 -10 6 -12l8 -2q42 -13 76.5 -25.5t71 -28.5 t65 -32.5t56 -37.5t46.5 -43.5t34 -50.5t22 -59.5t7 -69t-9 -79.5q-20 -97 -77 -172.5t-135.5 -121t-163 -70.5t-173.5 -31q-12 0 -12 -11l-25 -110q-6 -28 -27 -46t-49 -18h-4q-28 0 -42.5 18t-8.5 46l25 112q1 4 -1.5 7.5t-7.5 3.5q-124 14 -214 61.5t-168 124.5 q-23 23 -18 54.5zM297 1073q-10 -45 3 -80t50.5 -61t81 -43.5t113.5 -38.5q11 -4 14 8l92 442q2 5 -0.5 7.5t-9.5 1.5q-133 -8 -227.5 -69t-116.5 -167zM537 137q-3 -10 8 -10q142 11 246 74.5t129 177.5q21 102 -38.5 162t-224.5 114q-5 1 -8.5 -1t-3.5 -7z" />
<glyph unicode="%" horiz-adv-x="1435" d="M31.5 43.5q1.5 24.5 23.5 46.5l1256 1329q20 22 44.5 26t43.5 -11t17.5 -39.5t-23.5 -46.5l-1256 -1330q-20 -22 -44.5 -25.5t-43.5 11.5t-17.5 39.5zM154 1104l4 20q28 127 136.5 218.5t235.5 91.5q128 0 198 -89.5t44 -216.5l-6 -20q-26 -126 -136 -217.5t-237 -91.5 q-128 0 -196.5 89t-42.5 216zM274 1102q-19 -83 22.5 -140t121.5 -57q79 0 143.5 56t83.5 141l6 28q17 85 -24.5 142t-120.5 57t-142.5 -56.5t-82.5 -142.5zM662 297l4 20q28 127 136.5 218.5t235.5 91.5q128 0 198 -89t44 -216l-4 -21q-28 -127 -137 -218t-236 -91 q-128 0 -197.5 89t-43.5 216zM782 295q-17 -83 25 -140t121 -57t142.5 56t82.5 141l6 29q19 85 -22 141.5t-121 56.5t-144.5 -56t-83.5 -142z" />
<glyph unicode="&#x26;" horiz-adv-x="1538" d="M10 504q-4 156 74 263.5t201 137.5q9 3 6 13q-43 95 -21 210q11 62 44 122t84.5 112t129.5 83.5t168 31.5q60 0 109.5 -15t80 -39t54 -54.5t31 -62.5t11 -62t-4.5 -52q-8 -35 -29.5 -54.5t-54.5 -15.5t-47.5 29.5t-9.5 54.5q9 44 -29 85.5t-111 41.5q-116 0 -192.5 -70 t-93.5 -159q-11 -64 6.5 -115.5t54.5 -83.5q48 -44 27 -96q-22 -55 -99 -41q-46 9 -89.5 -2t-79 -40.5t-56.5 -86t-20 -131.5q3 -116 86 -208t212.5 -140.5t278.5 -48.5q147 0 282 49.5t220.5 138.5t85.5 193q0 68 -21 122t-53.5 86.5t-74.5 53.5t-81 28.5t-75 5.5 q-68 -4 -123 -28q-52 -24 -82.5 -66t-30.5 -96q0 -34 15.5 -60.5t38 -38.5t48 -12t44.5 15q16 14 39.5 15t48.5 -17q22 -22 19 -48.5t-23 -45.5q-29 -27 -76.5 -39.5t-99 -4.5t-97 33t-75 78t-29.5 125q0 104 78 203q71 84 175.5 110.5t272.5 30.5q106 1 191 14.5t152 41.5 t103.5 75.5t36.5 112.5q0 87 -37.5 134.5t-103.5 47.5q-57 0 -84 -36.5t-8 -71.5q13 -23 9.5 -49.5t-23.5 -41.5q-26 -15 -51.5 -11t-43.5 18q-49 42 -49 118q0 78 67 143.5t175 65.5q123 0 208 -86.5t85 -230.5q0 -314 -434 -375q-13 -3 -4 -12q116 -116 116 -307 q0 -92 -42.5 -176t-115 -146.5t-165.5 -108.5t-198.5 -70t-209.5 -24q-132 0 -258.5 37t-228.5 104t-166 170.5t-68 225.5z" />
<glyph unicode="'" horiz-adv-x="532" d="M166 934l137 448q10 32 37 52t59 20h33h21q29 -1 36.5 -23t-8.5 -51l-237 -446q-13 -25 -23.5 -31t-32.5 -6q-34 0 -22 37z" />
<glyph unicode="(" horiz-adv-x="757" d="M111 649q58 269 239.5 509t450.5 390q34 19 61.5 15t38.5 -27q9 -23 -6 -50.5t-49 -47.5q-228 -140 -378 -348.5t-198 -440.5t12.5 -440t227.5 -348q25 -20 29 -48t-15 -51q-20 -23 -49.5 -27t-54.5 15q-206 150 -286.5 390.5t-22.5 508.5z" />
<glyph unicode=")" horiz-adv-x="770" d="M-117 -238q-9 23 6.5 51t49.5 48q228 140 377.5 348t197.5 440t-12.5 440.5t-227.5 348.5q-25 20 -29 47.5t15 50.5q20 23 50 27t55 -15q206 -150 286.5 -390.5t22.5 -508.5q-58 -269 -239.5 -509t-450.5 -390q-34 -19 -62 -15t-39 27z" />
<glyph unicode="*" horiz-adv-x="806" d="M209 1241q-5 18 6 35l8 12q9 17 27 21.5t35 -6.5l145 -103q10 -8 17.5 -3.5t7.5 17.5l-15 177q-2 20 10.5 33.5t32.5 13.5h13q20 0 32.5 -13.5t10.5 -33.5l-15 -177q0 -13 7 -17.5t18 3.5l145 103q17 11 35 7t27 -22l8 -12q11 -17 5 -35t-26 -27l-161 -75 q-12 -6 -12 -14.5t12 -14.5l163 -74q19 -9 24.5 -26.5t-3.5 -34.5l-8 -14q-10 -18 -28.5 -22t-35.5 7l-145 105q-11 7 -18 3t-7 -18l15 -176q2 -20 -10.5 -33.5t-32.5 -13.5h-13q-20 0 -32.5 13.5t-10.5 33.5l15 176q0 14 -7.5 18t-17.5 -3l-145 -105q-17 -11 -35.5 -6.5 t-28.5 21.5l-8 14q-9 17 -3.5 34.5t23.5 24.5l164 76q12 6 12 14.5t-12 14.5l-164 75q-19 9 -24 27z" />
<glyph unicode="+" horiz-adv-x="1216" d="M104 721q6 32 32 53t59 21h337q14 0 17 14l72 334q6 32 31 53t57 21h4q32 0 48.5 -21t10.5 -53l-72 -334q-3 -14 13 -14h338q32 0 47.5 -20.5t9.5 -53.5q-6 -32 -32 -53t-58 -21h-338q-13 0 -16 -14l-72 -334q-6 -32 -31 -53t-57 -21h-4q-32 0 -49 21t-11 53l72 334 q3 14 -12 14h-338q-32 0 -48 21t-10 53z" />
<glyph unicode="," horiz-adv-x="489" d="M-31 -215q-5 29 68 68q88 49 100 137q3 10 -8 10q-27 5 -39.5 28t-5.5 56l10 47q8 37 36 60.5t65 23.5h20q37 0 56 -23.5t12 -60.5l-23 -100q-22 -102 -72 -163.5t-135 -94.5q-34 -11 -57.5 -7.5t-26.5 19.5z" />
<glyph unicode="-" d="M111 616q8 35 36.5 58.5t65.5 23.5h401q37 0 55.5 -23.5t10.5 -58.5q-7 -37 -36 -60.5t-66 -23.5h-402q-37 0 -55 23.5t-10 60.5z" />
<glyph unicode="." horiz-adv-x="430" d="M33 84l8 43q7 37 36 60.5t66 23.5h15q37 0 55 -23.5t10 -60.5l-8 -43q-7 -37 -36 -60.5t-66 -23.5h-15q-37 0 -55 23.5t-10 60.5z" />
<glyph unicode="/" horiz-adv-x="1267" d="M38 -241.5q-10 16.5 7 44.5l1063 1799q20 36 61 36h37q30 0 40 -16.5t-7 -44.5l-1063 -1798q-21 -37 -61 -37h-37q-30 0 -40 16.5z" />
<glyph unicode="0" horiz-adv-x="1259" d="M106 421q-7 135 29 296q45 216 138.5 381t232 260.5t301.5 95.5q123 0 209.5 -55t127.5 -153t48 -233t-29 -296q-45 -216 -138.5 -381t-231.5 -260.5t-301 -95.5q-123 0 -209.5 55t-128 153t-48.5 233zM279 717q-59 -277 3.5 -435.5t239.5 -158.5t308 158.5t190 435.5 t-4 435.5t-240 158.5t-307.5 -158.5t-189.5 -435.5z" />
<glyph unicode="1" horiz-adv-x="880" d="M98 1118q-11 26 2.5 55t44.5 44l414 206q28 14 47 11q27 -1 41 -19t12 -47l-4 -12l-272 -1282q-6 -32 -31 -53t-57 -21q-31 0 -46 21t-9 53l245 1151q1 6 -2 8.5t-8 -0.5l-282 -141q-31 -15 -58.5 -8t-36.5 34z" />
<glyph unicode="2" horiz-adv-x="1241" d="M49 74q1 2 2 6t2 6q10 24 33 41l637 516q4 3 14 11q42 33 69 56.5t71 69t73.5 100t42.5 113.5q16 75 -2 146.5t-76 121.5t-145 50q-56 0 -110.5 -15.5t-104.5 -46.5t-76 -50t-67 -52q-27 -22 -59 -22.5t-44 14.5q-10 10 -13.5 24.5t2.5 35.5t24 40q83 85 209 150t268 65 q69 0 126.5 -20.5t96 -55t68 -80.5t41 -97t15 -104.5t-8.5 -103.5q-11 -51 -31 -99t-48.5 -89.5t-54 -75t-61 -67t-55.5 -51t-51 -42.5t-35 -28l-475 -385q-4 -3 -5.5 -6t0.5 -5t7 -2h608q32 0 48.5 -20.5t10.5 -52.5q-6 -31 -31 -50.5t-57 -19.5h-798q-32 0 -49 21t-11 53z " />
<glyph unicode="3" horiz-adv-x="1163" d="M26.5 112.5q5.5 33.5 39.5 59.5q40 32 84 4q77 -53 204 -53q57 0 118.5 19.5t121 58t106.5 105.5t64 151q19 94 4 161t-58.5 108.5t-108 58t-144.5 8.5q-30 -3 -50 12t-20 43q0 39 35 67l393 363q4 3 5.5 6t-0.5 4.5t-7 1.5h-479q-32 0 -49 21t-11 53q6 31 31 50.5 t57 19.5h650q32 0 48.5 -21t10.5 -53q-2 -12 -10 -27q-14 -19 -23 -26l-401 -367q-7 -11 4 -14q153 -33 230.5 -153t35.5 -316q-18 -83 -55.5 -155t-86.5 -123t-105.5 -90t-116 -62.5t-114 -35t-103.5 -11.5q-188 0 -279 77q-26 22 -20.5 55.5z" />
<glyph unicode="4" horiz-adv-x="1210" d="M27 360q-20 42 22 84l940 959q26 26 53 29l17 2q31 0 46 -21t9 -53l-186 -879q-3 -10 6 -10h82q32 0 48.5 -21t10.5 -53q-6 -31 -31 -50t-57 -19h-82q-12 0 -12 -11l-53 -243q-6 -32 -31 -53t-57 -21q-31 0 -46.5 21t-9.5 53l54 243q0 11 -9 11h-659q-42 0 -55 32z M263 474.5q1 -3.5 7 -3.5h500q11 0 14 10l138 654q1 6 -2.5 7.5t-8.5 -3.5l-643 -656q-6 -5 -5 -8.5z" />
<glyph unicode="5" horiz-adv-x="1118" d="M32.5 112.5q5.5 33.5 39.5 59.5q40 32 84 4q77 -53 204 -53q56 0 119 23t123 65t107 112t65 154q24 115 3.5 190.5t-72.5 117.5t-124 53.5t-152 -3t-157 -51.5q-57 -28 -87.5 0t-10.5 72l186 512q7 24 26.5 41.5t41.5 22.5q6 2 21 2h573q32 0 48.5 -21t10.5 -53 q-6 -31 -31 -50.5t-57 -19.5h-506q-11 0 -14 -10l-123 -326q-3 -6 0 -8.5t10 0.5q93 35 185.5 37.5t170.5 -27.5t134 -93.5t75 -159.5t-7 -226q-21 -99 -71 -184t-113 -141t-136 -96t-140 -58t-126 -18q-188 0 -279 77q-26 22 -20.5 55.5z" />
<glyph unicode="6" horiz-adv-x="1142" d="M92 426q8 65 28.5 140t57 163t84.5 173.5t116.5 170t148.5 154t184.5 124.5t220.5 83q35 7 57 -10t19 -48q-1 -32 -22 -54t-54 -30q-99 -22 -185.5 -67.5t-152.5 -107t-115.5 -128t-89.5 -143.5q-4 -7 -1 -10t9 2q133 73 265 73q124 0 215.5 -63t130 -170t12.5 -232 q-27 -126 -111.5 -233.5t-203 -170t-242.5 -62.5q-188 0 -292 126t-79 320zM250 446q-29 -136 42 -229.5t202 -93.5t242.5 93.5t140.5 229.5q29 135 -43 228.5t-203 93.5q-130 0 -241 -93.5t-140 -228.5z" />
<glyph unicode="7" horiz-adv-x="1153" d="M190 42.5q-4 26.5 15 55.5l756 1180q6 12 -5 12h-559q-32 0 -48.5 21t-10.5 53q8 31 33 50.5t57 19.5h674q18 0 35 -7q25 -12 29 -38.5t-15 -55.5l-827 -1290q-19 -29 -49 -40t-56 1q-25 12 -29 38.5z" />
<glyph unicode="8" horiz-adv-x="1089" d="M72 440q25 109 92.5 202.5t163.5 154.5q20 13 8 28q-77 103 -47 250q32 151 157.5 255t276.5 104t233 -104t50 -255q-30 -145 -154 -250q-17 -15 -4 -28q72 -61 101 -155t5 -202q-38 -184 -193.5 -312t-340.5 -128q-184 0 -285 127.5t-63 312.5zM205 440 q-29 -135 43 -221t198 -86t236 87t139 220t-44 220.5t-199 87.5q-127 0 -235.5 -86.5t-137.5 -221.5zM422 1075q-21 -99 33 -162t145 -63t171 63t101 162q22 101 -30.5 163t-145.5 62t-172 -62t-102 -163z" />
<glyph unicode="9" horiz-adv-x="1140" d="M162 987q27 126 111.5 233.5t203 170.5t242.5 63q188 0 292 -126t79 -320q-8 -65 -28.5 -140t-57 -163t-84.5 -173.5t-116.5 -170t-148.5 -154t-184.5 -124.5t-220.5 -83q-35 -7 -57 9.5t-19 47.5q1 32 22 54t54 30q99 22 185.5 67.5t152.5 107.5t115.5 128.5t89.5 143.5 q4 7 0.5 10t-9.5 -2q-135 -74 -264 -74q-124 0 -215.5 63t-130 170t-12.5 232zM305 987q-29 -134 43 -227.5t203 -93.5t241.5 93t139.5 228q29 136 -42 230t-202 94t-242.5 -94t-140.5 -230z" />
<glyph unicode=":" horiz-adv-x="548" d="M76 84l10 47q8 37 35.5 60.5t64.5 23.5h21q37 0 55.5 -23.5t11.5 -60.5l-10 -47q-7 -37 -36 -60.5t-66 -23.5h-21q-37 0 -55 23.5t-10 60.5zM254 928l10 47q7 37 36.5 60.5t66.5 23.5h20q37 0 55.5 -23.5t10.5 -60.5l-11 -47q-8 -37 -35.5 -60.5t-64.5 -23.5h-20 q-37 0 -56 23.5t-12 60.5z" />
<glyph unicode=";" horiz-adv-x="598" d="M10 -215q-5 27 68 68q88 49 100 137q3 10 -8 10q-27 5 -39.5 28t-5.5 56l10 47q7 37 36.5 60.5t66.5 23.5h20q37 0 55.5 -23.5t10.5 -60.5l-23 -100q-22 -102 -71.5 -163.5t-133.5 -94.5q-35 -11 -59 -7.5t-27 19.5zM305 928l8 47q9 37 37.5 60.5t65.5 23.5h20 q37 0 56 -24t10 -60l-8 -47q-9 -37 -37.5 -60.5t-65.5 -23.5h-20q-37 0 -56 24t-10 60z" />
<glyph unicode="&#x3c;" horiz-adv-x="1466" d="M223 721q15 68 96 104l873 392q47 22 72.5 13.5t17.5 -42.5l-2 -12q-14 -68 -80 -97l-772 -342q-14 -6 -16 -14t10 -14l627 -344q53 -28 38 -97q-9 -40 -38.5 -52t-67.5 9l-707 391q-66 36 -51 105z" />
<glyph unicode="=" horiz-adv-x="1298" d="M68 524l2 4q6 31 29 47.5t57 16.5h938q33 0 50 -16.5t11 -47.5l-2 -4q-12 -63 -86 -63h-938q-34 0 -50.5 16t-10.5 47zM143 881l2 4q12 63 86 63h938q34 0 51 -16t11 -47l-2 -4q-6 -31 -29 -47.5t-57 -16.5h-938q-34 0 -51 16.5t-11 47.5z" />
<glyph unicode="&#x3e;" horiz-adv-x="1466" d="M186 268q14 68 80 97l774 344q12 6 14.5 14t-7.5 14l-629 342q-53 29 -39 97l2 12q8 34 36 42t66 -13l709 -392q65 -36 51 -104q-15 -69 -96 -105l-875 -391q-47 -22 -71 -9.5t-15 52.5z" />
<glyph unicode="?" horiz-adv-x="1067" d="M163 1274.5q0 30.5 27 58.5q89 82 203 132.5t223 50.5q209 0 325.5 -133.5t74.5 -335.5q-37 -174 -176.5 -291.5t-335.5 -153.5q-12 0 -12 -10l-41 -193q-7 -32 -33 -52.5t-58 -20.5q-31 0 -45.5 20.5t-7.5 52.5l55 265q5 25 28 46t56 25q177 15 287 94.5t139 217.5 q32 146 -50.5 235.5t-235.5 89.5q-168 0 -299 -125q-52 -48 -97 -20q-27 17 -27 47.5zM238 74l20 94q6 32 31 53t57 21q31 0 46 -21t9 -53l-20 -94q-6 -32 -32 -53t-58 -21q-30 0 -44.5 20.5t-8.5 53.5z" />
<glyph unicode="@" horiz-adv-x="1951" d="M69 325q-9 114 19 236q38 181 143.5 346t250.5 286t327 193t367 72q184 0 336 -67t246.5 -178t132.5 -259.5t5 -306.5q-27 -126 -80 -222t-121.5 -152.5t-144.5 -84.5t-157 -28q-56 0 -96 19t-58 47.5t-24 56t-1 49.5q2 6 -3 6q-4 -1 -7 -4q-149 -170 -336 -170 q-167 0 -259.5 126.5t-55.5 303.5q38 178 184 304t314 126q81 0 151.5 -38.5t97.5 -100.5q3 -4 7 -3.5t6 5.5l12 63q6 25 24.5 39.5t43.5 14.5t38 -15t7 -39l-103 -485q-17 -80 5.5 -135.5t95.5 -55.5q37 0 75 10.5t79.5 37.5t77 67.5t66 107t48.5 150.5q27 125 -9 251 t-118.5 225.5t-215.5 162t-288 62.5q-126 0 -254.5 -41.5t-240 -116.5t-205 -172.5t-158 -216t-90.5 -240.5q-17 -90 -16.5 -174.5t24.5 -162.5t62.5 -145.5t96.5 -122.5t128 -94.5t156.5 -61t181.5 -21.5q138 0 255.5 29t243.5 90q15 8 27 -1.5t18 -25.5q5 -13 -5.5 -37.5 t-28.5 -32.5q-263 -133 -535 -133q-129 0 -243 32t-200.5 90.5t-153.5 140.5t-101.5 181t-43.5 213zM666 594q-28 -132 38.5 -225t186.5 -93q119 0 224.5 93.5t133.5 224.5t-38 224t-185 93q-120 0 -226 -93t-134 -224z" />
<glyph unicode="A" horiz-adv-x="1222" d="M-100.5 37q-5.5 26 12.5 55l797 1299q26 48 71 48q5 0 11 -1q46 0 55 -47l241 -1297q6 -29 -11.5 -56.5t-49.5 -37.5q-31 -10 -54.5 2t-29.5 41l-45 268q0 8 -10 8h-678q-9 0 -14 -8l-160 -268q-17 -30 -46 -42t-57 -1q-27 11 -32.5 37zM293 475q-9 -12 6 -12h559 q13 0 10 12l-137 678q-3 14 -14 0z" />
<glyph unicode="B" horiz-adv-x="1167" d="M66 74l274 1286q6 32 31 53t57 21h315q109 0 191 -46t119 -132q23 -53 22 -114q0 -38 -8 -79q-34 -155 -162 -260q-10 -7 -2 -15q109 -48 158 -146q31 -62 30 -136q0 -44 -10 -94q-26 -123 -108 -218t-196 -144.5t-240 -49.5h-412q-32 0 -48.5 21t-10.5 53zM227 154 q-4 -11 6 -11h332q138 0 242 71t131 198q7 34 7 65q0 83 -53 135q-73 72 -210 72h-332q-12 0 -12 -10zM373 838q-4 -11 6 -11h235q110 0 198.5 65.5t111.5 170.5q6 29 6 55q0 67 -44 111q-60 61 -171 61h-236q-11 0 -14 -10z" />
<glyph unicode="C" horiz-adv-x="1452" d="M141 717q16 150 90.5 286.5t186.5 235.5t258.5 157t300.5 58q223 0 395 -117q27 -18 28.5 -49t-22.5 -57q-26 -28 -54 -28q-21 0 -44 16q-140 92 -317 92q-167 0 -317 -80t-247 -216.5t-114 -297.5q-3 -32 -3 -63q0 -87 26 -168q36 -110 109 -189.5t181 -126.5t233 -47 q184 0 343 92q28 17 53.5 14t40.5 -26q19 -26 11.5 -57t-38.5 -50q-199 -116 -424 -116q-154 0 -287.5 58t-224 157t-135.5 235q-33 101 -33 209q0 39 4 78z" />
<glyph unicode="D" horiz-adv-x="1400" d="M66 74l274 1286q6 32 31 53t57 21h356q324 0 450 -185q80 -117 81 -300q0 -105 -27 -232q-73 -346 -278 -531.5t-529 -185.5h-356q-32 0 -48.5 21t-10.5 53zM229 154q-4 -11 7 -11h274q264 0 419 143t216 431q24 114 24 205q0 140 -56 226q-93 142 -357 142h-275 q-11 0 -14 -10z" />
<glyph unicode="E" horiz-adv-x="1171" d="M66 74l274 1286q6 32 30.5 53t55.5 21h727q32 0 48.5 -20.5t10.5 -51.5t-31 -51.5t-57 -20.5h-645q-11 0 -14 -10l-119 -563q-3 -10 8 -10h557q32 0 48.5 -20.5t9.5 -51.5q-6 -31 -31 -51.5t-57 -20.5h-557q-10 0 -13 -10l-84 -399q-4 -11 6 -11h646q32 0 48.5 -20 t10.5 -51t-31 -51.5t-57 -20.5h-727q-31 0 -47 21t-10 53z" />
<glyph unicode="F" horiz-adv-x="1126" d="M66 74l274 1286q6 32 30.5 53t55.5 21h727q32 0 48.5 -20.5t10.5 -51.5t-31 -51.5t-57 -20.5h-645q-11 0 -14 -10l-119 -563q-3 -10 8 -10h557q32 0 48.5 -20.5t9.5 -51.5q-6 -31 -31 -51.5t-57 -20.5h-557q-10 0 -13 -10l-102 -479q-6 -32 -30.5 -53t-55.5 -21t-47 21 t-10 53z" />
<glyph unicode="G" horiz-adv-x="1554" d="M141 717q16 150 90.5 286.5t186.5 235.5t258.5 157t300.5 58q220 0 397 -115q25 -19 27 -48t-21 -54v-2q-21 -24 -49.5 -28t-52.5 14q-137 90 -315 90q-167 0 -317 -79.5t-247 -216.5t-114 -298q-3 -33 -3 -65q0 -124 52 -232q66 -137 198 -217t299 -80q191 0 336 88 q9 3 9 12l34 324q0 10 -10 10h-246q-32 0 -49 20.5t-14 51.5q1 31 24.5 51t55.5 20h325q32 0 51 -20.5t17 -52.5l-49 -451q-3 -28 -29 -47q-201 -149 -469 -149q-154 0 -287.5 58t-224 157t-135.5 235q-33 101 -33 209q0 39 4 78z" />
<glyph unicode="H" horiz-adv-x="1429" d="M66 74l274 1286q6 32 31 53t57 21q31 0 46 -21t9 -53l-137 -641q0 -10 8 -10h756q12 0 12 10l138 641q6 32 30.5 53t55.5 21t47 -21t10 -53l-275 -1286q-6 -32 -31 -53t-57 -21q-31 0 -46 21t-9 53l102 481q3 10 -8 10h-755q-10 0 -13 -10l-102 -481q-6 -32 -31 -53 t-57 -21q-31 0 -46 21t-9 53z" />
<glyph unicode="I" horiz-adv-x="509" d="M66 74l274 1286q6 32 30.5 53t55.5 21t47 -21t10 -53l-274 -1286q-6 -32 -30.5 -53t-55.5 -21t-47 21t-10 53z" />
<glyph unicode="J" horiz-adv-x="1097" d="M-51 233q-9 30 7.5 57.5t49.5 39.5q36 12 57 1.5t29 -38.5q28 -78 95 -125t159 -47q138 0 257.5 97.5t148.5 234.5l190 905q6 32 30.5 53t55.5 21q32 0 47.5 -20.5t9.5 -51.5l-190 -907q-27 -129 -114 -238.5t-210.5 -173.5t-253.5 -64q-135 0 -233.5 70t-134.5 186z" />
<glyph unicode="K" horiz-adv-x="1308" d="M66 74l274 1286q6 32 30.5 53t55.5 21t47 -21t10 -53l-161 -762q-3 -16 10 -6l979 821q26 23 54.5 23.5t47.5 -21.5q20 -22 14 -50t-34 -52l-602 -504q-8 -5 -5 -14l410 -678q14 -24 5 -53.5t-38 -49.5t-57 -16.5t-43 29.5l-399 665q-3 6 -15 0l-368 -309q-6 -6 -9 -12 l-63 -297q-6 -32 -30.5 -53t-55.5 -21t-47 21t-10 53z" />
<glyph unicode="L" horiz-adv-x="1044" d="M66 74l274 1286q6 32 30.5 53t55.5 21t47 -21t10 -53l-256 -1206q-4 -11 6 -11h635q32 0 49 -20t11 -51t-31 -51.5t-57 -20.5h-717q-31 0 -47 21t-10 53z" />
<glyph unicode="M" horiz-adv-x="1730" d="M66 74l274 1286q6 31 29.5 51.5t52.5 22.5h7q39 0 54 -33l389 -756q4 -11 15 0l690 756q33 33 68 33h6q30 -1 44.5 -22t8.5 -52l-274 -1286q-6 -32 -29.5 -53t-54.5 -21q-32 0 -49 21t-11 53l223 1052q3 7 -0.5 8.5t-9.5 -4.5l-592 -645q-28 -32 -67 -32t-56 32l-338 648 q-3 4 -6.5 2.5t-5.5 -7.5l-225 -1054q-6 -32 -31 -53t-57 -21q-31 0 -46 21t-9 53z" />
<glyph unicode="N" horiz-adv-x="1521" d="M66 74l274 1286q6 32 31 53t57 21t45 -19q8 -8 10 -14l629 -1106q2 -4 5 -5t5.5 1.5t3.5 7.5l226 1061q6 32 31 53t57 21q31 0 46 -21t9 -53l-274 -1286q-6 -32 -31 -53t-57 -21q-34 0 -46 18q-7 7 -10 15l-628 1106q-2 4 -5 5t-6 -1.5t-4 -7.5l-225 -1061 q-6 -32 -31 -53t-57 -21q-31 0 -46 21t-9 53z" />
<glyph unicode="O" horiz-adv-x="1632" d="M219 717q21 201 132.5 370.5t282 268t359.5 98.5q141 0 263 -58t204 -157q84 -99 124 -235q29 -98 29 -203q0 -41 -5 -84q-21 -201 -132.5 -370.5t-282 -268t-359.5 -98.5q-141 0 -263 58t-204.5 157t-122.5 235q-29 98 -30 203q0 42 5 84zM362 717q-4 -36 -4 -71 q0 -122 46 -228q60 -137 178 -216t266 -79t284 79t225.5 216t106.5 299q4 36 4 71q0 122 -46 228q-60 137 -178.5 216t-266.5 79t-283.5 -79t-225 -216t-106.5 -299z" />
<glyph unicode="P" horiz-adv-x="1222" d="M66 74l274 1286q6 32 31 53t57 21h502q165 0 251 -122q58 -82 58 -197q0 -56 -14 -120q-42 -194 -178.5 -315t-301.5 -121h-421q-13 0 -13 -10l-102 -475q-6 -32 -31 -53t-57 -21q-31 0 -46 21t-9 53zM346 713q-1 -4 1 -7.5t7 -3.5h422q104 0 190.5 79.5t114.5 213.5 q10 48 10 88q0 75 -34 127q-52 80 -156 80h-422q-11 0 -14 -10z" />
<glyph unicode="Q" horiz-adv-x="1634" d="M217 717q22 201 133.5 370.5t282 268t358.5 98.5q141 0 263.5 -58t205 -157t122.5 -235q29 -97 29 -199q0 -44 -5 -88q-23 -218 -152.5 -398.5t-318.5 -269.5l-248 -115q-7 -5 -6.5 -8.5t8.5 -5.5q55 -15 100.5 -41t71 -46.5t74 -36t116.5 -15.5q93 0 183.5 41t158.5 98 q27 24 53 24q22 0 42 -16q26 -20 26 -51.5t-28 -54.5q-87 -75 -207.5 -129.5t-243.5 -54.5q-68 0 -140.5 21.5t-121 47.5t-97 51.5t-71.5 30.5q-41 8 -85 8q-98 0 -208 -41q-31 -11 -56.5 -1.5t-37.5 36.5q-11 28 1 55.5t44 42.5l229 107q-233 53 -368 255 q-112 166 -112 375q0 44 5 91zM360 717q-4 -36 -4 -70q0 -122 47 -229q60 -137 178.5 -216t266.5 -79t283.5 79t224.5 216t106 299q4 36 4 72q0 82 -22 159q-33 111 -98.5 190t-162.5 126t-208 47q-148 0 -283 -79t-224.5 -216t-107.5 -299z" />
<glyph unicode="R" horiz-adv-x="1288" d="M66 74l274 1286q6 32 31 53t57 21h502q164 0 251 -118q60 -81 61 -193q0 -50 -13 -107q-26 -122 -100.5 -218.5t-176.5 -148.5q-10 -6 -2 -14q105 -81 105 -191q0 -27 -6 -55q-24 -105 -24 -157q0 -5 1 -10q2 -52 39 -83q22 -16 28.5 -39.5t-8.5 -54.5 q-18 -33 -54.5 -42.5t-59.5 9.5q-50 38 -70 100q-17 53 -17 109v19q4 66 23 161q5 23 5 43q0 62 -46 102q-62 54 -157 54h-377q-13 0 -13 -10l-110 -516q-6 -32 -31 -53t-57 -21q-31 0 -46 21t-9 53zM354 754q-1 -4 1 -7.5t7 -3.5h422q103 0 189 76t112 197q9 40 9 75 q0 72 -36 123q-54 76 -157 76h-422q-11 0 -14 -10z" />
<glyph unicode="S" horiz-adv-x="1257" d="M33 193q-11 21 -11 40q0 35 37 62q30 19 56.5 16.5t42.5 -22.5q66 -74 150 -119t214 -45q113 0 206.5 25t162.5 84t88 145q6 27 6 52q1 70 -49 116q-66 62 -252 119q-24 8 -73 22q-88 26 -133.5 41.5t-114 49.5t-99 69.5t-48.5 93.5q-10 32 -10 68q0 30 7 63 q20 94 81 170t142 120.5t167.5 67.5t166.5 23q77 0 142.5 -13.5t118 -39t88 -49.5t75.5 -58q22 -18 22 -48.5t-26 -57.5q-22 -23 -50.5 -27t-47.5 13q-46 42 -83.5 67.5t-108.5 47.5t-159 22q-82 0 -162 -25.5t-143.5 -81.5t-79.5 -131q-5 -27 -3.5 -49t11.5 -40.5t25 -34 t38 -29t49 -25.5t58 -23t66 -21.5t73 -21.5q17 -5 27 -8t25.5 -7.5t28.5 -8.5q42 -13 76.5 -25.5t71 -28.5t65 -32.5t55.5 -37.5t46 -43.5t34 -50.5t22 -59.5t7 -69t-9 -79.5q-18 -85 -65 -154t-109 -113.5t-140 -74.5t-155.5 -42.5t-158.5 -12.5q-152 0 -287.5 67 t-173.5 144z" />
<glyph unicode="T" horiz-adv-x="1091" d="M176 1364q6 31 31 50.5t57 19.5h883q32 0 48.5 -20.5t10.5 -51.5t-31 -51.5t-57 -20.5h-358q-12 0 -15 -10l-256 -1206q-6 -32 -31 -53t-57 -21q-31 0 -46 21t-9 53l256 1206q3 10 -6 10h-360q-32 0 -49 21t-11 53z" />
<glyph unicode="U" horiz-adv-x="1495" d="M149 374q-3 28 -3 58q0 59 12 123l172 805q6 32 31 53t57 21q31 0 46 -21t9 -53l-172 -805q-10 -50 -10 -95q0 -120 72 -211q100 -126 280 -126q118 0 230 57.5t191.5 157t104.5 217.5l172 805q6 32 30.5 53t55.5 21t47.5 -21t10.5 -53l-172 -805q-33 -156 -138.5 -288.5 t-254.5 -209.5t-306 -77q-94 0 -176.5 29.5t-141.5 81.5t-98.5 124.5t-48.5 158.5z" />
<glyph unicode="V" horiz-adv-x="1331" d="M178 1333q-6 29 11 57t49 40q31 12 55.5 1t30.5 -40l260 -1129q0 -6 4.5 -6t7.5 6l739 1129q19 29 48.5 40t54.5 -1q26 -12 31.5 -40t-13.5 -57l-846 -1288q-28 -45 -72 -45h-6q-22 -1 -37 11t-20 34z" />
<glyph unicode="W" horiz-adv-x="1966" d="M233 1339q-4 31 15 57.5t51 35.5q31 9 52 -5t26 -45l133 -1099q0 -5 1.5 -7t4.5 -0.5t6 5.5l492 780q31 51 82 51q52 0 61 -51l158 -778q1 -5 3.5 -6.5t5.5 0t5 6.5l600 1099q17 31 44.5 45t54.5 5q29 -9 37 -35.5t-9 -57.5l-702 -1288q-30 -53 -82 -53q-27 -2 -44 11.5 t-20 39.5l-164 793q0 6 -4.5 6t-7.5 -6l-500 -793q-34 -51 -83 -51h-5q-51 0 -57 53z" />
<glyph unicode="X" horiz-adv-x="1173" d="M-108.5 57q1.5 28 26.5 54l576 600q7 7 4 16l-320 596q-13 25 -2.5 53t39.5 47t55.5 13.5t40.5 -31.5l301 -557q6 -9 17 0l536 559q23 26 53 30.5t52 -14.5t20 -46.5t-28 -53.5l-574 -598q-7 -7 -4 -16l320 -598q13 -25 2.5 -53.5t-39.5 -47.5t-56 -13t-41 32l-297 559 q-8 8 -16 0l-541 -561q-23 -26 -52.5 -31t-51.5 14t-20.5 47z" />
<glyph unicode="Y" horiz-adv-x="1138" d="M158.5 1374q9.5 29 38.5 47q29 19 56.5 14.5t39.5 -30.5l301 -608q8 -8 16 0l559 608q25 26 55 30.5t50 -14.5t18 -47t-24 -53l-621 -674q-4 -4 -8 -12l-119 -561q-6 -32 -31.5 -53t-56.5 -21t-46 21t-9 53l119 561v12l-334 674q-13 24 -3.5 53z" />
<glyph unicode="Z" horiz-adv-x="1329" d="M-39 63q2 27 25 50l1153 1165q3 3 4 5.5t-0.5 4.5t-5.5 2h-760q-32 0 -49 21t-11 53q6 31 31.5 50.5t57.5 19.5h915q16 0 22 -2q40 -6 46 -46v-7q0 -35 -29 -62l-1149 -1161q-5 -4 -3.5 -8.5t7.5 -4.5h819q32 0 48 -20.5t10 -52.5q-6 -31 -31 -50.5t-57 -19.5h-975 q-30 -3 -52 16q-18 20 -16 47z" />
<glyph unicode="[" horiz-adv-x="794" d="M-2 -203l360 1696q6 28 28 45.5t50 17.5h459q28 0 41.5 -17.5t7.5 -45.5q-6 -26 -27 -42.5t-49 -16.5h-352q-21 0 -24 -21l-328 -1536q-3 -20 16 -20h352q28 0 42.5 -18t9.5 -46q-6 -26 -28 -42.5t-50 -16.5h-459q-28 0 -41.5 17.5t-7.5 45.5z" />
<glyph unicode="\" horiz-adv-x="1206" d="M276 1577q-7 28 7 44.5t43 16.5h36q42 0 54 -36l518 -1799q7 -28 -6.5 -44.5t-42.5 -16.5h-37q-41 0 -53 37z" />
<glyph unicode="]" horiz-adv-x="757" d="M-135 -207q4 28 26 46t50 18h352q21 0 24 20l328 1536q3 21 -16 21h-353q-28 0 -42.5 16.5t-8.5 42.5q6 28 28 45.5t50 17.5h459q28 0 41.5 -17.5t7.5 -45.5l-360 -1696q-6 -28 -28 -45.5t-50 -17.5h-459q-28 0 -41.5 16.5t-7.5 42.5z" />
<glyph unicode="^" horiz-adv-x="876" d="M-14 896.5q0 23.5 18 47.5l447 580q22 32 59 32q28 3 45 -20q2 -3 4 -8t4 -8l199 -576q8 -24 -4 -48t-39 -36q-26 -13 -47 -5.5t-29 32.5l-164 475q-3 10 -14 0l-367 -477q-42 -51 -92 -25q-20 13 -20 36.5z" />
<glyph unicode="_" horiz-adv-x="1239" d="M-168 -262q6 28 28 45.5t50 17.5h1110q28 0 41.5 -17.5t7.5 -45.5v-2q-6 -28 -28 -46t-50 -18h-1110q-28 0 -41.5 18t-7.5 46v2z" />
<glyph unicode="`" horiz-adv-x="563" d="M63 1444.5q9 22.5 43 36.5l48 20q56 26 75 -22l78 -176q15 -31 0.5 -52.5t-49.5 -21.5q-46 0 -70 31l-114 137q-20 25 -11 47.5z" />
<glyph unicode="a" horiz-adv-x="1345" d="M90 526q15 149 97 275.5t208.5 200t266.5 73.5q126 0 230 -61t146 -166q3 -7 8 -6.5t7 8.5l34 145q8 33 31.5 50t55.5 10q27 -6 40 -29.5t7 -54.5l-158 -738q-5 -25 -5 -45q0 -31 12 -53q12 -20 35 -20q16 0 38 10q20 9 38 9q13 0 25 -5q28 -11 35 -43q6 -27 -7 -50 t-40 -34q-51 -22 -102 -22q-64 0 -106.5 47.5t-53.5 115.5q-1 6 -5 7.5t-7 -3.5q-70 -82 -169.5 -124.5t-205.5 -42.5q-140 0 -250.5 73t-165.5 199q-43 97 -43 208q0 32 4 66zM233 526q-3 -28 -4 -54q0 -134 82 -232q97 -118 250 -117.5t275 118t141 285.5q3 25 3 49 q0 137 -84 238q-98 119 -251 119t-274 -119t-138 -287z" />
<glyph unicode="b" horiz-adv-x="1284" d="M41 84l291 1358q6 33 28 53.5t52 20.5q36 0 53 -25t10 -57l-106 -488q-1 -7 2 -10t8 2q55 63 149.5 100t186.5 37q140 0 251 -73.5t167 -199.5q44 -100 45 -214q0 -30 -4 -62q-12 -112 -64 -213t-129 -174t-177.5 -116t-205.5 -43q-123 0 -224.5 60t-148.5 163 q-3 6 -6.5 5t-5.5 -7l-31 -131q-17 -70 -73 -70q-35 0 -55 24q-15 18 -15 42q0 9 2 18zM287 526q-3 -28 -3 -54q0 -134 80 -232q96 -118 249.5 -117.5t275.5 118t141 285.5q3 25 3 49q0 137 -84 238q-98 119 -251 119t-273.5 -119t-137.5 -287z" />
<glyph unicode="c" horiz-adv-x="1077" d="M92 567q30 157 118.5 274t208.5 175.5t255 58.5q105 0 189.5 -47t131.5 -102q19 -24 15.5 -53.5t-23.5 -45.5q-25 -21 -51 -21q-31 0 -64 30q-105 98 -229 98q-46 0 -96 -14.5t-100 -45t-92 -73t-74 -103t-45 -131.5q-9 -42 -10 -83q0 -40 10 -80q18 -80 56 -142 t107 -100.5t154 -38.5q22 0 43.5 2t39.5 6.5t33.5 8.5t31 11.5t25.5 12t22.5 13t17.5 12t15.5 11.5t11.5 9q30 20 55 20q4 -1 6 -1q28 -2 45 -25q18 -26 9 -55t-36 -50q-152 -118 -329 -118q-114 0 -209.5 48.5t-155.5 129t-84 188.5q-13 56 -13 113q0 53 11 108z" />
<glyph unicode="d" horiz-adv-x="1355" d="M86 526q15 149 97 275.5t208 200t266 73.5q126 0 230.5 -61t146.5 -166q3 -7 8 -6.5t7 8.5l131 604q6 33 30 49.5t56 9.5q27 -6 40 -29t7 -54l-254 -1197q-5 -25 -5 -45q0 -31 12 -53q12 -20 35 -20q16 0 38 10q20 9 38 9q13 0 25 -5q28 -11 35 -43q6 -27 -7 -50t-40 -34 q-51 -22 -103 -22q-64 0 -106 47.5t-53 115.5q-1 6 -5.5 7.5t-7.5 -3.5q-70 -82 -169.5 -124.5t-204.5 -42.5q-140 0 -250.5 73t-165.5 199q-43 97 -43 208q0 32 4 66zM229 526q-3 -28 -4 -54q0 -134 82 -232q97 -118 250 -117.5t275 118t141 285.5q3 25 3 49q0 137 -84 238 q-98 119 -251 119t-274 -119t-138 -287z" />
<glyph unicode="e" horiz-adv-x="1159" d="M90 549q16 129 75 232.5t142 165.5t176 95t187 33q188 0 302.5 -88t114.5 -231q0 -103 -57 -180t-146.5 -117.5t-203.5 -60.5q-103 -18 -203 -18h-21q-110 2 -212 19q-6 2 -9 -1t-2 -9q30 -266 349 -266q151 0 241 84q24 21 50.5 22t50.5 -18q24 -21 25 -49.5t-23 -52.5 q-71 -62 -166 -95.5t-199 -33.5q-63 0 -127.5 13.5t-136 52.5t-122 99.5t-76.5 164.5q-16 63 -16 138q0 48 7 101zM240 555q-3 -8 8 -12q88 -17 181 -22q30 -2 60 -1l126 6q93 10 165.5 36.5t118 78t45.5 123.5q0 83 -77 125.5t-183 42.5q-43 0 -90 -8.5t-105.5 -34.5 t-106.5 -65.5t-87.5 -109.5t-54.5 -159z" />
<glyph unicode="f" horiz-adv-x="653" d="M-225 -332q3 38 28 55t56 17q61 0 93.5 34.5t55.5 96.5q6 16 12 37.5t15.5 59.5t17 70t22 97.5t24.5 111.5t31.5 144t35.5 164l78 358h-84q-40 0 -61 25q-13 16 -13 37q0 12 4 26q6 25 25 39.5t45 14.5h114q48 228 129.5 332t239.5 104q64 0 123 -27q51 -24 51 -64 q0 -16 -8 -34q-17 -41 -62 -41q-17 0 -38 6q-8 2 -37.5 11.5t-44.5 11.5q-11 2 -22 2q-24 0 -45 -10q-30 -14 -49.5 -37.5t-38 -69.5t-29 -83.5t-25.5 -100.5h157q40 0 61 -28q14 -19 14 -43q0 -11 -3 -23q-12 -48 -72 -48h-190l-76 -368q-119 -570 -164 -697 q-45 -136 -108 -197t-178 -61q-33 0 -60 19q-24 17 -24 51v8z" />
<glyph unicode="g" horiz-adv-x="1284" d="M92 526q15 149 97 275.5t208.5 200t266.5 73.5q119 0 218 -54.5t160 -150.5q12 -12 15 4l22 107q8 32 31.5 53t54.5 21q32 0 48.5 -21t9.5 -53l-207 -973q-91 -438 -572 -438q-106 0 -199.5 32.5t-135.5 80.5q-15 12 -14.5 41t20.5 51q22 23 49.5 29t50.5 -13 q89 -78 260 -78q84 0 163.5 30t145.5 99t88 166l27 115q1 7 -2 8.5t-8 -4.5q-52 -66 -151 -106.5t-191 -40.5q-140 0 -250.5 73t-165.5 199q-43 97 -43 208q0 32 4 66zM236 526q-3 -28 -3 -54q0 -133 81 -232q96 -117 249 -117t275 117.5t141 285.5q3 25 3 49q0 137 -84 238 q-98 119 -251 119t-273.5 -119t-137.5 -287z" />
<glyph unicode="h" horiz-adv-x="1171" d="M43 86l281 1362q13 66 73 66q8 0 17 -1q29 -4 44.5 -26t10.5 -49q-1 -5 -53.5 -260t-53.5 -263q56 76 139 118t169 42q112 0 197 -53q85 -54 123 -146q24 -59 24 -123q0 -38 -8 -77q-21 -105 -84 -381q-15 -65 -16 -107q0 -64 37 -72q18 -3 42 7q25 10 44 10q39 0 56 -41 q12 -31 -7.5 -59.5t-61.5 -40.5q-50 -12 -72 -12q-107 0 -154 79q-25 41 -25 108q0 61 21 142q49 193 80 355q6 28 6 53q0 37 -12 71q-30 84 -100 115q-53 23 -117 23q-20 0 -41 -2q-255 -32 -307 -306l-107 -559q-6 -33 -31.5 -49t-58.5 -10q-31 7 -46 31t-9 55z" />
<glyph unicode="i" horiz-adv-x="526" d="M84 143q-2 17 -2 34q0 43 12 93l152 729q6 26 24 41t43 15q37 0 58 -28q15 -20 15 -44q0 -10 -3 -22l-147 -703q-7 -25 -11 -61q-2 -32 13.5 -61t52.5 -17q30 14 62 12t50 -31q15 -25 3 -55.5t-41 -42.5q-45 -20 -97 -20q-85 0 -131 46t-53 115zM319 1348l21 94 q6 32 31.5 53t56.5 21t46 -21t9 -53l-20 -94q-6 -32 -30.5 -53t-55.5 -21t-47.5 21t-10.5 53z" />
<glyph unicode="j" horiz-adv-x="471" d="M-223 -340l2 4q6 30 28.5 48.5t53.5 23.5q30 4 47 8.5t40.5 18t39 41t24.5 69.5l236 1108q7 32 32 53t56 21t46.5 -21t8.5 -53l-235 -1108q-14 -64 -39.5 -113t-56 -79t-69.5 -50.5t-75 -29t-78 -11.5q-32 -1 -49.5 19t-11.5 51zM326 1348l20 94q7 32 32 53t56 21 t46.5 -21t8.5 -53l-20 -94q-6 -32 -30.5 -53t-55.5 -21t-47 21t-10 53z" />
<glyph unicode="k" horiz-adv-x="1067" d="M41 74l291 1368q6 33 27.5 53.5t52.5 20.5t50 -21t13 -53l-194 -912q-2 -6 2 -8t8 2l708 531q28 21 59 18.5t46 -24.5q11 -18 11 -35q0 -34 -44 -66l-489 -368q-7 -7 -2 -15l319 -444q16 -22 13 -52t-29 -51q-26 -19 -56 -19h-6q-34 2 -49 26l-321 446q-6 6 -15 0 l-192 -141q-8 -8 -8 -13l-52 -243q-8 -34 -28.5 -54t-51.5 -20q-32 0 -51 21.5t-12 52.5z" />
<glyph unicode="l" horiz-adv-x="516" d="M84 143q-2 13 -2 28q0 41 12 99l242 1137q13 55 67 55q37 0 57 -28q15 -20 15 -45q0 -10 -2 -21l-237 -1110q-10 -49 -11 -61q-2 -32 13.5 -61t52.5 -17q30 14 62 12t50 -31q15 -25 3 -55.5t-41 -42.5q-45 -20 -97 -20q-85 0 -131 46t-53 115z" />
<glyph unicode="m" horiz-adv-x="1953" d="M86 965q-12 31 7.5 59.5t62.5 40.5q31 10 75 10q67 0 118 -36.5t69 -106.5q3 -13 12 -4q55 69 140.5 108t168.5 39q105 0 186.5 -47.5t123.5 -128.5q168 176 403 176q112 0 197 -53q85 -54 123 -146q24 -59 24 -123q0 -38 -8 -77q-21 -105 -84 -381q-15 -65 -16 -107 q0 -64 37 -72q17 -4 42 7q26 10 45 10q40 0 56 -41q12 -31 -7.5 -59.5t-62.5 -40.5q-50 -12 -72 -12q-106 0 -153 78q-25 41 -25 108q0 61 21 143q49 193 80 355q5 26 5 50q0 38 -12 74q-30 84 -100 115q-53 23 -117 23q-20 0 -41 -2q-236 -20 -301 -275l-104 -592 q-6 -35 -30.5 -48.5t-55.5 -8.5q-51 7 -51 65q0 15 4 35q12 69 27 150t23 126.5t18 100.5t14.5 84t9 64t5 54t0 41t-3.5 37t-9 31q-30 84 -100 115q-53 23 -117 23q-20 0 -41 -2q-255 -33 -307 -306l-107 -559q-6 -33 -31.5 -49t-58.5 -10q-31 7 -46 31t-9 55l139 676 q14 55 14 94q0 26 -7 46q-12 35 -48 36q-11 0 -25 -4q-17 -5 -28.5 -6.5t-26.5 -0.5t-26.5 10.5t-18.5 27.5z" />
<glyph unicode="n" horiz-adv-x="1263" d="M88 965q-12 31 7.5 59.5t62.5 40.5q31 10 75 10q68 0 118.5 -36t68.5 -107q3 -13 12 -4q55 69 140.5 108t168.5 39q112 0 197 -53q85 -54 123 -146q24 -59 24 -123q0 -38 -8 -77q-21 -105 -84 -381q-15 -64 -15 -105q0 -63 35 -73q18 -5 44 6q25 10 44 10q39 0 56 -41 q12 -31 -7.5 -59.5t-62.5 -40.5q-50 -12 -71 -12q-107 0 -154 79q-25 41 -25 108q0 61 21 142q49 193 80 355q6 28 6 53q0 37 -12 71q-30 84 -100 115q-53 23 -117 23q-20 0 -41 -2q-255 -33 -307 -306l-107 -559q-6 -33 -31.5 -49t-58.5 -10q-31 7 -46 31t-9 55l139 676 q14 55 14 94q0 26 -7 46q-12 35 -48 36q-11 0 -25 -4q-17 -5 -28.5 -6.5t-26.5 -0.5t-26.5 10.5t-18.5 27.5z" />
<glyph unicode="o" horiz-adv-x="1200" d="M86 526q15 149 97 275.5t208 200t266 73.5t251 -73.5t167 -199.5q44 -100 45 -214q0 -30 -4 -62q-16 -149 -99 -275t-209.5 -198.5t-266.5 -72.5t-250.5 73t-165.5 199q-43 97 -43 208q0 32 4 66zM229 526q-3 -28 -4 -54q0 -134 82 -232q97 -118 250 -117.5t275 118 t141 285.5q3 25 3 49q0 137 -84 238q-98 119 -251 119t-274 -119t-138 -287z" />
<glyph unicode="p" horiz-adv-x="1349" d="M45 -326l242 1147q5 25 5 45q0 32 -12 54q-12 20 -35 20q-16 0 -38 -10q-20 -9 -38 -9q-13 0 -25 5q-28 11 -35 43q-6 27 7 50t40 34q51 22 102 22q63 0 106 -48t54 -116q3 -13 12 -4q70 82 169.5 125t205.5 43q140 0 250.5 -73t165.5 -199q43 -98 43 -209q0 -32 -4 -66 q-15 -149 -97 -275t-208.5 -199.5t-266.5 -73.5q-126 0 -230.5 61t-146.5 166q-3 7 -7.5 6.5t-6.5 -8.5l-119 -555q-8 -33 -31 -50t-55 -10q-27 6 -40 29.5t-7 54.5zM373 528q-3 -25 -3 -49q0 -137 84 -237q98 -119 251 -119t273.5 118.5t137.5 286.5q3 28 3 54 q0 133 -81 232q-97 118 -250 118t-274.5 -118t-140.5 -286z" />
<glyph unicode="q" horiz-adv-x="1286" d="M88 528q16 149 99 275t210 199t267 73q123 0 224 -60t148 -163q3 -6 7 -5t6 7l30 131q17 70 74 70q34 0 55 -23q15 -18 15 -43q0 -9 -2 -18l-279 -1307q-6 -33 -28 -53.5t-52 -20.5q-36 0 -53 25t-10 57l94 437q1 7 -2 10t-8 -2q-55 -63 -149.5 -100t-186.5 -37 q-140 0 -251 73.5t-167 199.5q-44 99 -44 213q0 31 3 62zM231 528q-3 -25 -3 -49q0 -137 84 -237q98 -119 251 -119t274 118.5t138 286.5q3 28 3 54q0 133 -81 232q-97 118 -250 118t-275 -118t-141 -286z" />
<glyph unicode="r" horiz-adv-x="872" d="M45 965q-12 31 7.5 59.5t62.5 40.5q31 10 73 10q80 0 132.5 -51t52.5 -150q0 -14 10 -4q63 76 162 135.5t198 69.5q7 1 14 1q33 0 59 -13q30 -15 34 -51q1 -7 1 -13q0 -27 -19 -47q-23 -24 -74 -30q-95 -12 -171 -41t-121.5 -64t-79 -80t-48 -80.5t-23.5 -74.5l-110 -512 q-14 -70 -80 -70q-32 0 -50.5 21.5t-11.5 52.5l146 688q14 62 14 103q0 27 -6 45q-10 31 -41 30q-14 0 -31 -6q-24 -9 -43 -9q-41 0 -57 40z" />
<glyph unicode="s" horiz-adv-x="892" d="M18 123q-20 29 -20 53q0 29 27 53q17 17 46.5 15t53.5 -29q92 -100 242 -100q114 0 192.5 48t87.5 120q1 8 1 17q0 50 -42 88q-48 44 -166 77q-195 55 -265 127q-58 60 -58 146q0 17 2 36q15 126 129 213.5t274 87.5q97 0 173 -28t112 -62q26 -26 26 -52q0 -18 -12 -36 q-18 -25 -47 -26.5t-53 16.5q-75 53 -213 53q-108 0 -173 -50t-73 -116q-1 -7 -1 -15q1 -51 45 -85q50 -38 198 -82q89 -27 146 -58t87 -70q29 -40 39 -84q7 -31 7 -70q0 -16 -1 -34q-9 -126 -134.5 -211t-305.5 -85q-110 0 -196 42t-128 101z" />
<glyph unicode="t" horiz-adv-x="641" d="M106 983q6 31 31.5 51.5t57.5 20.5h124q13 0 13 10l43 195q6 33 30.5 52t55.5 19q30 0 46.5 -19t10.5 -52l-43 -195q0 -10 8 -10h121q32 0 49 -20.5t11 -51.5t-31.5 -51.5t-57.5 -20.5h-120q-12 0 -15 -10l-131 -625q-7 -47 -8 -85.5t18.5 -58.5t57.5 -9q17 5 28.5 6.5 t26.5 0.5t26.5 -10.5t18.5 -27.5q12 -31 -7.5 -59.5t-61.5 -40.5q-41 -12 -78 -12q-17 0 -34 2q-51 8 -89 46t-47 111q-3 21 -3 44q0 60 17 141l123 577q3 10 -6 10h-125q-32 0 -49 20.5t-11 51.5z" />
<glyph unicode="u" horiz-adv-x="1263" d="M86 963q-12 31 7.5 59.5t62.5 40.5q50 12 71 12q105 0 153 -79q25 -41 25 -109q0 -61 -20 -142q-50 -196 -80 -354q-6 -28 -6 -54q0 -37 12 -71q31 -84 101 -114q53 -23 115 -23q20 0 42 2q256 33 308 305l106 559q6 33 31.5 49.5t58.5 10.5q31 -7 46 -31t9 -55 l-139 -676q-14 -55 -14 -94q0 -27 7 -47q12 -35 48 -35q11 0 25 4q17 5 28.5 6.5t26.5 0.5t26.5 -10.5t18.5 -27.5q12 -31 -7.5 -59.5t-62.5 -40.5q-31 -10 -75 -10q-68 0 -118.5 36t-68.5 107q-3 13 -12 4q-55 -69 -140.5 -108t-168.5 -39q-112 0 -197 53t-123 145 q-24 59 -24 124q0 38 8 77q21 105 84 381q15 64 15 105q0 63 -35 73q-18 5 -44 -6q-25 -10 -44 -10q-40 0 -56 41z" />
<glyph unicode="v" horiz-adv-x="1161" d="M117 965q-12 31 7.5 59.5t61.5 40.5q38 10 64 10q99 -1 149 -87q30 -52 30 -129q0 -51 -13 -114l-88 -415q-7 -33 -7 -60q0 -54 28 -86q42 -47 116 -47q73 0 136.5 25.5t109.5 69.5t85 102.5t63 125.5t43 137.5t25.5 138.5t10.5 130q2 25 2 47q0 34 -4 62 q-1 33 19.5 56.5t50.5 23.5q29 0 48 -18.5t21 -47.5q3 -63 5 -133v-19q0 -61 -8 -124q-10 -74 -23.5 -147t-41 -143.5t-62 -133.5t-86 -116t-112 -91.5t-141.5 -60t-174 -21.5q-30 0 -60.5 5.5t-64.5 18.5t-59 34.5t-46 54.5q-20 33 -24 78q-1 12 -1 24q0 36 7 80l95 467 q13 59 13 99q0 27 -6 45q-11 32 -44 32q-11 0 -25 -4q-17 -5 -28.5 -6.5t-26.5 -0.5t-26.5 10.5t-18.5 27.5z" />
<glyph unicode="w" horiz-adv-x="1787" d="M117 965q-12 31 7.5 59.5t61.5 40.5q38 10 66 10q98 -3 150 -89q31 -53 31 -130q0 -50 -13 -111l-90 -415q-8 -34 -7 -62q0 -52 26 -84q41 -48 114 -47q146 0 247.5 78t127.5 209l118 573q6 27 24.5 42.5t45.5 15.5q34 -1 53 -27q13 -19 13 -42q0 -10 -2 -21l-136 -635 q-7 -32 -7 -59q1 -55 29 -87q42 -48 116 -47q73 0 136.5 25.5t109.5 69.5t85 102.5t63 125.5t43 137.5t25.5 138.5t10.5 130q2 25 2 47q0 34 -4 62q-1 33 19 56.5t50 23.5q29 0 49 -18.5t21 -47.5q2 -63 4 -133q0 -9 1 -19q-1 -61 -9 -124q-10 -74 -23 -147t-40.5 -143.5 t-62 -133.5t-86 -116t-112 -91.5t-141.5 -60t-174 -21.5q-69 0 -137 30t-99 95q-4 12 -14 2q-153 -127 -379 -127q-30 0 -60.5 5.5t-64 18.5t-59.5 35t-46 55q-20 32 -24 77q-1 12 -1 24q0 36 7 80l99 467q13 58 13 97q0 29 -7 47q-12 32 -45 32q-11 0 -25 -4 q-17 -5 -28.5 -6.5t-26.5 -0.5t-26.5 10.5t-18.5 27.5z" />
<glyph unicode="x" horiz-adv-x="1122" d="M20.5 69.5q1.5 29.5 24.5 51.5l453 444q-93 240 -121 289l-9 18t-8.5 17.5t-7.5 14.5t-8.5 13t-8 9.5t-9 7.5t-10 3.5t-11 0.5t-12.5 -4q-25 -11 -45 -11q-39 0 -55 42q-6 14 -6 26q0 31 36 53q50 31 115 31q25 0 46 -7t33 -13.5t27 -26.5t20 -28t19.5 -38t18.5 -38 q34 -67 104 -250l373 366q23 22 51.5 21.5t50.5 -23.5q22 -22 20.5 -51t-24.5 -51l-413 -408q98 -261 124 -309q26 -58 42 -74t49 -2q26 11 46 11q38 0 54 -41q5 -12 5 -23q0 -20 -16 -38q-24 -28 -61 -40t-73 -12q-52 0 -93.5 34.5t-76.5 117.5q-21 39 -111 268l-410 -404 q-23 -22 -51.5 -21.5t-50.5 23.5q-22 22 -20.5 51.5z" />
<glyph unicode="y" horiz-adv-x="1208" d="M82 -281.5q-4 31.5 14 52.5q22 26 54.5 27.5t52.5 -15.5q88 -65 186 -70q15 -1 29 -1q214 0 321 171q50 81 82 217q1 7 -3 9.5t-9 -3.5q-57 -59 -135.5 -91.5t-155.5 -32.5q-177 0 -275 124q-71 91 -71 209q0 44 10 93l105 354q18 63 18 104q0 45 -21 65q-12 11 -29 11 q-14 0 -32 -8q-25 -10 -44 -10q-40 0 -56 41q-12 31 7.5 59.5t62.5 40.5q42 10 71 10q109 0 164 -87q29 -45 29 -112q0 -62 -25 -143q-5 -16 -21 -65.5t-22 -69.5q-51 -165 -57 -206q-3 -19 -3 -37q0 -35 11 -66q31 -87 98 -127q53 -31 116 -31q16 0 32 2q238 30 301 279 l112 585q6 33 32 49.5t59 10.5q31 -7 46 -31t9 -55l-141 -678q-15 -83 -20 -109t-20.5 -95.5t-27 -105t-31.5 -85t-43 -88.5q-72 -117 -202 -185q-114 -60 -244 -60q-17 0 -35 1q-159 10 -268 100q-27 21 -31 52.5z" />
<glyph unicode="z" horiz-adv-x="1056" d="M20 66.5q-2 25.5 19 48.5l729 762q3 3 3.5 6t-1.5 4.5t-6 1.5q-67 2 -178.5 22.5t-175.5 20.5q-43 0 -87 -22.5t-63 -43.5q-18 -20 -45.5 -21.5t-50.5 19.5q-22 24 -18.5 50t28.5 49q98 92 240 92q50 0 130.5 -12.5t142.5 -23.5q51 -9 105 -9h24q68 2 108 28l4 2 q20 15 43.5 13t42.5 -21q21 -21 23 -46t-19 -48l-696 -727q-5 -5 -3.5 -9.5t7.5 -4.5h4q70 -1 193 -31q127 -32 212 -31q26 0 51.5 6.5t36.5 11.5t39 19t49 14q27 0 43 -22q18 -21 16.5 -47.5t-24.5 -46.5q-81 -70 -223 -70q-101 0 -252 36t-211 36q-64 0 -100 -31l-23 -23 q-22 -20 -48 -19t-46 21q-21 21 -23 46.5z" />
<glyph unicode="{" horiz-adv-x="813" d="M33 651q6 26 24 43t41 17q133 0 200.5 60t94.5 185l31 156q14 65 35 119t58.5 109.5t88 98.5t127 79t172.5 57q29 6 46.5 -5t19.5 -34q1 -23 -16.5 -42.5t-45.5 -27.5q-72 -20 -126.5 -50t-89 -62.5t-59.5 -77.5t-39 -86t-26 -98l-30 -154q-25 -115 -85 -180t-159 -99 q-13 -4 -14 -10t10 -10q86 -36 118 -100t7 -179l-35 -153q-12 -57 -16.5 -98.5t1.5 -86.5t27 -77.5t63 -62.5t105 -50q25 -7 33.5 -28t-2.5 -46q-9 -20 -32.5 -30t-49.5 -4q-87 21 -148 57t-93.5 78.5t-46 98t-11.5 109.5t16 119l35 156q27 125 -14 185.5t-174 60.5 q-23 0 -35 17.5t-6 45.5z" />
<glyph unicode="|" horiz-adv-x="460" d="M-35 -342l397 1872q6 29 29.5 48t52.5 19t43.5 -19t8.5 -48l-398 -1872q-6 -29 -29.5 -48.5t-52.5 -19.5t-43 19t-8 49z" />
<glyph unicode="}" horiz-adv-x="806" d="M-145 -242q-2 25 14.5 46t44.5 28q72 20 126.5 50t89 62.5t60 78t39 86.5t25.5 98l31 153q25 116 83.5 180t159.5 99q28 9 4 20q-83 34 -116 99.5t-8 179.5l34 154q10 47 14.5 82.5t3.5 74t-13 68.5t-34 58.5t-60 51t-91 39.5q-25 8 -34 27.5t1 42.5q11 23 33.5 34 t48.5 5q88 -21 149 -57t94 -79t46.5 -98.5t11.5 -109.5t-16 -119l-35 -156q-27 -125 14.5 -185t174.5 -60q23 0 35 -17t6 -43q-6 -28 -24.5 -45.5t-41.5 -17.5q-133 0 -200.5 -60t-94.5 -186l-31 -156q-18 -82 -48 -148t-83.5 -130t-141.5 -111t-206 -73q-29 -6 -47 4 t-18 30z" />
<glyph unicode="~" horiz-adv-x="1202" d="M100 551q-26 38 19 78q147 139 278 139q36 0 75 -10.5t64 -21t87 -38.5q73 -36 120.5 -51.5t96.5 -15.5q90 0 184 61q56 38 86 -2q20 -27 -25 -69q-148 -140 -278 -140q-36 0 -75 10.5t-63 20.5t-87 39q-73 36 -120.5 51.5t-96.5 15.5q-88 0 -185 -63q-56 -35 -80 -4z " />
<glyph unicode="&#xa1;" horiz-adv-x="550" d="M23 59l12 60l225 852q13 59 59 59q45 0 35 -57l-135 -854l-12 -53q-6 -28 -27 -46t-49 -18h-57q-28 0 -42.5 16t-8.5 41zM281 1284l18 88q6 28 27 46t49 18h61q28 0 42.5 -18t8.5 -46l-18 -88q-6 -28 -28 -45.5t-50 -17.5h-61q-28 0 -41.5 17.5t-7.5 45.5z" />
<glyph unicode="&#xa2;" horiz-adv-x="1038" d="M92 526q42 203 210.5 356.5t377.5 186.5q12 0 12 10l25 117q6 28 26 46t45 18t36 -18t5 -46l-22 -113q-3 -10 8 -10q132 -9 227 -74q26 -18 24 -48t-30 -58q-42 -45 -98 -14q-62 42 -154 51q-10 0 -12 -10l-168 -785q-2 -10 8 -10q100 10 179 51q64 31 92 -16 q14 -26 2.5 -57t-43.5 -48q-118 -64 -260 -73q-9 0 -13 -11l-22 -112q-6 -27 -26 -45.5t-44 -18.5q-25 0 -37 18t-6 46l25 116q0 11 -8 11q-196 32 -298.5 184.5t-60.5 355.5zM236 526q-31 -144 38.5 -254t206.5 -139q9 -3 13 8l163 772q2 5 -1 7.5t-9 1.5 q-148 -29 -264 -140.5t-147 -255.5z" />
<glyph unicode="&#xa3;" horiz-adv-x="1150" d="M-88 47l2 8q10 41 47 47l135 33q8 3 10 10l95 449q3 10 -8 10h-99q-28 0 -41.5 18t-7.5 46l2 14q6 28 28 45.5t50 17.5h98q9 0 13 11l45 211q46 221 194.5 354t360.5 133q233 0 348 -156q21 -27 12 -59.5t-41 -54.5l-2 -2q-33 -21 -61.5 -18t-49.5 28q-42 56 -98 84.5 t-141 28.5q-137 0 -232.5 -90.5t-128.5 -247.5l-45 -211q-1 -4 1.5 -7.5t7.5 -3.5h497q28 0 41.5 -17.5t7.5 -45.5l-2 -14q-6 -28 -28 -46t-50 -18h-497q-10 0 -13 -10l-94 -440q0 -11 8 -11h654q28 0 42.5 -17.5t8.5 -45.5l-4 -17q-6 -28 -27 -45.5t-49 -17.5h-946 q-22 0 -34 13.5t-9 33.5z" />
<glyph unicode="&#xa5;" horiz-adv-x="1230" d="M55 322q6 27 28.5 45t49.5 18h318q13 0 16 14l41 189q3 14 -12 14h-318q-27 0 -41 20t-8 48q6 27 28.5 45t49.5 18h244q9 0 12.5 5.5t-0.5 13.5l-275 526q-15 29 -2 62t47 55q32 20 63 14.5t48 -33.5l283 -545q5 -9 13 -9t15 9l512 543q28 29 62.5 35t60.5 -14 q24 -22 21.5 -54.5t-29.5 -60.5l-500 -528q-6 -8 -4.5 -13.5t10.5 -5.5h244q27 0 41 -19.5t8 -47.5q-6 -27 -28 -45.5t-49 -18.5h-316q-13 0 -16 -14l-41 -189q-3 -14 12 -14h315q27 0 41.5 -20t8.5 -48q-6 -27 -28.5 -45t-49.5 -18h-316q-13 0 -16 -14l-33 -156 q-9 -37 -37 -60.5t-63 -23.5q-36 0 -54.5 24t-9.5 60l33 156q3 14 -12 14h-318q-27 0 -41 20t-8 48z" />
<glyph unicode="&#xa7;" horiz-adv-x="1335" d="M-69 -104q1 30 24 55q21 27 54 30.5t65 -14.5q207 -112 413 -112q70 0 135.5 10.5t124 33t99 62t51.5 92.5q18 87 -68 130t-307 93q-96 22 -154.5 38t-123.5 43t-97.5 57.5t-49 76.5t-3.5 105q21 97 96.5 173t198.5 118q7 1 8 5t-4 7q-139 76 -108 221q31 148 183.5 241 t403.5 93q257 0 394 -102q27 -22 23 -52t-29 -49q-42 -39 -115 -6l-21 10q-22 10 -31.5 13.5t-34 13t-44 14t-47.5 10.5t-59 8.5t-64 2.5q-181 0 -278.5 -51t-114.5 -129q-7 -32 10.5 -60.5t48.5 -49.5t79.5 -40t92 -31.5t98.5 -25.5q103 -24 156 -38.5t132 -45.5 t114.5 -63.5t58 -85.5t8.5 -119q-43 -197 -280 -285q-14 -6 -6 -14q129 -85 98 -226q-19 -88 -81 -156t-149 -107t-181.5 -58t-190.5 -19q-160 0 -292 34t-214 99q-23 20 -22 50zM262 612q-7 -31 11 -59.5t48.5 -49t79.5 -39.5t92.5 -31t98.5 -25l53 -13q110 -20 203 -4 t158 66.5t79 120.5q16 72 -42.5 113.5t-196.5 76.5l-33 8q-78 19 -158 19q-181 0 -278.5 -52.5t-114.5 -130.5z" />
<glyph unicode="&#xa8;" horiz-adv-x="831" d="M143 1327q0 41 26.5 68.5t66.5 27.5t66 -27.5t26 -68.5q0 -43 -26 -70.5t-66 -27.5t-66.5 27.5t-26.5 70.5zM504 1327q0 41 26 68.5t66 27.5t66 -27.5t26 -68.5q0 -43 -26 -70.5t-66 -27.5t-66 27.5t-26 70.5z" />
<glyph unicode="&#xa9;" horiz-adv-x="1638" d="M82 717q0 200 98.5 369.5t268 268.5t370.5 99q200 0 369.5 -99t268.5 -268.5t99 -369.5q0 -201 -99 -370.5t-268.5 -268t-369.5 -98.5q-150 0 -286.5 58t-235.5 157t-157 235.5t-58 286.5zM207 717q0 -166 82 -307.5t223 -223.5t307 -82q124 0 237 48.5t195 130.5 t130.5 196t48.5 238q0 165 -82 305.5t-223 222.5t-306 82q-166 0 -307 -82t-223 -222.5t-82 -305.5zM424 713q0 174 124 293.5t300 119.5q114 0 203 -47q28 -15 32 -44.5t-16 -55.5q-29 -37 -84 -12q-61 30 -135 30q-122 0 -208.5 -83.5t-86.5 -200.5q0 -116 87 -199.5 t208 -83.5q73 0 137 31q51 26 84 -15q19 -25 14.5 -53t-30.5 -43q-98 -53 -205 -53q-175 0 -299.5 122t-124.5 294z" />
<glyph unicode="&#xaa;" horiz-adv-x="925" d="M92 1096q19 149 129.5 253.5t249.5 104.5t193 -86q10 -14 14 4l2 19q3 28 22.5 45.5t45.5 17.5t42 -17.5t13 -45.5l-74 -590q-3 -28 -22.5 -46t-47.5 -18q-26 0 -41 18t-12 46l4 20q0 6 -4 7.5t-8 -3.5q-88 -88 -213 -88q-140 0 -226 105t-67 254zM215 1096 q-13 -112 43.5 -174t149.5 -62q94 0 164 62.5t83 173.5t-41.5 173t-148.5 62t-165.5 -62t-84.5 -173z" />
<glyph unicode="&#xab;" horiz-adv-x="1075" d="M109 489q-21 43 28 95l330 338q51 55 104 20q54 -35 -4 -96l-284 -299q-12 -15 -7 -29l156 -303q32 -62 -41 -98q-61 -34 -92 20l-186 346zM565 489q-21 42 29 95l330 338q51 55 104 20q52 -34 -6 -96l-285 -299q-12 -15 -6 -29l156 -303q32 -63 -41 -100q-60 -31 -90 22 l-187 346z" />
<glyph unicode="&#xac;" horiz-adv-x="1425" d="M160 737q6 34 34.5 56t65.5 22h1020q35 0 53 -23.5t10 -60.5l-90 -422q-7 -37 -36 -60.5t-64 -23.5t-53 23.5t-10 60.5l69 330q7 20 -16 20h-918q-36 0 -54.5 22t-10.5 56z" />
<glyph unicode="&#xad;" d="M111 616q8 35 36.5 58.5t65.5 23.5h401q37 0 55.5 -23.5t10.5 -58.5q-7 -37 -36 -60.5t-66 -23.5h-402q-37 0 -55 23.5t-10 60.5z" />
<glyph unicode="&#xae;" horiz-adv-x="1085" d="M41 995q40 190 204 325.5t355 135.5q93 0 170.5 -36.5t125.5 -99.5t68.5 -146.5t-1.5 -178.5q-41 -191 -205.5 -325.5t-354.5 -134.5q-126 0 -219 61t-131.5 167t-11.5 232zM119 995q-34 -158 54.5 -270.5t246.5 -112.5q157 0 293 112.5t170 270.5q34 157 -54 269 t-245 112q-158 0 -294.5 -112t-170.5 -269zM289 776l90 418q3 15 15.5 27t31.5 12h164q58 0 92.5 -43.5t22.5 -102.5q-9 -39 -34 -72.5t-57 -51.5q11 -12 15.5 -18t11 -19.5t4.5 -25.5t-4 -36q-7 -42 4 -53q16 -16 8 -39q-5 -13 -18 -23t-31 -10q-27 0 -40.5 33t-2.5 92 q6 15 3.5 26t-3 18.5t-8 12.5t-11 7.5t-13 4t-14 1.5h-13.5h-103l-34 -158q-2 -12 -17.5 -24.5t-28.5 -12.5q-18 0 -25 11t-5 26zM418 1010h125q28 0 50.5 20t31.5 57q5 29 -9 50.5t-41 21.5h-124z" />
<glyph unicode="&#xb0;" horiz-adv-x="780" d="M84 1104v20q0 127 90 218.5t217 91.5q128 0 216.5 -89.5t88.5 -216.5v-20q0 -127 -90 -218t-217 -91q-128 0 -216.5 89t-88.5 216zM205 1102q0 -83 53.5 -140t132.5 -57t131.5 56t52.5 141v28q0 85 -53.5 142t-132.5 57q-80 0 -132 -56.5t-52 -142.5v-28z" />
<glyph unicode="&#xb1;" horiz-adv-x="1396" d="M80 74q6 32 31 52.5t57 20.5h856q32 0 48.5 -20.5t10.5 -52.5q-8 -32 -33 -53t-57 -21h-856q-32 0 -48 21t-9 53zM217 721q6 32 31 53t57 21h338q16 0 19 14l69 334q8 32 33 53t57 21h4q32 0 48.5 -21t9.5 -53l-70 -334q-3 -14 10 -14h338q32 0 49 -21t11 -53 q-8 -32 -33.5 -53t-57.5 -21h-337q-14 0 -17 -14l-71 -334q-8 -32 -33.5 -53t-57.5 -21h-4q-32 0 -48 21t-9 53l72 334q3 14 -13 14h-338q-32 0 -48 21t-9 53z" />
<glyph unicode="&#xb4;" horiz-adv-x="575" d="M200 1250.5q-5 21.5 23 52.5l152 176q43 45 88 22l39 -20q28 -14 26.5 -36.5t-30.5 -47.5l-172 -137q-42 -31 -86 -31q-35 0 -40 21.5z" />
<glyph unicode="&#xb5;" horiz-adv-x="1159" d="M27 -233l258 1210h2l4 24q8 32 33 53t57 21q31 0 46 -21t7 -53l-123 -575q-25 -120 31.5 -201.5t171.5 -81.5q78 0 156 37.5t134.5 103t72.5 142.5l122 575q8 32 33.5 53t57.5 21q31 0 46 -21t7 -53l-193 -907q-8 -32 -33 -53t-57 -21q-31 0 -46 21t-7 53l12 62q1 8 -1 9 t-7 -5q-50 -56 -148 -108t-200 -52q-144 0 -211 94q-3 6 -7.5 4t-6.5 -8l-68 -323q-7 -32 -32 -53t-56 -21t-46.5 21t-8.5 53z" />
<glyph unicode="&#xb6;" horiz-adv-x="1220" d="M145 995q91 439 650 439h346q37 0 55 -23.5t10 -60.5l-270 -1276q-7 -35 -32.5 -54.5t-55.5 -19.5q-60 0 -45 74l239 1130q7 32 -6 53t-41 21q-29 0 -51.5 -20.5t-30.5 -53.5l-225 -1059q-29 -142 -116.5 -208t-206.5 -66q-94 0 -144 31q-29 18 -36.5 43t10.5 53 q21 30 53.5 38.5t56.5 -5.5q38 -17 90 -17q53 0 100 33.5t60 97.5l80 375q6 28 -7.5 46t-41.5 18h-60q-229 0 -327.5 102t-53.5 309z" />
<glyph unicode="&#xb7;" horiz-adv-x="464" d="M143 592v47q0 37 23.5 60.5t60.5 23.5h21q37 0 60.5 -23.5t23.5 -60.5v-47q0 -37 -23.5 -60.5t-60.5 -23.5h-21q-37 0 -60.5 23.5t-23.5 60.5z" />
<glyph unicode="&#xb8;" horiz-adv-x="671" d="M158 -193l211 213h84l-172 -282q-35 -56 -86 -31l-33 17q-57 30 -4 83z" />
<glyph unicode="&#xba;" horiz-adv-x="837" d="M90 1094q19 150 127.5 255t243.5 105q136 0 221 -105t66 -255q-19 -149 -128 -253t-245 -104t-220 104t-65 253zM213 1094q-12 -100 40 -167t136 -67t154 68t82 166q12 101 -41 169t-138 68t-153 -68t-80 -169z" />
<glyph unicode="&#xbb;" horiz-adv-x="1075" d="M53 115q-58 39 0 100l287 303q12 15 6 29l-158 299q-31 61 35 96q65 35 96 -20l187 -338q23 -55 -12 -95l-9 -6l-333 -346q-50 -53 -99 -22zM508 117q-57 38 0 98l287 303q12 15 6 29l-158 299q-31 60 37 96q65 35 96 -20l187 -338q23 -54 -13 -95l-8 -6l-334 -346 q-51 -54 -100 -20z" />
<glyph unicode="&#xbf;" horiz-adv-x="1067" d="M51 90q37 174 176.5 291.5t335.5 153.5q12 0 12 10l41 192q8 32 33.5 53t57.5 21q31 0 46 -21t7 -53l-55 -264q-5 -25 -28 -46.5t-56 -25.5q-177 -15 -287 -94t-139 -217q-32 -146 50.5 -236t235.5 -90q168 0 299 125q52 49 97 21q27 -17 27 -48t-27 -59 q-89 -82 -202.5 -132t-223.5 -50q-209 0 -325.5 133.5t-74.5 335.5zM666 969l20 94q6 32 32 53t58 21q30 0 44.5 -20.5t8.5 -53.5l-20 -94q-6 -32 -31 -53t-57 -21q-31 0 -46 21t-9 53z" />
<glyph unicode="&#xf7;" horiz-adv-x="1396" d="M109 596q6 34 34.5 56t65.5 22h1016q36 0 54.5 -22t12.5 -56q-8 -34 -36.5 -56t-65.5 -22h-1016q-36 0 -54.5 22t-10.5 56zM522 207l10 47q7 37 36.5 60.5t66.5 23.5h20q37 0 55.5 -23.5t10.5 -60.5l-10 -47q-7 -37 -36.5 -60.5t-66.5 -23.5h-20q-37 0 -55.5 23.5 t-10.5 60.5zM676 928l10 47q7 37 36 60.5t66 23.5h21q37 0 55 -23.5t10 -60.5l-10 -47q-7 -37 -36 -60.5t-66 -23.5h-21q-37 0 -55 23.5t-10 60.5z" />
<glyph unicode="&#x192;" horiz-adv-x="1138" d="M-165 -188q-8 34 15 69q17 27 41.5 38t49.5 5q27 -6 61 -6q170 0 240 180l231 600q4 11 -6 11h-123q-32 0 -48.5 20t-10.5 51t32 51.5t58 20.5h149q8 0 15 10l69 185q59 161 174 252.5t277 91.5q29 0 90 -9q34 -7 42.5 -38.5t-11.5 -65.5q-39 -64 -93 -51q-24 6 -55 6 q-97 0 -156 -44.5t-92 -133.5l-71 -193q-3 -4 -1 -7t7 -3h182q32 0 47.5 -20.5t9.5 -51.5t-31 -51t-57 -20h-208q-11 0 -15 -11l-227 -592q-62 -160 -175 -252t-276 -92q-49 0 -90 9q-36 7 -44 41z" />
<glyph unicode="&#x2c6;" horiz-adv-x="778" d="M122 1251.5q-3 22.5 28 53.5l159 157q38 35 82 35h49q46 0 66 -35l94 -157q19 -31 12.5 -53.5t-34.5 -22.5h-25q-45 0 -70 28l-63 70q-34 40 -86 0l-92 -70q-38 -28 -82 -28q-35 0 -38 22.5z" />
<glyph unicode="&#x2da;" horiz-adv-x="712" d="M143 1393q0 84 63.5 144t149.5 60t149.5 -60t63.5 -144t-63.5 -144.5t-149.5 -60.5t-149.5 60.5t-63.5 144.5zM254 1393q0 -41 30.5 -72t71.5 -31t72 31t31 72t-31 71.5t-72 30.5t-71.5 -30.5t-30.5 -71.5z" />
<glyph unicode="&#x2dc;" horiz-adv-x="933" d="M141 1298q45 81 95 117.5t114 36.5q49 0 136.5 -41t119.5 -41q54 0 92 49q41 50 82 39q48 -17 13 -76q-45 -81 -95 -117t-114 -36q-49 0 -136.5 41t-119.5 41q-29 0 -49.5 -11t-42.5 -38q-41 -51 -89 -37q-42 14 -6 73z" />
<glyph unicode="&#x3c0;" horiz-adv-x="1228" d="M115 74l176 827q0 10 -8 10h-60q-32 0 -48 21t-9 53q6 31 31 50.5t57 19.5h936q32 0 48 -21t9 -53q-6 -31 -31 -50.5t-57 -19.5h-59q-13 0 -13 -10l-176 -827q-8 -32 -33 -53t-57 -21q-31 0 -46 21t-7 53l176 827q0 10 -8 10h-490q-12 0 -12 -10l-176 -827 q-8 -32 -33 -53t-57 -21q-31 0 -46 21t-7 53z" />
<glyph unicode="&#x2000;" horiz-adv-x="819" />
<glyph unicode="&#x2001;" horiz-adv-x="1638" />
<glyph unicode="&#x2002;" horiz-adv-x="819" />
<glyph unicode="&#x2003;" horiz-adv-x="1638" />
<glyph unicode="&#x2004;" horiz-adv-x="546" />
<glyph unicode="&#x2005;" horiz-adv-x="409" />
<glyph unicode="&#x2006;" horiz-adv-x="273" />
<glyph unicode="&#x2007;" horiz-adv-x="273" />
<glyph unicode="&#x2008;" horiz-adv-x="204" />
<glyph unicode="&#x2009;" horiz-adv-x="327" />
<glyph unicode="&#x200a;" horiz-adv-x="91" />
<glyph unicode="&#x2010;" d="M111 616q8 35 36.5 58.5t65.5 23.5h401q37 0 55.5 -23.5t10.5 -58.5q-7 -37 -36 -60.5t-66 -23.5h-402q-37 0 -55 23.5t-10 60.5z" />
<glyph unicode="&#x2011;" d="M111 616q8 35 36.5 58.5t65.5 23.5h401q37 0 55.5 -23.5t10.5 -58.5q-7 -37 -36 -60.5t-66 -23.5h-402q-37 0 -55 23.5t-10 60.5z" />
<glyph unicode="&#x2012;" d="M111 616q8 35 36.5 58.5t65.5 23.5h401q37 0 55.5 -23.5t10.5 -58.5q-7 -37 -36 -60.5t-66 -23.5h-402q-37 0 -55 23.5t-10 60.5z" />
<glyph unicode="&#x2013;" horiz-adv-x="1019" d="M109 616q8 34 35.5 56t64.5 22h647q37 0 56 -22t12 -56q-7 -35 -35.5 -57t-65.5 -22h-647q-37 0 -55.5 22t-11.5 57z" />
<glyph unicode="&#x2014;" horiz-adv-x="1800" d="M121 621q6 32 33.5 52.5t64.5 20.5h1405q37 0 56 -22t12 -56q-7 -35 -35.5 -57t-65.5 -22h-1405q-37 0 -55.5 23.5t-9.5 60.5z" />
<glyph unicode="&#x2018;" horiz-adv-x="468" d="M190 1087l23 101q22 101 71 163.5t134 94.5q34 11 57.5 7.5t26.5 -19.5q5 -29 -68 -68q-85 -49 -100 -137q-3 -10 8 -10q27 -5 40.5 -28t6.5 -56l-10 -48q-7 -37 -35 -60t-65 -23h-21q-37 0 -56 23t-12 60z" />
<glyph unicode="&#x2019;" horiz-adv-x="446" d="M186 1024q-5 29 68 68q85 49 100 137q3 10 -8 10q-27 5 -40.5 28t-6.5 56l10 47q8 37 36 60.5t65 23.5h20q37 0 56 -23.5t12 -60.5l-23 -100q-22 -101 -71 -163.5t-134 -94.5q-34 -11 -57.5 -7.5t-26.5 19.5z" />
<glyph unicode="&#x201a;" horiz-adv-x="518" d="M-29 -215q-5 29 68 68q88 49 100 137q3 10 -8 10q-27 5 -39.5 28t-5.5 56l10 47q8 37 36 60.5t65 23.5h20q37 0 56 -23.5t12 -60.5l-23 -100q-22 -102 -72 -163.5t-135 -94.5q-34 -11 -57.5 -7.5t-26.5 19.5z" />
<glyph unicode="&#x201c;" horiz-adv-x="880" d="M190 1087l23 101q22 101 71 163.5t134 94.5q34 11 57.5 7.5t26.5 -19.5q5 -29 -68 -68q-85 -49 -100 -137q-3 -10 8 -10q27 -5 40.5 -28t6.5 -56l-10 -48q-7 -37 -35 -60t-65 -23h-21q-37 0 -56 23t-12 60zM600 1087l23 101q22 102 71 164t133 94q34 11 57.5 7.5 t26.5 -19.5q5 -29 -67 -68q-86 -50 -101 -137q-3 -10 9 -10q27 -5 39.5 -28t5.5 -56l-11 -48q-7 -37 -35 -60t-65 -23h-18q-37 0 -56 23t-12 60z" />
<glyph unicode="&#x201d;" horiz-adv-x="858" d="M186 1024q-5 29 68 68q85 49 100 137q3 10 -8 10q-27 5 -39.5 28t-5.5 56l10 47q8 37 36 60.5t65 23.5h18q37 0 56 -23.5t12 -60.5l-23 -100q-22 -101 -71 -163.5t-134 -94.5q-34 -11 -57.5 -7.5t-26.5 19.5zM596 1024q-5 29 68 68q85 49 100 137q3 10 -8 10 q-27 5 -40.5 28t-6.5 56l10 47q8 37 35.5 60.5t64.5 23.5h21q37 0 55.5 -23.5t11.5 -60.5l-22 -100q-22 -101 -71 -163.5t-134 -94.5q-34 -11 -57.5 -7.5t-26.5 19.5z" />
<glyph unicode="&#x201e;" horiz-adv-x="518" d="M-29 -215q-5 29 68 68q88 49 100 137q3 10 -8 10q-27 5 -39.5 28t-5.5 56l10 47q8 37 36 60.5t65 23.5h20q37 0 56 -23.5t12 -60.5l-23 -100q-22 -102 -72 -163.5t-135 -94.5q-34 -11 -57.5 -7.5t-26.5 19.5z" />
<glyph unicode="&#x2020;" horiz-adv-x="737" d="M133 1004q4 23 23.5 37t44.5 14h168q9 0 12 10l65 303q5 28 26 47t48 19t40.5 -19t8.5 -47l-65 -303q-3 -10 8 -10h168q25 0 38 -14t9 -37q-6 -24 -25.5 -39t-44.5 -15h-168q-9 0 -12 -10l-186 -877q-6 -28 -26.5 -45.5t-47.5 -17.5q-28 0 -41.5 17.5t-7.5 45.5l186 877 q3 10 -8 10h-168q-25 0 -38 15t-7 39z" />
<glyph unicode="&#x2021;" horiz-adv-x="786" d="M10 430q6 24 25.5 38.5t44.5 14.5h168q8 0 12 11l94 446q3 10 -8 10h-168q-25 0 -38 15t-7 39q4 23 23.5 37t44.5 14h168q9 0 12 10l65 305q6 28 26.5 46t47.5 18q28 0 41.5 -18t7.5 -46l-65 -305q-3 -10 8 -10h168q25 0 38 -14t9 -37q-6 -24 -25.5 -39t-44.5 -15h-168 q-9 0 -12 -10l-94 -446q-1 -4 1 -7.5t7 -3.5h168q25 0 38 -14.5t7 -38.5q-4 -23 -23 -37t-44 -14h-168q-10 0 -13 -10l-65 -306q-6 -28 -26.5 -45.5t-47.5 -17.5q-28 0 -41.5 17.5t-7.5 45.5l65 306q3 10 -8 10h-168q-25 0 -38 14t-9 37z" />
<glyph unicode="&#x2022;" horiz-adv-x="753" d="M125 721q0 110 79 189t189 79t189.5 -79t79.5 -189t-79.5 -189t-189.5 -79t-189 79t-79 189z" />
<glyph unicode="&#x2026;" horiz-adv-x="1402" d="M31 84v43q0 37 23.5 60.5t60.5 23.5h14q37 0 60.5 -23.5t23.5 -60.5v-43q0 -37 -23.5 -60.5t-60.5 -23.5h-14q-37 0 -60.5 23.5t-23.5 60.5zM522 84v43q0 37 23.5 60.5t60.5 23.5h15q37 0 60.5 -23.5t23.5 -60.5v-43q0 -37 -23.5 -60.5t-60.5 -23.5h-15q-37 0 -60.5 23.5 t-23.5 60.5zM1014 84v43q0 37 23.5 60.5t60.5 23.5h16q37 0 60.5 -23.5t23.5 -60.5v-43q0 -37 -23.5 -60.5t-60.5 -23.5h-16q-37 0 -60.5 23.5t-23.5 60.5z" />
<glyph unicode="&#x202f;" horiz-adv-x="327" />
<glyph unicode="&#x2030;" horiz-adv-x="2162" d="M35.5 43.5q1.5 24.5 23.5 46.5l1256 1329q20 22 44.5 26t43.5 -11t17.5 -39.5t-23.5 -46.5l-1256 -1330q-20 -22 -44.5 -25.5t-43.5 11.5t-17.5 39.5zM158 1104l4 20q28 127 137 218.5t236 91.5q128 0 197.5 -89.5t43.5 -216.5l-6 -20q-26 -126 -136 -217.5t-237 -91.5 q-128 0 -196.5 89t-42.5 216zM279 1102q-19 -83 22.5 -140t120.5 -57t143.5 56t83.5 141l6 28q17 85 -24.5 142t-120.5 57t-142.5 -56.5t-82.5 -142.5zM666 297l4 20q28 127 136.5 218.5t235.5 91.5q128 0 198 -89t44 -216l-4 -21q-28 -127 -137 -218t-236 -91 q-128 0 -197.5 89t-43.5 216zM786 295q-17 -83 25 -140t121 -57t142.5 56t82.5 141l6 29q19 85 -22 141.5t-121 56.5t-144 -56t-83 -142zM1391 297l4 20q28 127 136.5 218.5t235.5 91.5q128 0 198 -89t44 -216l-4 -21q-28 -127 -137 -218t-236 -91q-128 0 -197.5 89 t-43.5 216zM1511 295q-17 -83 25 -140t121 -57t142.5 56t82.5 141l6 29q19 85 -22 141.5t-121 56.5t-144 -56t-83 -142z" />
<glyph unicode="&#x2039;" horiz-adv-x="595" d="M63 489q-21 42 29 95l330 338q51 55 104 20q52 -37 -4 -96l-284 -299q-12 -15 -7 -29l156 -303q32 -62 -41 -98q-61 -34 -92 20l-186 346z" />
<glyph unicode="&#x203a;" horiz-adv-x="593" d="M49 117q-57 38 0 98l287 303q12 15 6 29l-158 299q-31 61 37 96q65 35 96 -20l187 -338q23 -55 -12 -95l-9 -6l-333 -346q-51 -55 -101 -20z" />
<glyph unicode="&#x2044;" horiz-adv-x="163" d="M-390.5 48.5q-4.5 23.5 9.5 43.5l866 1315q15 23 40.5 28t47.5 -10q21 -15 26 -38.5t-9 -43.5l-866 -1314q-15 -23 -41.5 -28t-47.5 9q-21 15 -25.5 38.5z" />
<glyph unicode="&#x205f;" horiz-adv-x="409" />
<glyph unicode="&#x20ac;" horiz-adv-x="1435" d="M68 549v2q6 28 26.5 45.5t48.5 17.5h93q5 0 8 3.5t2 7.5l18 90q13 62 29 110q3 5 1 8t-7 3h-97q-28 0 -41.5 17.5t-7.5 45.5t28 46t50 18h121q7 0 10 8q109 218 287 352.5t379 134.5q152 0 248.5 -59.5t158.5 -169.5q12 -22 3 -46.5t-35 -41.5l-27 -17q-25 -15 -47.5 -11 t-34.5 26q-54 89 -123 131.5t-180 42.5q-131 0 -253.5 -92t-205.5 -246q-6 -12 6 -12h451q28 0 41.5 -18t7.5 -46t-28 -45.5t-50 -17.5h-479q-7 0 -14 -11q-19 -64 -29 -106q-3 -15 -8 -46t-8 -48q0 -11 8 -11h483q28 0 42.5 -17.5t8.5 -45.5v-2q-6 -28 -28 -46t-50 -18 h-454q-10 0 -10 -12q12 -161 101.5 -256.5t236.5 -95.5q101 0 189.5 47.5t176.5 138.5q22 22 47 26t45 -11l15 -11q40 -37 -4 -88q-115 -118 -237 -183t-269 -65q-213 0 -338 137t-133 365q0 8 -9 8h-114q-28 0 -41.5 18t-7.5 46z" />
<glyph unicode="&#x2122;" horiz-adv-x="1300" d="M141 1384q4 20 23 35t39 15h323q20 0 31 -15t6 -35q-3 -20 -20.5 -34.5t-38.5 -14.5h-115l-92 -440q-4 -20 -22.5 -34.5t-38.5 -14.5t-30 14t-5 35l92 440h-113q-20 0 -31 14t-8 35zM543 895l98 469q6 28 27 49t47 21q21 0 32 -6.5t21 -28.5l117 -258l227 258 q30 35 70 35q26 0 36.5 -21t4.5 -49l-99 -469q-4 -20 -22.5 -34.5t-38.5 -14.5q-19 0 -29 14.5t-6 34.5l78 367l-172 -197q-31 -39 -74 -39q-40 0 -57 39l-86 197l-78 -367q-4 -20 -22.5 -34.5t-38.5 -14.5q-19 0 -29 14.5t-6 34.5z" />
<glyph unicode="&#x2202;" horiz-adv-x="1087" d="M18 446q40 191 203 328t352 137q132 0 234 -73q5 -5 8 -2t2 10q-6 61 -19.5 114.5t-40.5 107t-65.5 95.5t-95.5 75.5t-129 51.5q-30 8 -41.5 30t-1.5 54q12 31 40 48t60 10q104 -28 185.5 -83t132 -124t83.5 -153.5t45 -170t11.5 -173t-12.5 -162.5t-31 -140 q-59 -195 -216 -320.5t-345 -125.5q-124 0 -216.5 62.5t-131 170t-11.5 233.5zM162 446q-29 -136 42 -229.5t202 -93.5t242 93.5t140 229.5q29 135 -42.5 228.5t-202.5 93.5q-130 0 -241 -93.5t-140 -228.5z" />
<glyph unicode="&#x2206;" horiz-adv-x="1378" d="M-100.5 39.5q-2.5 23.5 12.5 48.5l870 1321q25 39 66 39q11 0 26 -6q23 -12 23 -33l299 -1321q3 -13 0 -29q-6 -26 -27 -42.5t-49 -16.5h-1167l-16 2l-15 4q-20 10 -22.5 33.5zM78 135q-9 -12 6 -12h956q14 0 11 12l-246 1084q-4 14 -14 0z" />
<glyph unicode="&#x220f;" horiz-adv-x="1257" d="M88 74l256 1206q3 10 -6 10h-59q-32 0 -49 21t-11 53q6 31 31 50.5t57 19.5h936q32 0 49 -21t11 -53q-8 -31 -32.5 -50.5t-56.5 -19.5h-59q-11 0 -14 -10l-256 -1206q-6 -32 -31 -53t-57 -21q-31 0 -46.5 21t-9.5 53l256 1206q3 10 -6 10h-489q-12 0 -15 -10l-256 -1206 q-6 -32 -31 -53t-57 -21q-31 0 -46 21t-9 53z" />
<glyph unicode="&#x2211;" horiz-adv-x="1132" d="M-60 39.5q-15 39.5 25 79.5l637 608q15 15 6 29l-391 557q-24 33 6.5 77t79.5 44h821q28 0 43 -18t9 -46l-2 -6q-6 -28 -27 -46t-49 -18h-635q-13 0 -21 -7t-2 -17l351 -479q16 -24 7.5 -56t-34.5 -55l-571 -520q-11 -10 -9 -17.5t15 -7.5h651q28 0 42.5 -17.5t8.5 -45.5 l-4 -15q-6 -28 -27 -45.5t-49 -17.5h-815q-51 0 -66 39.5z" />
<glyph unicode="&#x221a;" horiz-adv-x="1107" d="M29 702q-7 26 7 52t42 41l184 90q54 26 95 9t49 -67l96 -620q1 -5 3.5 -6.5t6 0t6.5 6.5l610 1177q13 24 35.5 38t46.5 12q37 -3 48 -33t-9 -68l-653 -1265q-38 -68 -104 -68h-33q-30 0 -50 15.5t-24 43.5l-125 658q0 13 -14 6l-121 -59q-34 -17 -61 -9t-33 39z" />
<glyph unicode="&#x221e;" horiz-adv-x="1748" d="M92 512q35 164 154 262t276 98q198 0 293 -155l70 -105q10 -13 20 0l115 105q168 155 358 155q157 0 235.5 -98t43.5 -262t-154 -262t-276 -98q-198 0 -293 155l-70 105q-10 13 -20 0l-115 -105q-164 -155 -358 -155q-157 0 -235.5 98t-43.5 262zM236 512 q-24 -112 22 -175t135 -63q71 0 120.5 23.5t117.5 83.5l133 121q12 9 4 20l-80 121q-41 61 -81 84t-111 23q-89 0 -162.5 -63t-97.5 -175zM981 502l80 -121q41 -61 81 -84t111 -23q89 0 162.5 63t97.5 175t-22 175t-135 63q-71 0 -121 -23.5t-117 -83.5l-133 -121 q-12 -9 -4 -20z" />
<glyph unicode="&#x222b;" horiz-adv-x="811" d="M-146 -365.5q-8 24.5 5 52.5q13 31 41.5 43.5t58.5 3.5q41 -13 72 -13q71 0 125.5 48t70.5 147l207 1364q13 86 52.5 150t95 99t114.5 51.5t121 16.5q61 0 111 -12q27 -7 35 -31.5t-5 -52.5q-13 -31 -41.5 -43.5t-58.5 -3.5q-38 12 -72 12q-72 0 -127 -47.5t-71 -146.5 l-207 -1364q-13 -86 -52.5 -150t-94.5 -99.5t-114 -52t-122 -16.5q-55 0 -109 13q-27 7 -35 31.5z" />
<glyph unicode="&#x2248;" horiz-adv-x="1157" d="M39 356q-24 35 10 72q153 145 287 145q36 0 74.5 -10t64.5 -20.5t86 -38.5q74 -36 121 -52t96 -16q94 0 195 68q46 32 69 -2q26 -33 -12 -68q-147 -147 -285 -147q-36 0 -74.5 10t-64.5 20.5t-86 38.5q-74 36 -121 52t-96 16q-91 0 -194 -68q-45 -31 -70 0zM119 743 q-23 38 14 72q150 146 285 146q36 0 75 -10.5t63 -20.5t87 -39q77 -38 123 -54t94 -16q96 0 195 70q46 32 69 -4q26 -33 -12 -68q-145 -145 -285 -145q-36 0 -74.5 10t-64.5 20.5t-86 38.5q-54 25 -82 37t-65 21.5t-70 9.5q-94 0 -195 -70q-45 -31 -71 2z" />
<glyph unicode="&#x2260;" horiz-adv-x="1185" d="M16 524v4q15 64 88 64h312q5 0 14 6l203 207q6 5 4 8.5t-8 3.5h-477q-33 0 -49.5 16.5t-10.5 47.5v4q15 63 88 63h588q5 0 14 6l232 236q26 23 49 21t39 -23q26 -39 -23 -88l-139 -139q-9 -13 4 -13h174q34 0 50.5 -16t9.5 -47v-4q-6 -31 -30 -47.5t-58 -16.5h-283 q-9 0 -12 -6l-207 -207q-8 -12 4 -12h450q34 0 50.5 -16.5t9.5 -47.5v-4q-6 -31 -30 -47t-58 -16h-559q-10 0 -13 -6l-266 -269q-26 -23 -49 -21t-39 23q-26 39 23 88l170 173q6 5 3.5 8.5t-8.5 3.5h-200q-33 0 -49.5 16t-10.5 47z" />
<glyph unicode="&#x2264;" horiz-adv-x="1179" d="M-10 68q7 33 33.5 50t64.5 17h799q38 0 57 -17t12 -50t-33.5 -50.5t-64.5 -17.5h-799q-38 0 -57 17.5t-12 50.5zM129 721q15 68 96 104l873 392q47 22 72.5 13.5t17.5 -42.5l-2 -12q-14 -68 -80 -97l-772 -342q-14 -6 -16 -14t10 -14l626 -344q53 -29 39 -97 q-9 -40 -38.5 -52t-67.5 9l-707 391q-66 36 -51 105z" />
<glyph unicode="&#x2265;" horiz-adv-x="1179" d="M-12 68q7 33 33.5 50t64.5 17h799q38 0 57 -17t12 -50t-33.5 -50.5t-64.5 -17.5h-799q-38 0 -57 17.5t-12 50.5zM37 268q14 68 80 97l774 344q12 6 14 14t-8 14l-629 342q-53 29 -39 97l2 12q8 34 36.5 42.5t66.5 -13.5l708 -392q66 -37 52 -104q-15 -69 -97 -105 l-874 -391q-47 -22 -71 -9.5t-15 52.5z" />
<glyph unicode="&#x25ca;" horiz-adv-x="1157" d="M81 628.5q8 36.5 38 67.5l485 500q41 41 92 41h6q55 0 76 -41l273 -498q18 -33 10.5 -69.5t-37.5 -69.5l-492 -516q-40 -43 -92 -43h-6q-55 0 -76 43l-268 516q-17 33 -9 69.5zM231 612l232 -436q5 -9 13 -9t16 9l413 436q12 15 6 29l-231 418q-4 9 -13 9t-16 -9 l-413 -418q-12 -15 -7 -29z" />
<glyph unicode="&#x25fc;" horiz-adv-x="1075" d="M0 0v1075h1075v-1075h-1075z" />
<glyph unicode="&#xfb01;" horiz-adv-x="1177" d="M-225 -332q3 38 28 55t56 17q61 0 93.5 34.5t55.5 96.5q6 16 12 37.5t15.5 59.5t17 70t22 97.5t24.5 111.5t31.5 144t35.5 164l76 348q1 4 -2 7t-9 3h-71q-40 0 -61 25t-9 63q6 25 25 39.5t45 14.5h104q10 0 12 10q45 208 147 317t245 109q121 0 221 -36.5t141 -70.5 q30 -24 38.5 -57.5t-5.5 -60.5q-15 -31 -54.5 -39t-70.5 16q-136 108 -272 111q-53 1 -94 -19t-69.5 -61.5t-47 -90t-35.5 -116.5q0 -12 10 -12h539q4 0 10.5 -1t9.5 -1q27 -9 40.5 -34.5t6.5 -57.5l-147 -703q-6 -20 -10 -61q-2 -32 13 -61t52 -17q30 14 62.5 12t50.5 -31 q15 -25 2.5 -55.5t-41.5 -42.5q-45 -20 -96 -20q-85 0 -131.5 46t-53.5 115q-7 55 11 127l131 633q3 10 -9 10h-475q-9 0 -12 -8l-74 -360q-119 -570 -164 -697q-45 -136 -108 -197t-178 -61q-33 0 -60 19t-24 59z" />
<glyph unicode="&#xfb02;" horiz-adv-x="1167" d="M-225 -332q3 38 28 55t56 17q61 0 93.5 34.5t55.5 96.5q6 16 12 37.5t15.5 59.5t17 70t22 97.5t24.5 111.5t31.5 144t35.5 164l76 348q1 4 -2 7t-9 3h-71q-40 0 -61 25t-9 63q6 25 25 39.5t45 14.5h104q10 0 12 10q45 208 147 317t245 109q170 0 313 -76q9 -3 12 6 q18 41 64 41q36 0 56.5 -27.5t12.5 -66.5l-237 -1110q-8 -39 -10 -61q-2 -32 13 -61t52 -17q30 14 62.5 12t50.5 -31q15 -25 2.5 -55.5t-41.5 -42.5q-45 -20 -96 -20q-85 0 -131.5 46t-53.5 115q-5 44 11 127l204 959q0 8 -6 14q-141 108 -280 111q-53 1 -94 -19 t-69.5 -61.5t-47 -90t-35.5 -116.5q0 -12 10 -12h145q40 0 61 -28t11 -66q-12 -48 -72 -48h-180q-9 0 -12 -8l-74 -360q-119 -570 -164 -697q-45 -136 -108 -197t-178 -61q-33 0 -60 19t-24 59z" />
</font>
</defs>
</svg>
